<svg xmlns="http://www.w3.org/2000/svg" xmlns:xlink="http://www.w3.org/1999/xlink" width="1080" zoomAndPan="magnify" viewBox="0 0 810 817.92" height="1080" preserveAspectRatio="xMidYMid meet" version="1.0"><defs><clipPath id="9ef8f5989b"><path d="M 385 109 L 701.9375 109 L 701.9375 426 L 385 426 Z M 385 109 " clip-rule="nonzero"/></clipPath><clipPath id="0f0ea49601"><path d="M 108.082031 130 L 679 130 L 679 701.015625 L 108.082031 701.015625 Z M 108.082031 130 " clip-rule="nonzero"/></clipPath></defs><g clip-path="url(#9ef8f5989b)"><path fill="#05439a" d="M 610.847656 255.660156 L 564.09375 250.523438 C 563.59375 249.699219 563 248.917969 562.289062 248.203125 C 561.578125 247.492188 560.796875 246.898438 559.972656 246.402344 L 554.832031 199.648438 L 606.195312 148.285156 L 610.648438 188.917969 C 610.980469 191.917969 612.382812 194.582031 614.46875 196.523438 C 616.359375 198.332031 618.828125 199.535156 621.578125 199.839844 L 662.203125 204.296875 Z M 690.195312 182.773438 L 633.894531 176.597656 L 627.71875 120.296875 C 627.203125 115.617188 624.054688 111.65625 619.621094 110.097656 C 615.179688 108.535156 610.246094 109.652344 606.921875 112.984375 L 533.398438 186.507812 C 530.78125 189.125 529.480469 192.800781 529.890625 196.488281 L 536.503906 256.699219 L 388.609375 404.597656 C 383.839844 409.371094 383.839844 417.105469 388.609375 421.882812 C 391 424.265625 394.128906 425.460938 397.253906 425.460938 C 400.382812 425.460938 403.511719 424.265625 405.894531 421.882812 L 553.785156 273.992188 L 614.015625 280.601562 C 614.453125 280.652344 614.902344 280.675781 615.34375 280.675781 C 618.566406 280.675781 621.679688 279.398438 623.988281 277.09375 L 697.507812 203.570312 C 700.832031 200.25 701.953125 195.308594 700.398438 190.875 C 698.839844 186.4375 694.875 183.289062 690.195312 182.773438 " fill-opacity="1" fill-rule="nonzero"/></g><path fill="#05439a" d="M 346.179688 364.863281 C 358.332031 353.621094 373.878906 347.121094 390.550781 346.460938 C 397.296875 346.199219 402.550781 340.507812 402.28125 333.765625 C 402.023438 327.179688 396.601562 322.023438 390.074219 322.023438 C 389.914062 322.023438 389.75 322.027344 389.582031 322.035156 C 364.5 323.023438 341.289062 333.757812 324.226562 352.246094 C 308.160156 369.664062 299.308594 392.308594 299.308594 416.019531 C 299.308594 467.878906 341.503906 510.074219 393.367188 510.074219 C 445.234375 510.074219 487.429688 467.878906 487.429688 416.019531 C 487.429688 412.878906 487.277344 409.710938 486.964844 406.601562 C 486.292969 399.882812 480.308594 394.921875 473.597656 395.640625 C 468.644531 396.132812 464.691406 399.511719 463.210938 403.9375 C 462.679688 405.523438 462.457031 407.242188 462.632812 409.011719 C 462.863281 411.324219 462.980469 413.652344 462.980469 416.019531 C 462.980469 454.398438 431.75 485.625 393.367188 485.625 C 354.988281 485.625 323.757812 454.398438 323.757812 416.019531 C 323.757812 398.476562 330.304688 381.714844 342.195312 368.824219 C 343.476562 367.441406 344.8125 366.132812 346.179688 364.863281 " fill-opacity="1" fill-rule="nonzero"/><g clip-path="url(#0f0ea49601)"><path fill="#05439a" d="M 637.292969 292.730469 C 631.136719 295.515625 628.40625 302.757812 631.191406 308.910156 C 646.46875 342.675781 654.207031 378.710938 654.207031 416.019531 C 654.207031 559.847656 537.199219 676.855469 393.378906 676.855469 C 249.542969 676.855469 132.527344 559.847656 132.527344 416.019531 C 132.527344 272.1875 249.542969 155.175781 393.378906 155.175781 C 429.496094 155.175781 464.488281 162.453125 497.382812 176.8125 C 503.542969 179.5 510.769531 176.6875 513.476562 170.496094 C 516.171875 164.3125 513.347656 157.109375 507.15625 154.402344 C 471.164062 138.691406 432.882812 130.722656 393.378906 130.722656 C 236.0625 130.722656 108.082031 258.710938 108.082031 416.019531 C 108.082031 573.328125 236.0625 701.308594 393.378906 701.308594 C 550.675781 701.308594 678.65625 573.328125 678.65625 416.019531 C 678.65625 375.214844 670.183594 335.789062 653.46875 298.832031 C 650.6875 292.679688 643.449219 289.945312 637.292969 292.730469 " fill-opacity="1" fill-rule="nonzero"/></g><path fill="#05439a" d="M 464.121094 252.429688 C 466.378906 246.066406 463.046875 239.078125 456.6875 236.824219 C 436.371094 229.625 415.074219 225.980469 393.378906 225.980469 C 288.585938 225.980469 203.335938 311.230469 203.335938 416.019531 C 203.335938 520.800781 288.585938 606.050781 393.378906 606.050781 C 498.15625 606.050781 583.398438 520.800781 583.398438 416.019531 C 583.398438 395.308594 580.074219 374.921875 573.5 355.425781 C 571.332031 349.027344 564.410156 345.589844 558.011719 347.746094 C 551.609375 349.90625 548.171875 356.835938 550.324219 363.234375 C 556.050781 380.214844 558.953125 397.972656 558.953125 416.019531 C 558.953125 507.324219 484.671875 581.605469 393.378906 581.605469 C 302.074219 581.605469 227.785156 507.324219 227.785156 416.019531 C 227.785156 324.714844 302.074219 250.429688 393.378906 250.429688 C 412.285156 250.429688 430.839844 253.605469 448.519531 259.863281 C 454.886719 262.152344 461.878906 258.792969 464.121094 252.429688 " fill-opacity="1" fill-rule="nonzero"/></svg>