<svg xmlns="http://www.w3.org/2000/svg" xmlns:xlink="http://www.w3.org/1999/xlink" width="1080" zoomAndPan="magnify" viewBox="0 0 810 809.999993" height="1080" preserveAspectRatio="xMidYMid meet" version="1.0"><defs><clipPath id="c645b3593c"><path d="M 97.328125 403 L 712.328125 403 L 712.328125 696 L 97.328125 696 Z M 97.328125 403 " clip-rule="nonzero"/></clipPath></defs><g clip-path="url(#c645b3593c)"><path fill="#05439a" d="M 663.175781 404.535156 C 673.230469 402.082031 683.804688 403.304688 693.070312 407.984375 C 697.367188 410.273438 701.171875 413.410156 704.269531 417.210938 C 707.363281 421.011719 709.695312 425.394531 711.109375 430.121094 C 712.515625 434.871094 712.980469 439.863281 712.464844 444.796875 C 711.949219 449.730469 710.460938 454.511719 708.105469 458.855469 L 663.242188 536.136719 C 653.960938 552.113281 640.839844 565.40625 625.105469 574.765625 L 513.429688 640.753906 C 497.558594 650.144531 479.53125 655.085938 461.179688 655.109375 C 453.410156 655.0625 445.65625 654.207031 438.058594 652.53125 L 289.148438 636.75 C 287.523438 641.089844 284.988281 645.015625 281.746094 648.277344 L 245.460938 685.984375 C 242.214844 689.296875 238.347656 691.914062 234.101562 693.695312 C 229.855469 695.472656 225.304688 696.367188 220.710938 696.339844 L 217.710938 696.339844 C 212.679688 695.859375 207.800781 694.296875 203.417969 691.738281 C 199.03125 689.175781 195.214844 685.683594 192.261719 681.5 L 103.707031 555.234375 C 101.019531 551.382812 99.121094 547.011719 98.128906 542.394531 C 97.136719 537.78125 97.066406 533.003906 97.925781 528.359375 C 98.6875 523.644531 100.371094 519.128906 102.871094 515.085938 C 105.371094 511.039062 108.664062 507.539062 112.511719 504.800781 L 146.019531 481.242188 C 153.152344 476.277344 161.855469 474.199219 170.40625 475.421875 C 178.957031 476.640625 186.746094 481.078125 192.261719 487.84375 L 211.003906 468.289062 C 228.792969 448.582031 252.429688 435.351562 278.289062 430.601562 C 300.144531 427.175781 322.472656 428.617188 343.722656 434.835938 L 443.367188 464.285156 C 449.332031 466.046875 455.667969 466.046875 461.632812 464.285156 L 507.875 452.734375 C 517.03125 449.929688 526.699219 449.332031 536.121094 450.964844 C 545.546875 452.597656 554.472656 456.433594 562.199219 462.167969 C 571.980469 470.535156 578.40625 482.265625 580.242188 495.136719 C 584.722656 492.796875 588.667969 489.515625 591.800781 485.5 L 638.042969 421.398438 C 644.222656 412.953125 653.121094 406.988281 663.175781 404.535156 Z M 165.914062 498.199219 C 163.597656 498.242188 161.339844 499 159.433594 500.339844 L 125.925781 523.898438 C 123.457031 525.722656 121.710938 528.390625 121.046875 531.421875 C 120.574219 534.53125 121.238281 537.71875 122.898438 540.371094 L 210.777344 667.832031 C 211.707031 669.296875 212.96875 670.515625 214.457031 671.375 C 215.941406 672.234375 217.605469 672.714844 219.3125 672.78125 C 221.015625 672.941406 222.746094 672.722656 224.347656 672.113281 C 225.949219 671.5 227.390625 670.519531 228.570312 669.261719 L 264.878906 631.550781 C 267.035156 629.523438 268.339844 626.714844 268.511719 623.726562 C 268.683594 620.742188 267.714844 617.804688 265.804688 615.535156 L 174.921875 502.683594 C 173.871094 501.273438 172.511719 500.125 170.949219 499.347656 C 169.382812 498.570312 167.65625 498.171875 165.914062 498.199219 Z M 668.457031 427.425781 C 663.664062 428.59375 659.421875 431.476562 656.535156 435.550781 L 610.292969 499.394531 C 603.964844 508.25 595.304688 515.113281 585.320312 519.179688 L 494.238281 556.40625 C 482.863281 561.402344 470.183594 562.476562 458.15625 559.46875 L 378.855469 538.96875 C 377.382812 538.582031 376.007812 537.894531 374.792969 536.964844 C 373.578125 536.035156 372.539062 534.875 371.765625 533.539062 C 370.996094 532.203125 370.488281 530.722656 370.277344 529.191406 C 370.066406 527.65625 370.144531 526.085938 370.527344 524.585938 C 371.339844 521.59375 373.273438 519.035156 375.898438 517.457031 C 378.53125 515.875 381.667969 515.398438 384.636719 516.121094 L 463.710938 536.621094 C 470.917969 538.523438 478.542969 538.015625 485.453125 535.195312 L 558.972656 504.570312 C 558.894531 504.023438 558.894531 503.460938 558.972656 502.914062 C 559.042969 498.382812 558.074219 493.886719 556.148438 489.800781 C 554.222656 485.714844 551.398438 482.132812 547.886719 479.355469 C 542.914062 475.871094 537.214844 473.605469 531.246094 472.707031 C 525.273438 471.808594 519.179688 472.308594 513.429688 474.179688 L 467.1875 485.730469 C 457.28125 488.554688 446.792969 488.554688 436.886719 485.730469 L 337.246094 458.394531 C 319.324219 452.996094 300.433594 451.777344 281.992188 454.851562 C 261.050781 458.789062 241.945312 469.648438 227.644531 485.730469 L 207.074219 506.6875 L 283.59375 600.925781 C 286.304688 604.644531 288.425781 608.792969 289.851562 613.191406 L 441.515625 629.203125 C 461.859375 634.199219 483.316406 630.992188 501.394531 620.253906 L 613.070312 554.292969 C 625.332031 546.9375 635.585938 536.5625 642.898438 524.128906 L 687.515625 446.84375 C 688.421875 445.347656 689.015625 443.664062 689.253906 441.921875 C 689.492188 440.183594 689.382812 438.414062 688.914062 436.722656 C 688.457031 435.085938 687.664062 433.558594 686.589844 432.257812 C 685.515625 430.960938 684.164062 429.910156 682.660156 429.175781 C 678.285156 426.875 673.25 426.261719 668.457031 427.425781 Z M 668.457031 427.425781 " fill-opacity="1" fill-rule="evenodd"/></g><path fill="#05439a" d="M 443.207031 91.148438 C 448.398438 78.460938 465.265625 77.667969 471.90625 88.78125 L 473.101562 91.148438 L 511.984375 186.398438 L 612.914062 194.660156 C 627.25 195.839844 633.066406 214.082031 622.148438 223.625 L 545.242188 290.738281 L 568.75 391.097656 C 572.089844 405.363281 556.851562 416.65625 544.566406 409.023438 L 458.15625 355.207031 L 371.746094 409.023438 C 359.460938 416.664062 344.222656 405.367188 347.5625 391.097656 L 371.046875 290.738281 L 294.164062 223.625 C 283.230469 214.082031 289.046875 195.832031 303.398438 194.660156 L 404.304688 186.398438 Z M 424.039062 199.445312 C 421.710938 205.152344 416.445312 209.046875 410.402344 209.546875 L 321.867188 216.769531 L 389.3125 275.671875 C 393.914062 279.6875 395.925781 285.996094 394.527344 292.003906 L 373.914062 380.03125 L 449.710938 332.867188 C 454.238281 330.050781 459.808594 329.695312 464.589844 331.808594 L 466.601562 332.867188 L 542.375 380.03125 L 521.785156 292.003906 C 520.382812 285.996094 522.394531 279.691406 527 275.671875 L 594.421875 216.769531 L 505.910156 209.546875 C 499.863281 209.050781 494.601562 205.15625 492.273438 199.445312 L 458.15625 115.882812 Z M 424.039062 199.445312 " fill-opacity="1" fill-rule="evenodd"/></svg>