<svg xmlns="http://www.w3.org/2000/svg" xmlns:xlink="http://www.w3.org/1999/xlink" width="1080" zoomAndPan="magnify" viewBox="0 0 810 817.92" height="1080" preserveAspectRatio="xMidYMid meet" version="1.0"><path fill="#05439a" d="M 402.320312 399.605469 C 399.3125 399.605469 396.636719 397.597656 395.96875 394.589844 C 394.964844 390.910156 397.304688 387.234375 400.984375 386.566406 L 609.972656 341.089844 C 613.316406 340.421875 616.992188 342.761719 617.660156 346.4375 C 618.664062 350.117188 616.324219 353.460938 612.644531 354.128906 L 403.992188 399.605469 C 403.324219 399.605469 402.988281 399.605469 402.320312 399.605469 Z M 387.273438 381.882812 C 384.265625 381.882812 381.253906 379.878906 380.585938 376.867188 L 351.160156 241.109375 C 350.492188 237.429688 352.832031 234.085938 356.511719 233.082031 L 575.863281 185.601562 C 579.542969 184.597656 583.21875 186.9375 583.890625 190.617188 C 584.890625 194.296875 582.550781 197.640625 578.875 198.644531 L 365.871094 244.789062 L 393.625 373.859375 C 394.628906 377.535156 392.289062 380.878906 388.609375 381.882812 C 388.277344 381.882812 387.609375 381.882812 387.273438 381.882812 Z M 387.273438 381.882812 " fill-opacity="1" fill-rule="evenodd"/><path fill="#05439a" d="M 645.082031 383.890625 C 626.355469 383.890625 609.300781 370.515625 605.289062 351.453125 L 570.515625 190.953125 C 568.171875 180.25 570.179688 169.550781 575.863281 160.1875 C 581.882812 151.160156 590.910156 144.808594 601.609375 142.464844 L 604.285156 141.796875 C 614.988281 139.457031 626.019531 141.464844 635.050781 147.480469 C 644.410156 153.167969 650.765625 162.53125 653.105469 172.894531 L 687.882812 333.734375 C 692.5625 355.46875 678.519531 377.535156 656.785156 382.21875 L 653.773438 382.886719 C 650.765625 383.554688 648.089844 383.890625 645.082031 383.890625 Z M 604.621094 155.507812 C 597.265625 157.179688 591.246094 161.191406 587.234375 167.546875 C 583.21875 173.5625 581.882812 180.921875 583.554688 188.277344 L 618.332031 348.78125 C 621.675781 363.492188 636.386719 372.855469 651.101562 369.847656 L 653.773438 369.175781 C 660.796875 367.503906 667.148438 363.492188 671.164062 357.140625 C 675.175781 351.121094 676.511719 343.765625 674.839844 336.40625 L 640.066406 175.90625 C 638.394531 168.882812 634.046875 162.53125 628.027344 158.515625 C 621.675781 154.839844 614.316406 153.5 607.296875 154.839844 Z M 604.621094 155.507812 " fill-opacity="1" fill-rule="evenodd"/><path fill="#05439a" d="M 283.613281 412.644531 C 278.597656 412.644531 273.25 411.308594 268.902344 408.300781 C 262.550781 404.285156 258.535156 398.269531 256.863281 391.246094 L 237.136719 299.625 C 235.464844 292.269531 236.800781 285.246094 240.8125 278.894531 C 244.828125 272.875 250.847656 268.527344 257.867188 266.855469 L 358.851562 245.121094 C 362.527344 244.117188 366.207031 246.460938 366.875 250.136719 C 367.542969 253.816406 365.539062 257.160156 361.859375 258.164062 L 260.878906 279.898438 C 257.199219 280.902344 253.855469 282.90625 251.847656 286.25 C 249.84375 289.261719 249.175781 292.9375 250.175781 296.617188 L 269.90625 388.238281 C 270.574219 391.914062 272.914062 394.925781 275.925781 396.929688 C 279.269531 399.269531 282.945312 399.941406 286.625 398.9375 L 368.882812 381.214844 C 372.558594 380.210938 375.902344 382.550781 376.90625 386.230469 C 377.574219 389.910156 375.234375 393.253906 371.890625 394.253906 L 289.300781 411.976562 C 287.628906 412.644531 285.621094 412.644531 283.613281 412.644531 Z M 283.613281 412.644531 " fill-opacity="1" fill-rule="evenodd"/><path fill="#05439a" d="M 191.324219 409.636719 C 188.316406 409.636719 185.640625 407.296875 184.636719 404.285156 C 183.96875 400.609375 186.308594 397.265625 189.988281 396.261719 L 261.546875 380.878906 C 265.222656 380.210938 268.566406 382.21875 269.238281 385.894531 C 270.238281 389.574219 267.898438 393.253906 264.222656 393.921875 L 192.664062 409.300781 C 192.328125 409.636719 191.660156 409.636719 191.324219 409.636719 Z M 172.265625 322.699219 C 169.257812 322.699219 166.582031 320.355469 165.914062 317.347656 C 165.246094 313.667969 167.25 310.324219 170.929688 309.324219 L 242.484375 293.941406 C 246.164062 293.273438 249.84375 295.277344 250.511719 298.957031 C 251.179688 302.636719 249.175781 306.3125 245.496094 306.980469 L 173.9375 322.363281 C 173.269531 322.699219 172.933594 322.699219 172.265625 322.699219 Z M 172.265625 322.699219 " fill-opacity="1" fill-rule="evenodd"/><path fill="#05439a" d="M 160.898438 433.710938 C 156.550781 433.710938 151.867188 432.375 148.191406 429.699219 C 142.507812 426.355469 138.828125 420.671875 137.492188 414.652344 L 118.765625 327.714844 C 117.429688 321.359375 118.429688 315.007812 122.109375 309.65625 C 125.453125 303.972656 130.804688 300.292969 137.15625 298.957031 L 150.53125 296.28125 C 156.550781 294.945312 163.238281 295.949219 168.589844 299.625 C 173.9375 302.96875 177.617188 308.320312 178.953125 314.671875 L 197.679688 401.613281 C 200.6875 414.652344 192.328125 427.359375 179.289062 430.367188 L 166.246094 433.042969 C 164.574219 433.378906 162.570312 433.710938 160.898438 433.710938 Z M 153.207031 309.324219 L 139.832031 311.996094 C 137.15625 312.667969 134.816406 314.339844 133.144531 316.679688 C 131.804688 319.019531 131.136719 322.027344 131.804688 324.703125 L 150.53125 411.644531 C 151.199219 414.652344 152.871094 416.992188 155.210938 418.332031 C 157.554688 420.003906 160.5625 420.671875 163.238281 420.003906 L 176.613281 416.992188 C 182.296875 415.65625 185.976562 409.972656 184.636719 404.285156 L 165.914062 317.347656 C 165.246094 314.671875 163.574219 312.332031 161.230469 310.660156 C 158.890625 308.988281 155.882812 308.652344 153.207031 309.324219 Z M 153.207031 309.324219 " fill-opacity="1" fill-rule="evenodd"/><path fill="#05439a" d="M 398.976562 670.453125 L 373.230469 670.453125 C 369.550781 670.453125 366.542969 667.445312 366.542969 663.765625 L 366.542969 528.34375 L 288.964844 663.097656 C 287.960938 664.433594 286.625 665.773438 284.953125 666.105469 C 282.945312 666.441406 281.273438 666.441406 279.601562 665.4375 L 257.535156 652.730469 C 254.191406 650.726562 253.1875 646.714844 254.859375 643.371094 L 356.511719 467.484375 C 358.515625 464.140625 362.527344 463.136719 365.871094 465.144531 C 368.882812 466.816406 369.886719 470.828125 368.214844 474.171875 L 269.90625 644.371094 L 280.605469 650.390625 L 367.542969 499.917969 C 369.214844 497.578125 372.226562 496.242188 375.234375 496.910156 C 377.910156 497.578125 380.25 500.253906 380.25 503.265625 L 380.25 657.078125 L 392.625 657.078125 L 392.625 503.597656 C 392.625 500.589844 394.628906 497.914062 397.640625 496.910156 C 400.3125 496.242188 403.65625 497.578125 404.996094 500.253906 L 491.933594 650.726562 L 502.632812 644.371094 L 404.328125 474.171875 C 402.320312 470.828125 403.65625 466.816406 406.667969 465.144531 C 410.011719 463.136719 414.023438 464.140625 416.03125 467.484375 L 517.347656 643.371094 C 519.355469 646.714844 518.351562 650.726562 515.007812 652.730469 L 492.601562 665.4375 C 491.265625 666.441406 489.257812 666.777344 487.585938 666.105469 C 485.914062 665.773438 484.578125 664.769531 483.574219 663.097656 L 406 528.34375 L 406 663.765625 C 406 667.445312 402.65625 670.453125 398.976562 670.453125 Z M 398.976562 670.453125 " fill-opacity="1" fill-rule="evenodd"/><path fill="#05439a" d="M 426.394531 477.515625 L 346.144531 477.515625 C 336.113281 477.515625 327.753906 469.492188 327.753906 459.460938 L 327.753906 442.070312 C 327.753906 432.039062 336.113281 424.015625 346.144531 424.015625 L 426.394531 424.015625 C 436.425781 424.015625 444.453125 432.039062 444.453125 442.070312 L 444.453125 459.460938 C 444.453125 469.492188 436.425781 477.515625 426.394531 477.515625 Z M 346.144531 437.390625 C 343.46875 437.390625 341.128906 439.398438 341.128906 442.070312 L 341.128906 459.460938 C 341.128906 462.136719 343.46875 464.140625 346.144531 464.140625 L 426.394531 464.140625 C 429.070312 464.140625 431.078125 462.136719 431.078125 459.460938 L 431.078125 442.070312 C 431.078125 439.398438 429.070312 437.390625 426.394531 437.390625 Z M 346.144531 437.390625 " fill-opacity="1" fill-rule="evenodd"/><path fill="#05439a" d="M 398.308594 437.390625 C 394.628906 437.390625 391.621094 434.382812 391.621094 430.703125 L 391.621094 402.613281 C 391.621094 398.9375 394.628906 395.925781 398.308594 395.925781 C 401.984375 395.925781 404.996094 398.9375 404.996094 402.613281 L 404.996094 430.703125 C 404.996094 434.382812 401.984375 437.390625 398.308594 437.390625 Z M 374.230469 437.390625 C 370.554688 437.390625 367.542969 434.382812 367.542969 430.703125 L 367.542969 402.613281 C 367.542969 398.9375 370.554688 395.925781 374.230469 395.925781 C 377.910156 395.925781 380.917969 398.9375 380.917969 402.613281 L 380.917969 430.703125 C 380.917969 434.382812 377.910156 437.390625 374.230469 437.390625 Z M 374.230469 437.390625 " fill-opacity="1" fill-rule="evenodd"/><path fill="#05439a" d="M 386.269531 414.652344 C 373.5625 414.652344 363.199219 404.285156 363.199219 391.582031 C 363.199219 378.875 373.5625 368.507812 386.269531 368.507812 C 398.976562 368.507812 409.34375 378.875 409.34375 391.582031 C 409.34375 404.285156 398.976562 414.652344 386.269531 414.652344 Z M 386.269531 381.882812 C 380.917969 381.882812 376.574219 386.230469 376.574219 391.582031 C 376.574219 396.929688 380.917969 401.277344 386.269531 401.277344 C 391.621094 401.277344 395.96875 396.929688 395.96875 391.582031 C 395.96875 386.230469 391.621094 381.882812 386.269531 381.882812 Z M 386.269531 381.882812 " fill-opacity="1" fill-rule="evenodd"/></svg>