<svg xmlns="http://www.w3.org/2000/svg" xmlns:xlink="http://www.w3.org/1999/xlink" width="1080" zoomAndPan="magnify" viewBox="0 0 810 817.92" height="1080" preserveAspectRatio="xMidYMid meet" version="1.0"><defs><clipPath id="ce75d1b5c2"><path d="M 84.667969 195 L 725.105469 195 L 725.105469 615 L 84.667969 615 Z M 84.667969 195 " clip-rule="nonzero"/></clipPath></defs><g clip-path="url(#ce75d1b5c2)"><path fill="#05439a" d="M 688.621094 195.792969 L 120.828125 195.792969 C 119.636719 195.796875 118.449219 195.855469 117.261719 195.972656 C 116.074219 196.089844 114.898438 196.265625 113.730469 196.5 C 112.5625 196.734375 111.40625 197.023438 110.269531 197.371094 C 109.128906 197.714844 108.007812 198.117188 106.90625 198.574219 C 105.804688 199.03125 104.730469 199.539062 103.679688 200.101562 C 102.628906 200.664062 101.609375 201.277344 100.617188 201.9375 C 99.628906 202.601562 98.671875 203.3125 97.75 204.066406 C 96.828125 204.824219 95.949219 205.621094 95.105469 206.464844 C 94.261719 207.308594 93.464844 208.1875 92.707031 209.109375 C 91.953125 210.03125 91.242188 210.988281 90.582031 211.976562 C 89.917969 212.96875 89.304688 213.988281 88.742188 215.039062 C 88.183594 216.089844 87.671875 217.164062 87.214844 218.265625 C 86.757812 219.367188 86.359375 220.488281 86.011719 221.625 C 85.664062 222.765625 85.375 223.921875 85.140625 225.089844 C 84.90625 226.257812 84.730469 227.433594 84.613281 228.621094 C 84.496094 229.804688 84.4375 230.996094 84.4375 232.1875 L 84.4375 578.261719 C 84.4375 579.453125 84.496094 580.640625 84.613281 581.828125 C 84.730469 583.011719 84.90625 584.191406 85.140625 585.359375 C 85.375 586.527344 85.664062 587.679688 86.011719 588.820312 C 86.359375 589.960938 86.757812 591.082031 87.214844 592.183594 C 87.671875 593.28125 88.183594 594.359375 88.742188 595.410156 C 89.304688 596.460938 89.917969 597.480469 90.582031 598.472656 C 91.242188 599.460938 91.953125 600.417969 92.707031 601.339844 C 93.464844 602.257812 94.261719 603.140625 95.105469 603.984375 C 95.949219 604.824219 96.828125 605.625 97.75 606.382812 C 98.671875 607.136719 99.628906 607.847656 100.617188 608.507812 C 101.609375 609.171875 102.628906 609.785156 103.679688 610.34375 C 104.730469 610.90625 105.804688 611.417969 106.90625 611.875 C 108.007812 612.328125 109.128906 612.730469 110.269531 613.078125 C 111.40625 613.425781 112.5625 613.714844 113.730469 613.949219 C 114.898438 614.179688 116.074219 614.355469 117.261719 614.476562 C 118.449219 614.59375 119.636719 614.652344 120.828125 614.652344 L 688.621094 614.652344 C 689.8125 614.652344 691.003906 614.59375 692.1875 614.476562 C 693.375 614.359375 694.550781 614.183594 695.71875 613.949219 C 696.890625 613.714844 698.042969 613.425781 699.183594 613.078125 C 700.324219 612.734375 701.445312 612.332031 702.546875 611.875 C 703.644531 611.417969 704.722656 610.910156 705.773438 610.347656 C 706.824219 609.785156 707.84375 609.171875 708.835938 608.511719 C 709.824219 607.847656 710.78125 607.140625 711.703125 606.382812 C 712.625 605.628906 713.503906 604.828125 714.347656 603.984375 C 715.191406 603.144531 715.992188 602.261719 716.746094 601.339844 C 717.503906 600.417969 718.210938 599.464844 718.875 598.472656 C 719.535156 597.480469 720.148438 596.460938 720.710938 595.410156 C 721.273438 594.359375 721.78125 593.285156 722.238281 592.183594 C 722.695312 591.082031 723.097656 589.960938 723.445312 588.820312 C 723.789062 587.683594 724.082031 586.527344 724.3125 585.359375 C 724.546875 584.191406 724.722656 583.011719 724.839844 581.828125 C 724.960938 580.640625 725.019531 579.453125 725.019531 578.261719 L 725.019531 232.1875 C 725.019531 230.996094 724.960938 229.804688 724.839844 228.621094 C 724.722656 227.433594 724.546875 226.257812 724.316406 225.089844 C 724.082031 223.921875 723.789062 222.765625 723.445312 221.625 C 723.097656 220.484375 722.695312 219.363281 722.238281 218.265625 C 721.78125 217.164062 721.273438 216.089844 720.710938 215.039062 C 720.148438 213.988281 719.535156 212.964844 718.875 211.976562 C 718.210938 210.984375 717.503906 210.027344 716.746094 209.109375 C 715.992188 208.1875 715.191406 207.304688 714.347656 206.460938 C 713.503906 205.621094 712.625 204.820312 711.703125 204.066406 C 710.78125 203.308594 709.824219 202.597656 708.835938 201.9375 C 707.84375 201.273438 706.824219 200.664062 705.773438 200.101562 C 704.722656 199.539062 703.644531 199.03125 702.546875 198.574219 C 701.445312 198.117188 700.324219 197.714844 699.183594 197.367188 C 698.042969 197.023438 696.890625 196.730469 695.71875 196.5 C 694.550781 196.265625 693.375 196.089844 692.1875 195.972656 C 691.003906 195.855469 689.8125 195.796875 688.621094 195.792969 Z M 505.402344 405.222656 L 705.304688 227.03125 C 705.855469 228.703125 706.144531 230.421875 706.167969 232.1875 L 706.167969 578.261719 C 706.144531 580.023438 705.855469 581.742188 705.304688 583.417969 Z M 688.601562 214.652344 C 689.269531 214.679688 689.933594 214.746094 690.59375 214.851562 L 416.335938 459.316406 C 415.539062 460.027344 414.6875 460.65625 413.777344 461.210938 C 412.863281 461.765625 411.910156 462.234375 410.917969 462.613281 C 409.921875 462.992188 408.898438 463.277344 407.851562 463.472656 C 406.800781 463.664062 405.746094 463.761719 404.679688 463.761719 C 403.613281 463.761719 402.554688 463.664062 401.507812 463.472656 C 400.460938 463.277344 399.4375 462.992188 398.441406 462.613281 C 397.445312 462.234375 396.492188 461.765625 395.582031 461.210938 C 394.671875 460.65625 393.820312 460.027344 393.023438 459.316406 L 118.839844 214.851562 C 119.5 214.746094 120.160156 214.679688 120.828125 214.652344 Z M 104.15625 583.417969 C 103.605469 581.742188 103.316406 580.023438 103.292969 578.261719 L 103.292969 232.1875 C 103.316406 230.421875 103.605469 228.703125 104.15625 227.03125 L 304.054688 405.222656 Z M 120.828125 595.8125 C 120.160156 595.78125 119.5 595.714844 118.839844 595.613281 L 318.203125 417.871094 L 380.527344 473.394531 C 381.351562 474.128906 382.207031 474.828125 383.097656 475.484375 C 383.984375 476.140625 384.898438 476.753906 385.84375 477.328125 C 386.785156 477.902344 387.753906 478.433594 388.746094 478.917969 C 389.734375 479.402344 390.746094 479.84375 391.78125 480.234375 C 392.8125 480.628906 393.859375 480.972656 394.921875 481.273438 C 395.984375 481.570312 397.058594 481.820312 398.144531 482.019531 C 399.230469 482.21875 400.324219 482.367188 401.421875 482.46875 C 402.523438 482.570312 403.625 482.621094 404.726562 482.621094 C 405.832031 482.621094 406.933594 482.570312 408.03125 482.46875 C 409.132812 482.367188 410.226562 482.21875 411.3125 482.019531 C 412.398438 481.820312 413.472656 481.570312 414.535156 481.273438 C 415.597656 480.972656 416.644531 480.628906 417.675781 480.234375 C 418.707031 479.84375 419.71875 479.402344 420.710938 478.917969 C 421.703125 478.433594 422.671875 477.902344 423.613281 477.328125 C 424.558594 476.753906 425.472656 476.140625 426.359375 475.484375 C 427.246094 474.828125 428.101562 474.128906 428.925781 473.394531 L 491.234375 417.855469 L 690.601562 595.59375 C 689.9375 595.699219 689.273438 595.765625 688.605469 595.792969 Z M 120.828125 595.8125 " fill-opacity="1" fill-rule="nonzero"/></g></svg>