<svg xmlns="http://www.w3.org/2000/svg" xmlns:xlink="http://www.w3.org/1999/xlink" width="1080" zoomAndPan="magnify" viewBox="0 0 810 817.92" height="1080" preserveAspectRatio="xMidYMid meet" version="1.0"><defs><clipPath id="ac2a046fb1"><path d="M 208 130.484375 L 602 130.484375 L 602 679.433594 L 208 679.433594 Z M 208 130.484375 " clip-rule="nonzero"/></clipPath></defs><g clip-path="url(#ac2a046fb1)"><path fill="#05439a" d="M 404.996094 679.433594 C 402.953125 679.429688 401 679.015625 399.132812 678.1875 C 397.265625 677.355469 395.648438 676.183594 394.277344 674.664062 C 386.679688 666.257812 208.53125 467.421875 208.53125 326.949219 C 208.535156 323.734375 208.613281 320.523438 208.773438 317.3125 C 208.933594 314.101562 209.167969 310.898438 209.484375 307.699219 C 209.800781 304.5 210.195312 301.308594 210.667969 298.128906 C 211.140625 294.949219 211.691406 291.785156 212.320312 288.632812 C 212.949219 285.480469 213.652344 282.34375 214.433594 279.226562 C 215.214844 276.109375 216.074219 273.011719 217.007812 269.933594 C 217.941406 266.859375 218.953125 263.808594 220.035156 260.78125 C 221.121094 257.753906 222.277344 254.757812 223.507812 251.789062 C 224.738281 248.816406 226.042969 245.878906 227.417969 242.976562 C 228.792969 240.070312 230.238281 237.199219 231.753906 234.363281 C 233.269531 231.53125 234.855469 228.734375 236.507812 225.976562 C 238.160156 223.21875 239.878906 220.503906 241.667969 217.832031 C 243.453125 215.160156 245.304688 212.535156 247.21875 209.953125 C 249.136719 207.371094 251.113281 204.835938 253.152344 202.351562 C 255.191406 199.867188 257.292969 197.4375 259.453125 195.054688 C 261.609375 192.671875 263.828125 190.34375 266.101562 188.074219 C 268.375 185.800781 270.703125 183.585938 273.082031 181.425781 C 275.464844 179.269531 277.898438 177.167969 280.386719 175.128906 C 282.871094 173.089844 285.402344 171.113281 287.984375 169.199219 C 290.566406 167.285156 293.195312 165.433594 295.867188 163.648438 C 298.542969 161.863281 301.257812 160.144531 304.015625 158.492188 C 306.773438 156.839844 309.570312 155.257812 312.402344 153.742188 C 315.238281 152.226562 318.109375 150.78125 321.015625 149.410156 C 323.921875 148.035156 326.859375 146.730469 329.828125 145.503906 C 332.800781 144.273438 335.796875 143.117188 338.824219 142.035156 C 341.851562 140.949219 344.902344 139.941406 347.980469 139.007812 C 351.054688 138.078125 354.152344 137.21875 357.269531 136.4375 C 360.390625 135.65625 363.523438 134.953125 366.679688 134.328125 C 369.832031 133.699219 372.996094 133.152344 376.175781 132.679688 C 379.355469 132.207031 382.546875 131.8125 385.746094 131.5 C 388.945312 131.183594 392.148438 130.949219 395.359375 130.789062 C 398.570312 130.632812 401.785156 130.554688 404.996094 130.554688 C 408.210938 130.554688 411.425781 130.632812 414.636719 130.789062 C 417.847656 130.949219 421.050781 131.183594 424.25 131.5 C 427.449219 131.8125 430.640625 132.207031 433.820312 132.679688 C 437 133.152344 440.164062 133.699219 443.316406 134.328125 C 446.472656 134.953125 449.605469 135.65625 452.726562 136.4375 C 455.84375 137.21875 458.941406 138.078125 462.015625 139.007812 C 465.09375 139.941406 468.144531 140.949219 471.171875 142.035156 C 474.199219 143.117188 477.195312 144.273438 480.167969 145.503906 C 483.136719 146.730469 486.074219 148.035156 488.980469 149.410156 C 491.886719 150.78125 494.757812 152.226562 497.59375 153.742188 C 500.425781 155.257812 503.222656 156.839844 505.980469 158.492188 C 508.738281 160.144531 511.453125 161.863281 514.125 163.648438 C 516.800781 165.433594 519.425781 167.285156 522.011719 169.199219 C 524.59375 171.113281 527.125 173.089844 529.609375 175.128906 C 532.097656 177.167969 534.53125 179.269531 536.914062 181.425781 C 539.292969 183.585938 541.621094 185.800781 543.894531 188.074219 C 546.167969 190.34375 548.386719 192.671875 550.542969 195.054688 C 552.703125 197.4375 554.804688 199.867188 556.84375 202.351562 C 558.882812 204.835938 560.859375 207.371094 562.777344 209.953125 C 564.691406 212.535156 566.542969 215.160156 568.328125 217.832031 C 570.117188 220.503906 571.835938 223.21875 573.488281 225.976562 C 575.140625 228.734375 576.726562 231.53125 578.242188 234.363281 C 579.757812 237.199219 581.203125 240.070312 582.578125 242.976562 C 583.953125 245.878906 585.257812 248.816406 586.488281 251.789062 C 587.71875 254.757812 588.875 257.753906 589.960938 260.78125 C 591.042969 263.808594 592.054688 266.859375 592.988281 269.933594 C 593.921875 273.011719 594.78125 276.109375 595.5625 279.226562 C 596.34375 282.34375 597.046875 285.480469 597.675781 288.632812 C 598.304688 291.785156 598.855469 294.949219 599.328125 298.128906 C 599.800781 301.308594 600.195312 304.5 600.511719 307.699219 C 600.828125 310.898438 601.0625 314.101562 601.222656 317.3125 C 601.382812 320.523438 601.460938 323.734375 601.464844 326.949219 C 601.464844 467.421875 423.316406 666.257812 415.71875 674.664062 C 414.347656 676.183594 412.730469 677.355469 410.863281 678.1875 C 408.996094 679.015625 407.042969 679.429688 404.996094 679.433594 Z M 404.996094 159.378906 C 402.257812 159.382812 399.515625 159.453125 396.777344 159.589844 C 394.039062 159.726562 391.308594 159.929688 388.578125 160.203125 C 385.851562 160.472656 383.132812 160.8125 380.421875 161.21875 C 377.707031 161.621094 375.007812 162.09375 372.320312 162.632812 C 369.632812 163.167969 366.957031 163.769531 364.300781 164.441406 C 361.640625 165.109375 359 165.839844 356.375 166.640625 C 353.753906 167.4375 351.152344 168.296875 348.570312 169.222656 C 345.992188 170.148438 343.433594 171.136719 340.902344 172.1875 C 338.371094 173.238281 335.863281 174.351562 333.386719 175.523438 C 330.910156 176.695312 328.460938 177.929688 326.042969 179.222656 C 323.628906 180.515625 321.242188 181.871094 318.890625 183.28125 C 316.542969 184.691406 314.226562 186.15625 311.945312 187.679688 C 309.667969 189.203125 307.425781 190.785156 305.226562 192.417969 C 303.023438 194.050781 300.863281 195.738281 298.746094 197.476562 C 296.625 199.214844 294.550781 201.007812 292.519531 202.847656 C 290.488281 204.6875 288.503906 206.578125 286.566406 208.519531 C 284.625 210.457031 282.738281 212.441406 280.894531 214.472656 C 279.054688 216.503906 277.261719 218.578125 275.523438 220.699219 C 273.785156 222.816406 272.097656 224.976562 270.464844 227.179688 C 268.832031 229.378906 267.25 231.621094 265.726562 233.898438 C 264.203125 236.179688 262.738281 238.492188 261.328125 240.84375 C 259.917969 243.195312 258.566406 245.582031 257.269531 247.996094 C 255.976562 250.414062 254.746094 252.863281 253.570312 255.339844 C 252.398438 257.816406 251.285156 260.324219 250.234375 262.855469 C 249.183594 265.386719 248.195312 267.945312 247.269531 270.523438 C 246.34375 273.105469 245.484375 275.707031 244.6875 278.328125 C 243.886719 280.953125 243.15625 283.59375 242.488281 286.253906 C 241.816406 288.910156 241.214844 291.585938 240.679688 294.273438 C 240.140625 296.960938 239.667969 299.660156 239.265625 302.371094 C 238.859375 305.085938 238.523438 307.804688 238.25 310.53125 C 237.976562 313.261719 237.773438 315.992188 237.636719 318.730469 C 237.5 321.46875 237.429688 324.210938 237.425781 326.949219 C 237.425781 437.550781 366.484375 597.609375 404.996094 642.941406 C 443.511719 597.609375 572.570312 437.550781 572.570312 326.949219 C 572.566406 324.210938 572.496094 321.46875 572.359375 318.730469 C 572.222656 315.992188 572.015625 313.261719 571.746094 310.53125 C 571.472656 307.804688 571.136719 305.085938 570.730469 302.371094 C 570.328125 299.660156 569.855469 296.960938 569.316406 294.273438 C 568.78125 291.585938 568.175781 288.910156 567.507812 286.253906 C 566.839844 283.59375 566.109375 280.953125 565.308594 278.328125 C 564.511719 275.707031 563.652344 273.105469 562.726562 270.523438 C 561.800781 267.945312 560.8125 265.386719 559.761719 262.855469 C 558.710938 260.324219 557.597656 257.816406 556.425781 255.339844 C 555.25 252.863281 554.019531 250.414062 552.726562 247.996094 C 551.429688 245.582031 550.078125 243.195312 548.667969 240.84375 C 547.257812 238.492188 545.792969 236.179688 544.269531 233.898438 C 542.742188 231.621094 541.164062 229.378906 539.53125 227.179688 C 537.898438 224.976562 536.210938 222.816406 534.472656 220.699219 C 532.730469 218.578125 530.941406 216.503906 529.101562 214.472656 C 527.257812 212.441406 525.371094 210.457031 523.429688 208.519531 C 521.492188 206.578125 519.507812 204.6875 517.476562 202.847656 C 515.445312 201.007812 513.371094 199.214844 511.25 197.476562 C 509.132812 195.738281 506.972656 194.050781 504.769531 192.417969 C 502.566406 190.785156 500.328125 189.203125 498.050781 187.679688 C 495.769531 186.15625 493.453125 184.691406 491.105469 183.28125 C 488.753906 181.871094 486.367188 180.515625 483.953125 179.222656 C 481.535156 177.929688 479.085938 176.695312 476.609375 175.523438 C 474.132812 174.351562 471.625 173.238281 469.09375 172.1875 C 466.5625 171.136719 464.003906 170.148438 461.425781 169.222656 C 458.84375 168.296875 456.242188 167.4375 453.621094 166.640625 C 450.996094 165.839844 448.355469 165.109375 445.695312 164.4375 C 443.039062 163.769531 440.363281 163.167969 437.675781 162.632812 C 434.988281 162.09375 432.289062 161.621094 429.574219 161.21875 C 426.863281 160.8125 424.144531 160.472656 421.417969 160.203125 C 418.6875 159.929688 415.957031 159.726562 413.21875 159.589844 C 410.480469 159.453125 407.738281 159.382812 404.996094 159.378906 Z M 404.996094 406.402344 C 403.699219 406.402344 402.398438 406.371094 401.097656 406.308594 C 399.800781 406.242188 398.503906 406.148438 397.210938 406.019531 C 395.917969 405.894531 394.625 405.734375 393.339844 405.542969 C 392.054688 405.351562 390.773438 405.128906 389.496094 404.875 C 388.222656 404.625 386.953125 404.339844 385.691406 404.023438 C 384.429688 403.707031 383.179688 403.359375 381.933594 402.980469 C 380.691406 402.605469 379.457031 402.195312 378.230469 401.757812 C 377.007812 401.320312 375.792969 400.851562 374.59375 400.355469 C 373.390625 399.859375 372.203125 399.332031 371.027344 398.773438 C 369.851562 398.21875 368.691406 397.636719 367.542969 397.023438 C 366.398438 396.410156 365.265625 395.769531 364.152344 395.101562 C 363.035156 394.429688 361.9375 393.734375 360.855469 393.011719 C 359.773438 392.289062 358.710938 391.542969 357.667969 390.769531 C 356.625 389.992188 355.597656 389.195312 354.59375 388.367188 C 353.589844 387.542969 352.605469 386.695312 351.640625 385.820312 C 350.675781 384.949219 349.734375 384.050781 348.816406 383.132812 C 347.898438 382.214844 347 381.269531 346.128906 380.308594 C 345.253906 379.34375 344.40625 378.359375 343.582031 377.355469 C 342.753906 376.351562 341.957031 375.324219 341.179688 374.28125 C 340.40625 373.238281 339.65625 372.171875 338.933594 371.09375 C 338.214844 370.011719 337.515625 368.914062 336.847656 367.796875 C 336.179688 366.683594 335.539062 365.550781 334.925781 364.40625 C 334.3125 363.257812 333.730469 362.097656 333.171875 360.921875 C 332.617188 359.746094 332.089844 358.558594 331.59375 357.355469 C 331.09375 356.15625 330.628906 354.941406 330.191406 353.71875 C 329.75 352.492188 329.34375 351.257812 328.964844 350.015625 C 328.589844 348.769531 328.242188 347.515625 327.925781 346.257812 C 327.609375 344.996094 327.324219 343.726562 327.070312 342.453125 C 326.816406 341.175781 326.597656 339.894531 326.40625 338.609375 C 326.214844 337.324219 326.054688 336.03125 325.929688 334.738281 C 325.800781 333.445312 325.703125 332.148438 325.640625 330.847656 C 325.578125 329.550781 325.546875 328.25 325.546875 326.949219 C 325.546875 325.652344 325.578125 324.351562 325.640625 323.050781 C 325.703125 321.753906 325.800781 320.457031 325.929688 319.164062 C 326.054688 317.867188 326.214844 316.578125 326.40625 315.292969 C 326.597656 314.007812 326.816406 312.726562 327.070312 311.449219 C 327.324219 310.175781 327.609375 308.90625 327.925781 307.644531 C 328.242188 306.382812 328.589844 305.132812 328.964844 303.886719 C 329.34375 302.644531 329.75 301.410156 330.191406 300.183594 C 330.628906 298.960938 331.09375 297.746094 331.59375 296.546875 C 332.089844 295.34375 332.617188 294.15625 333.171875 292.980469 C 333.730469 291.804688 334.3125 290.644531 334.925781 289.496094 C 335.539062 288.351562 336.179688 287.21875 336.847656 286.105469 C 337.515625 284.988281 338.214844 283.890625 338.933594 282.808594 C 339.65625 281.726562 340.40625 280.664062 341.179688 279.621094 C 341.957031 278.578125 342.753906 277.550781 343.582031 276.546875 C 344.40625 275.542969 345.253906 274.558594 346.128906 273.59375 C 347 272.628906 347.898438 271.6875 348.816406 270.769531 C 349.734375 269.851562 350.675781 268.953125 351.640625 268.082031 C 352.605469 267.207031 353.589844 266.359375 354.59375 265.53125 C 355.597656 264.707031 356.625 263.910156 357.667969 263.132812 C 358.710938 262.359375 359.773438 261.609375 360.855469 260.886719 C 361.9375 260.164062 363.035156 259.46875 364.152344 258.800781 C 365.265625 258.132812 366.398438 257.492188 367.542969 256.878906 C 368.691406 256.265625 369.851562 255.683594 371.027344 255.125 C 372.203125 254.570312 373.390625 254.042969 374.59375 253.546875 C 375.792969 253.046875 377.007812 252.582031 378.230469 252.140625 C 379.457031 251.703125 380.691406 251.296875 381.933594 250.917969 C 383.179688 250.542969 384.429688 250.195312 385.691406 249.878906 C 386.953125 249.5625 388.222656 249.277344 389.496094 249.023438 C 390.773438 248.769531 392.054688 248.546875 393.339844 248.359375 C 394.625 248.167969 395.917969 248.007812 397.210938 247.878906 C 398.503906 247.753906 399.800781 247.65625 401.097656 247.59375 C 402.398438 247.53125 403.699219 247.5 404.996094 247.5 C 406.296875 247.5 407.597656 247.53125 408.898438 247.59375 C 410.195312 247.65625 411.492188 247.753906 412.785156 247.878906 C 414.078125 248.007812 415.371094 248.167969 416.65625 248.359375 C 417.941406 248.546875 419.222656 248.769531 420.5 249.023438 C 421.773438 249.277344 423.042969 249.5625 424.304688 249.878906 C 425.566406 250.195312 426.816406 250.542969 428.0625 250.917969 C 429.304688 251.296875 430.539062 251.703125 431.765625 252.140625 C 432.988281 252.582031 434.203125 253.046875 435.402344 253.546875 C 436.605469 254.042969 437.792969 254.570312 438.96875 255.125 C 440.144531 255.683594 441.304688 256.265625 442.453125 256.878906 C 443.597656 257.492188 444.730469 258.132812 445.84375 258.800781 C 446.960938 259.46875 448.058594 260.164062 449.140625 260.886719 C 450.21875 261.609375 451.285156 262.359375 452.328125 263.132812 C 453.371094 263.910156 454.398438 264.707031 455.402344 265.53125 C 456.40625 266.359375 457.390625 267.207031 458.355469 268.082031 C 459.320312 268.953125 460.261719 269.851562 461.179688 270.769531 C 462.097656 271.6875 462.996094 272.628906 463.867188 273.59375 C 464.742188 274.558594 465.589844 275.542969 466.414062 276.546875 C 467.242188 277.550781 468.039062 278.578125 468.816406 279.621094 C 469.589844 280.664062 470.339844 281.726562 471.058594 282.808594 C 471.78125 283.890625 472.476562 284.988281 473.148438 286.105469 C 473.816406 287.21875 474.457031 288.351562 475.070312 289.496094 C 475.683594 290.644531 476.265625 291.804688 476.824219 292.980469 C 477.378906 294.15625 477.90625 295.34375 478.402344 296.546875 C 478.898438 297.746094 479.367188 298.960938 479.804688 300.183594 C 480.246094 301.410156 480.652344 302.644531 481.03125 303.886719 C 481.40625 305.132812 481.753906 306.382812 482.070312 307.644531 C 482.386719 308.90625 482.671875 310.175781 482.925781 311.449219 C 483.179688 312.726562 483.398438 314.007812 483.589844 315.292969 C 483.78125 316.578125 483.941406 317.867188 484.066406 319.164062 C 484.195312 320.457031 484.292969 321.753906 484.355469 323.050781 C 484.417969 324.351562 484.449219 325.652344 484.449219 326.949219 C 484.449219 328.25 484.417969 329.550781 484.351562 330.847656 C 484.285156 332.144531 484.1875 333.441406 484.058594 334.734375 C 483.933594 336.03125 483.769531 337.320312 483.578125 338.605469 C 483.386719 339.890625 483.164062 341.171875 482.910156 342.445312 C 482.65625 343.71875 482.371094 344.988281 482.050781 346.25 C 481.734375 347.507812 481.386719 348.761719 481.011719 350.003906 C 480.632812 351.25 480.222656 352.484375 479.785156 353.707031 C 479.347656 354.929688 478.878906 356.140625 478.378906 357.34375 C 477.882812 358.542969 477.355469 359.730469 476.796875 360.90625 C 476.242188 362.082031 475.65625 363.242188 475.042969 364.386719 C 474.429688 365.535156 473.789062 366.664062 473.121094 367.777344 C 472.453125 368.894531 471.757812 369.992188 471.035156 371.070312 C 470.3125 372.152344 469.5625 373.214844 468.789062 374.257812 C 468.015625 375.304688 467.214844 376.328125 466.390625 377.332031 C 465.566406 378.335938 464.714844 379.320312 463.84375 380.285156 C 462.96875 381.246094 462.074219 382.1875 461.152344 383.105469 C 460.234375 384.027344 459.292969 384.921875 458.332031 385.796875 C 457.367188 386.667969 456.382812 387.515625 455.378906 388.34375 C 454.375 389.167969 453.351562 389.964844 452.304688 390.742188 C 451.261719 391.515625 450.199219 392.265625 449.117188 392.988281 C 448.039062 393.710938 446.941406 394.40625 445.824219 395.074219 C 444.710938 395.742188 443.582031 396.382812 442.433594 396.996094 C 441.289062 397.609375 440.128906 398.195312 438.953125 398.75 C 437.777344 399.308594 436.589844 399.835938 435.390625 400.332031 C 434.1875 400.832031 432.976562 401.300781 431.753906 401.738281 C 430.53125 402.175781 429.296875 402.585938 428.050781 402.964844 C 426.808594 403.339844 425.554688 403.6875 424.296875 404.003906 C 423.035156 404.320312 421.765625 404.609375 420.492188 404.863281 C 419.21875 405.117188 417.9375 405.339844 416.652344 405.53125 C 415.367188 405.722656 414.078125 405.882812 412.78125 406.011719 C 411.488281 406.140625 410.195312 406.238281 408.894531 406.304688 C 407.597656 406.367188 406.296875 406.402344 404.996094 406.402344 Z M 404.996094 276.390625 C 403.34375 276.390625 401.691406 276.472656 400.042969 276.632812 C 398.394531 276.796875 396.757812 277.039062 395.132812 277.363281 C 393.511719 277.683594 391.90625 278.085938 390.320312 278.566406 C 388.734375 279.046875 387.179688 279.605469 385.648438 280.238281 C 384.121094 280.871094 382.625 281.578125 381.164062 282.359375 C 379.703125 283.140625 378.285156 283.992188 376.90625 284.910156 C 375.53125 285.832031 374.203125 286.816406 372.921875 287.867188 C 371.640625 288.917969 370.417969 290.027344 369.246094 291.199219 C 368.074219 292.371094 366.964844 293.59375 365.914062 294.875 C 364.863281 296.15625 363.878906 297.484375 362.957031 298.859375 C 362.039062 300.238281 361.1875 301.65625 360.40625 303.117188 C 359.625 304.578125 358.917969 306.070312 358.285156 307.601562 C 357.652344 309.132812 357.09375 310.6875 356.613281 312.273438 C 356.132812 313.859375 355.730469 315.460938 355.410156 317.085938 C 355.085938 318.710938 354.84375 320.347656 354.679688 321.996094 C 354.519531 323.644531 354.4375 325.292969 354.4375 326.949219 C 354.4375 328.605469 354.519531 330.257812 354.679688 331.90625 C 354.84375 333.554688 355.085938 335.191406 355.410156 336.816406 C 355.730469 338.4375 356.132812 340.042969 356.613281 341.628906 C 357.09375 343.210938 357.652344 344.769531 358.285156 346.300781 C 358.917969 347.828125 359.625 349.324219 360.40625 350.785156 C 361.1875 352.246094 362.039062 353.664062 362.957031 355.039062 C 363.878906 356.417969 364.863281 357.746094 365.914062 359.027344 C 366.964844 360.304688 368.074219 361.53125 369.246094 362.703125 C 370.417969 363.875 371.640625 364.984375 372.921875 366.035156 C 374.203125 367.085938 375.53125 368.070312 376.90625 368.992188 C 378.285156 369.910156 379.703125 370.761719 381.164062 371.542969 C 382.625 372.320312 384.121094 373.027344 385.648438 373.664062 C 387.179688 374.296875 388.734375 374.855469 390.320312 375.335938 C 391.90625 375.816406 393.511719 376.21875 395.132812 376.539062 C 396.757812 376.863281 398.394531 377.105469 400.042969 377.269531 C 401.691406 377.429688 403.34375 377.511719 404.996094 377.511719 C 406.652344 377.511719 408.304688 377.429688 409.953125 377.269531 C 411.601562 377.105469 413.238281 376.863281 414.863281 376.539062 C 416.484375 376.21875 418.089844 375.816406 419.675781 375.335938 C 421.257812 374.855469 422.816406 374.296875 424.347656 373.664062 C 425.875 373.027344 427.371094 372.320312 428.832031 371.542969 C 430.292969 370.761719 431.710938 369.910156 433.089844 368.992188 C 434.464844 368.070312 435.792969 367.085938 437.074219 366.035156 C 438.351562 364.984375 439.578125 363.875 440.75 362.703125 C 441.921875 361.53125 443.03125 360.304688 444.082031 359.027344 C 445.132812 357.746094 446.117188 356.417969 447.039062 355.039062 C 447.957031 353.664062 448.808594 352.246094 449.589844 350.785156 C 450.371094 349.324219 451.078125 347.828125 451.710938 346.300781 C 452.34375 344.769531 452.902344 343.210938 453.382812 341.628906 C 453.863281 340.042969 454.265625 338.4375 454.585938 336.816406 C 454.910156 335.191406 455.152344 333.554688 455.316406 331.90625 C 455.476562 330.257812 455.558594 328.605469 455.558594 326.949219 C 455.558594 325.296875 455.472656 323.644531 455.308594 321.996094 C 455.144531 320.347656 454.902344 318.714844 454.578125 317.089844 C 454.253906 315.46875 453.851562 313.863281 453.367188 312.28125 C 452.886719 310.695312 452.328125 309.140625 451.695312 307.609375 C 451.058594 306.082031 450.351562 304.585938 449.570312 303.128906 C 448.789062 301.667969 447.941406 300.25 447.019531 298.875 C 446.101562 297.5 445.113281 296.171875 444.0625 294.890625 C 443.015625 293.613281 441.902344 292.386719 440.734375 291.214844 C 439.5625 290.046875 438.335938 288.933594 437.058594 287.882812 C 435.777344 286.835938 434.449219 285.847656 433.074219 284.929688 C 431.699219 284.007812 430.28125 283.15625 428.820312 282.378906 C 427.359375 281.597656 425.867188 280.886719 424.335938 280.253906 C 422.808594 279.621094 421.253906 279.0625 419.667969 278.578125 C 418.085938 278.097656 416.480469 277.695312 414.859375 277.371094 C 413.234375 277.046875 411.597656 276.800781 409.953125 276.640625 C 408.304688 276.476562 406.652344 276.390625 404.996094 276.390625 Z M 404.996094 276.390625 " fill-opacity="1" fill-rule="nonzero"/></g></svg>