<svg xmlns="http://www.w3.org/2000/svg" xmlns:xlink="http://www.w3.org/1999/xlink" width="1080" zoomAndPan="magnify" viewBox="0 0 810 817.92" height="1080" preserveAspectRatio="xMidYMid meet" version="1.0"><defs><clipPath id="7f77cf3b64"><path d="M 120.738281 120.695312 L 689 120.695312 L 689 689.140625 L 120.738281 689.140625 Z M 120.738281 120.695312 " clip-rule="nonzero"/></clipPath></defs><g clip-path="url(#7f77cf3b64)"><path fill="#134295" d="M 404.503906 689.238281 C 561.332031 689.238281 688.925781 561.644531 688.925781 404.816406 C 688.925781 247.988281 561.34375 120.398438 404.503906 120.398438 C 247.664062 120.398438 120.085938 247.976562 120.085938 404.816406 C 120.085938 561.65625 247.675781 689.238281 404.503906 689.238281 Z M 404.503906 159.515625 C 539.765625 159.515625 649.804688 269.558594 649.804688 404.816406 C 649.804688 540.078125 539.777344 650.117188 404.503906 650.117188 C 269.230469 650.117188 159.203125 540.078125 159.203125 404.816406 C 159.203125 269.558594 269.246094 159.515625 404.503906 159.515625 Z M 404.503906 159.515625 " fill-opacity="1" fill-rule="nonzero"/></g><path fill="#134295" d="M 404.308594 424.402344 C 404.359375 424.402344 404.398438 424.390625 404.453125 424.390625 C 404.503906 424.390625 404.542969 424.402344 404.59375 424.402344 L 501.246094 424.402344 C 512.042969 424.402344 520.804688 415.640625 520.804688 404.84375 C 520.804688 394.03125 512.042969 385.285156 501.246094 385.285156 L 423.867188 385.285156 L 423.867188 241.859375 C 423.867188 231.050781 415.105469 222.300781 404.308594 222.300781 C 393.5 222.300781 384.75 231.050781 384.75 241.859375 L 384.75 404.84375 C 384.75 415.640625 393.5 424.402344 404.308594 424.402344 Z M 404.308594 424.402344 " fill-opacity="1" fill-rule="nonzero"/></svg>