<svg xmlns="http://www.w3.org/2000/svg" xmlns:xlink="http://www.w3.org/1999/xlink" width="1080" zoomAndPan="magnify" viewBox="0 0 810 817.92" height="1080" preserveAspectRatio="xMidYMid meet" version="1.0"><defs><clipPath id="1f56148d49"><path d="M 112 83 L 705 83 L 705 728.929688 L 112 728.929688 Z M 112 83 " clip-rule="nonzero"/></clipPath></defs><g clip-path="url(#1f56148d49)"><path fill="#134295" d="M 408.222656 729.011719 C 395.644531 729.011719 382.984375 724.210938 373.382812 714.613281 L 325.96875 667.195312 C 323.320312 664.546875 319.925781 662.480469 315.871094 661.15625 C 188.765625 619.449219 105.105469 496.8125 112.472656 362.921875 C 120.910156 210.578125 247.023438 87.941406 399.699219 83.558594 C 480.464844 81.324219 556.839844 111.03125 614.765625 167.21875 C 672.609375 223.488281 704.550781 298.957031 704.550781 379.640625 C 704.550781 507.984375 622.628906 621.105469 500.652344 661.074219 C 496.683594 662.398438 493.289062 664.382812 490.558594 667.113281 L 443.140625 714.53125 C 433.542969 724.128906 420.964844 728.929688 408.304688 728.929688 Z M 408.222656 108.300781 C 405.574219 108.300781 402.925781 108.300781 400.277344 108.382812 C 260.59375 112.355469 144.992188 224.730469 137.296875 364.246094 C 130.511719 486.964844 207.136719 599.339844 323.652344 637.570312 C 331.265625 640.054688 338.132812 644.273438 343.511719 649.652344 L 390.925781 697.070312 C 400.441406 706.585938 415.917969 706.585938 425.433594 697.070312 L 472.851562 649.652344 C 478.230469 644.273438 485.097656 640.054688 492.710938 637.570312 C 604.421875 600.914062 679.5625 497.308594 679.5625 379.722656 C 679.5625 305.742188 650.351562 236.644531 597.308594 185.09375 C 546.167969 135.441406 479.304688 108.300781 408.222656 108.300781 Z M 408.222656 108.300781 " fill-opacity="1" fill-rule="nonzero"/></g><path fill="#134295" d="M 480.132812 545.96875 C 439.5 545.96875 386.542969 529.832031 328.203125 471.328125 C 198.117188 341.65625 277.476562 238.550781 278.304688 237.554688 C 288.8125 223.074219 305.609375 213.808594 324.066406 212.730469 L 335.320312 212.070312 C 340.613281 211.820312 345.332031 214.71875 347.398438 219.433594 L 387.285156 309.21875 C 389.355469 313.933594 388.363281 319.480469 384.636719 323.121094 L 352.199219 355.144531 C 349.136719 358.207031 351.371094 363.667969 352.199219 365.324219 C 361.550781 385.101562 376.527344 401.484375 387.367188 411.746094 C 398.125 423.164062 414.511719 438.144531 434.289062 447.492188 C 435.941406 448.238281 441.40625 450.554688 444.464844 447.492188 L 476.492188 415.054688 C 480.132812 411.332031 485.675781 410.339844 490.394531 412.40625 L 580.175781 452.292969 C 584.894531 454.363281 587.789062 459.246094 587.542969 464.375 L 586.878906 475.628906 C 585.804688 494.082031 576.535156 510.882812 561.558594 521.722656 C 561.226562 521.96875 529.863281 546.132812 480.132812 546.132812 Z M 328.203125 237.308594 L 325.472656 237.472656 C 314.464844 238.136719 304.453125 243.597656 298 252.535156 C 294.9375 256.421875 231.796875 340.25 345.664062 453.78125 C 459.113281 567.648438 542.941406 504.507812 546.496094 501.777344 C 555.847656 494.992188 561.308594 484.980469 561.972656 474.058594 L 562.136719 471.410156 L 488.074219 438.472656 L 462.09375 464.871094 C 452.410156 474.636719 437.679688 476.621094 423.613281 469.917969 C 400.277344 458.914062 381.410156 441.703125 369.742188 429.289062 C 357.828125 418.117188 340.699219 399.25 329.691406 375.914062 C 323.070312 361.847656 324.976562 347.117188 334.738281 337.4375 L 361.054688 311.453125 L 328.121094 237.390625 Z M 328.203125 237.308594 " fill-opacity="1" fill-rule="nonzero"/></svg>