<svg xmlns="http://www.w3.org/2000/svg" xmlns:xlink="http://www.w3.org/1999/xlink" width="1080" zoomAndPan="magnify" viewBox="0 0 810 817.92" height="1080" preserveAspectRatio="xMidYMid meet" version="1.0"><defs><clipPath id="4c33384842"><path d="M 137.144531 137.105469 L 672.589844 137.105469 L 672.589844 672.550781 L 137.144531 672.550781 Z M 137.144531 137.105469 " clip-rule="nonzero"/></clipPath></defs><g clip-path="url(#4c33384842)"><path fill="#05439a" d="M 253.046875 476.714844 C 247.128906 479.097656 242 480.980469 237.027344 483.207031 C 231.742188 485.574219 227.101562 484.953125 224.90625 479.464844 C 222.660156 473.863281 226.023438 470.375 231.222656 468.304688 C 236.253906 466.304688 241.195312 464.070312 246.691406 461.71875 C 244.644531 453.441406 242.984375 445.480469 240.539062 437.769531 C 239.976562 436 236.769531 434.054688 234.695312 433.953125 C 225.90625 433.535156 217.070312 433.496094 208.285156 433.945312 C 205.550781 434.085938 202.691406 435.863281 200.28125 437.480469 C 182.578125 449.363281 160.507812 446.695312 146.816406 430.851562 C 146.035156 429.949219 145.292969 429.011719 144.597656 428.042969 C 143.898438 427.070312 143.246094 426.070312 142.640625 425.039062 C 142.035156 424.011719 141.476562 422.953125 140.964844 421.875 C 140.453125 420.792969 139.992188 419.691406 139.582031 418.570312 C 139.171875 417.449219 138.8125 416.308594 138.503906 415.152344 C 138.195312 414 137.941406 412.832031 137.738281 411.652344 C 137.539062 410.476562 137.390625 409.292969 137.292969 408.101562 C 137.199219 406.90625 137.160156 405.714844 137.171875 404.519531 C 137.1875 403.324219 137.253906 402.132812 137.375 400.941406 C 137.5 399.753906 137.671875 398.574219 137.902344 397.398438 C 138.132812 396.226562 138.414062 395.066406 138.746094 393.917969 C 139.082031 392.769531 139.464844 391.640625 139.902344 390.527344 C 140.339844 389.414062 140.824219 388.324219 141.359375 387.257812 C 141.898438 386.1875 142.480469 385.144531 143.109375 384.128906 C 143.738281 383.113281 144.414062 382.128906 145.132812 381.175781 C 145.851562 380.21875 146.613281 379.300781 147.417969 378.414062 C 161.214844 363.101562 182.785156 360.816406 200.3125 372.355469 C 203.589844 374.511719 207.9375 375.597656 211.910156 376.019531 C 217.617188 376.628906 223.519531 375.5625 229.191406 376.320312 C 237.542969 377.4375 241.320312 374.316406 242.347656 366.054688 C 243.050781 360.421875 245.113281 354.957031 246.8125 348.472656 C 241.527344 346.144531 236.394531 343.804688 231.199219 341.621094 C 226.078125 339.464844 222.683594 335.980469 225.175781 330.371094 C 227.589844 324.949219 232.351562 324.632812 237.53125 326.898438 C 242.496094 329.066406 247.578125 330.96875 252.394531 332.902344 C 253.257812 332.242188 253.902344 331.980469 254.179688 331.503906 C 269.089844 306.09375 269.035156 305.394531 245.984375 286.5 C 243.59375 284.539062 240.085938 283.578125 236.933594 282.96875 C 216.503906 279.03125 203.0625 262 204.1875 241.148438 C 205.261719 221.300781 221.382812 205.1875 241.257812 204.109375 C 262.105469 202.972656 279.011719 216.371094 283.027344 236.875 C 285.722656 250.636719 298.453125 256.394531 306.90625 265.519531 C 307.769531 266.445312 311.53125 265.5 313.449219 264.480469 C 319.867188 261.074219 326.058594 257.242188 333.164062 253.089844 C 331.136719 247.9375 329.058594 242.699219 327.015625 237.449219 C 324.972656 232.210938 325.515625 226.792969 331.285156 225.699219 C 334.304688 225.125 339.273438 228.511719 341.484375 231.5 C 344.613281 235.722656 346.011719 241.234375 348.328125 246.609375 C 356.726562 244.539062 364.695312 242.886719 372.410156 240.433594 C 374.136719 239.882812 375.9375 236.5625 376.042969 234.4375 C 376.457031 225.949219 376.609375 217.40625 376.019531 208.941406 C 375.792969 205.644531 373.75 202.238281 371.851562 199.328125 C 360.78125 182.378906 363.496094 160.722656 378.585938 147.242188 C 379.476562 146.441406 380.398438 145.6875 381.359375 144.96875 C 382.316406 144.253906 383.304688 143.585938 384.320312 142.957031 C 385.339844 142.332031 386.386719 141.753906 387.457031 141.222656 C 388.527344 140.691406 389.621094 140.210938 390.734375 139.777344 C 391.847656 139.347656 392.980469 138.964844 394.128906 138.636719 C 395.277344 138.308594 396.441406 138.03125 397.613281 137.808594 C 398.789062 137.582031 399.96875 137.414062 401.160156 137.296875 C 402.351562 137.179688 403.542969 137.117188 404.738281 137.109375 C 405.933594 137.097656 407.125 137.144531 408.316406 137.246094 C 409.507812 137.34375 410.691406 137.496094 411.871094 137.703125 C 413.046875 137.910156 414.210938 138.171875 415.367188 138.484375 C 416.519531 138.796875 417.65625 139.160156 418.777344 139.574219 C 419.898438 139.992188 421 140.457031 422.078125 140.972656 C 423.15625 141.488281 424.207031 142.050781 425.234375 142.664062 C 426.261719 143.273438 427.261719 143.929688 428.230469 144.628906 C 429.195312 145.332031 430.132812 146.074219 431.03125 146.863281 C 446.273438 160.105469 449.710938 182.144531 438.308594 198.753906 C 429.785156 211.175781 435.429688 224.621094 434.191406 237.539062 C 434.105469 238.441406 435.882812 239.898438 437.089844 240.453125 C 438.703125 241.195312 440.613281 241.28125 442.386719 241.703125 C 448.535156 243.15625 455.617188 247.148438 460.539062 245.320312 C 464.625 243.800781 465.519531 234.941406 469.070312 230.289062 C 471.15625 227.554688 475.679688 226.683594 479.105469 224.976562 C 480.542969 228.773438 483.539062 232.785156 483.050781 236.320312 C 482.292969 241.851562 479.179688 247.0625 476.84375 252.964844 C 483.691406 257.003906 490.234375 261.382812 497.277344 264.710938 C 499.515625 265.769531 504.199219 265.109375 505.84375 263.394531 C 515.046875 253.800781 525.914062 246.203125 529.011719 231.03125 C 532.796875 212.472656 552.882812 201.6875 572.226562 204.402344 C 591.070312 207.042969 605.535156 223.503906 605.945312 242.765625 C 606.363281 262.363281 593.183594 279.378906 574.230469 282.652344 C 559.691406 285.167969 554.117188 298.242188 544.578125 306.617188 C 543.652344 307.429688 544.050781 310.800781 544.914062 312.402344 C 548.640625 319.300781 552.769531 325.984375 557 333.164062 C 562.859375 330.84375 568.289062 327.820312 574.078125 326.738281 C 577.402344 326.117188 582.835938 327.546875 584.621094 330.011719 C 587.742188 334.316406 585.09375 338.601562 580.300781 341 C 580.027344 341.136719 579.730469 341.21875 579.460938 341.359375 C 574.210938 344.097656 564.761719 346.546875 564.539062 349.648438 C 563.992188 357.398438 567.386719 365.523438 569.8125 373.304688 C 570.257812 374.722656 573.585938 375.957031 575.628906 376.03125 C 584.125 376.332031 592.65625 376.484375 601.128906 375.984375 C 604.15625 375.804688 607.34375 374.035156 609.976562 372.273438 C 627.300781 360.691406 649.152344 363.234375 662.8125 378.628906 C 663.609375 379.523438 664.359375 380.449219 665.070312 381.410156 C 665.78125 382.371094 666.445312 383.363281 667.066406 384.382812 C 667.6875 385.402344 668.261719 386.453125 668.789062 387.523438 C 669.3125 388.597656 669.789062 389.691406 670.214844 390.808594 C 670.644531 391.925781 671.019531 393.058594 671.34375 394.207031 C 671.664062 395.359375 671.9375 396.523438 672.15625 397.695312 C 672.375 398.871094 672.539062 400.054688 672.652344 401.242188 C 672.761719 402.433594 672.820312 403.625 672.824219 404.820312 C 672.828125 406.015625 672.777344 407.207031 672.671875 408.398438 C 672.566406 409.589844 672.410156 410.773438 672.195312 411.949219 C 671.984375 413.125 671.71875 414.289062 671.402344 415.441406 C 671.085938 416.59375 670.71875 417.730469 670.296875 418.847656 C 669.875 419.96875 669.40625 421.066406 668.886719 422.140625 C 668.367188 423.21875 667.800781 424.265625 667.1875 425.292969 C 666.570312 426.316406 665.910156 427.3125 665.207031 428.277344 C 664.5 429.242188 663.753906 430.171875 662.964844 431.070312 C 649.363281 446.574219 627.25 449.71875 610.355469 437.5 C 601.800781 431.308594 592.820312 434.320312 584.050781 433.917969 C 570.566406 433.292969 570.542969 433.753906 567.277344 446.996094 C 567.207031 447.292969 567.175781 447.597656 567.097656 447.890625 C 563.519531 461.582031 563.515625 461.59375 576.824219 467.328125 C 582.0625 469.585938 587.734375 472.226562 584.980469 479.148438 C 582.050781 486.507812 576.03125 484.625 570.371094 482.152344 C 566.207031 480.335938 561.957031 478.722656 557.109375 476.757812 C 552.925781 483.789062 548.433594 490.570312 544.867188 497.808594 C 543.902344 499.777344 544.851562 503.890625 546.433594 505.6875 C 552.074219 512.0625 558.074219 518.082031 564.425781 523.742188 C 566.484375 525.585938 569.789062 526.378906 572.664062 526.917969 C 593.664062 530.859375 607.203125 548.011719 605.847656 569.230469 C 604.609375 588.65625 588.742188 604.519531 569.273438 605.792969 C 548.027344 607.179688 531.230469 593.730469 526.921875 572.636719 C 524.140625 559.019531 511.460938 553.15625 502.777344 544.230469 C 501.984375 543.414062 498.695312 544.28125 497.015625 545.195312 C 490.382812 548.800781 483.929688 552.734375 476.84375 556.878906 C 479.003906 562.328125 482.054688 567.46875 482.84375 572.933594 C 483.363281 576.5625 480.644531 580.65625 479.378906 584.542969 C 475.773438 582.75 471.144531 581.804688 468.800781 578.96875 C 465.113281 574.515625 464.125 566.359375 459.832031 564.3125 C 455.847656 562.417969 449.097656 567.191406 443.4375 567.734375 C 435.082031 568.53125 432.941406 572.816406 433.722656 580.394531 C 434.25 585.503906 433.238281 590.800781 433.988281 595.851562 C 434.746094 600.980469 435.832031 606.527344 438.496094 610.824219 C 449.125 627.972656 446.390625 649.582031 431.199219 662.925781 C 430.304688 663.71875 429.371094 664.464844 428.40625 665.171875 C 427.445312 665.875 426.449219 666.535156 425.425781 667.152344 C 424.402344 667.765625 423.351562 668.335938 422.273438 668.855469 C 421.199219 669.375 420.101562 669.847656 418.984375 670.269531 C 417.867188 670.6875 416.730469 671.058594 415.578125 671.375 C 414.425781 671.695312 413.265625 671.960938 412.089844 672.171875 C 410.914062 672.386719 409.730469 672.546875 408.539062 672.652344 C 407.347656 672.757812 406.15625 672.808594 404.960938 672.808594 C 403.765625 672.804688 402.574219 672.75 401.382812 672.640625 C 400.195312 672.527344 399.011719 672.367188 397.835938 672.148438 C 396.660156 671.929688 395.5 671.660156 394.347656 671.339844 C 393.199219 671.015625 392.0625 670.644531 390.945312 670.21875 C 389.832031 669.792969 388.734375 669.320312 387.660156 668.792969 C 386.585938 668.269531 385.539062 667.699219 384.515625 667.078125 C 383.496094 666.460938 382.503906 665.796875 381.542969 665.085938 C 380.578125 664.378906 379.652344 663.628906 378.757812 662.835938 C 363.621094 649.457031 360.503906 627.523438 371.878906 610.867188 C 380.324219 598.503906 374.769531 585.019531 375.761719 572.074219 C 375.824219 571.242188 373.886719 569.972656 372.652344 569.394531 C 371.316406 568.769531 369.695312 568.773438 368.226562 568.398438 C 362.070312 566.828125 354.816406 562.496094 350.09375 564.417969 C 345.695312 566.207031 344.621094 575.121094 340.867188 579.949219 C 338.757812 582.660156 334.179688 583.453125 330.714844 585.109375 C 329.335938 581.3125 326.429688 577.296875 326.933594 573.773438 C 327.726562 568.230469 330.816406 563.015625 333.191406 557.023438 C 326.191406 552.855469 319.40625 548.363281 312.167969 544.800781 C 310.207031 543.835938 306.09375 544.808594 304.289062 546.394531 C 297.917969 552.039062 291.902344 558.039062 286.238281 564.390625 C 284.394531 566.449219 283.625 569.765625 283.074219 572.640625 C 279.054688 593.671875 261.914062 607.15625 240.707031 605.765625 C 221.265625 604.492188 205.417969 588.597656 204.191406 569.144531 C 202.847656 547.894531 216.269531 531.210938 237.417969 526.839844 C 251.003906 524.027344 256.949219 511.449219 265.773438 502.65625 C 266.585938 501.84375 265.679688 498.578125 264.761719 496.894531 C 261.148438 490.269531 257.210938 483.824219 253.046875 476.714844 Z M 556.417969 405.183594 C 556.636719 375.53125 548.335938 348.386719 532.628906 323.320312 C 524.757812 310.757812 525.894531 302.03125 536.183594 291.464844 C 540.421875 287.113281 544.957031 283.035156 548.988281 278.503906 C 554.78125 271.984375 561.011719 267.675781 570.421875 266.773438 C 582.945312 265.574219 590.378906 254.855469 589.65625 242.222656 C 588.949219 229.804688 579.753906 220.792969 567.265625 220.28125 C 554.734375 219.765625 544.132812 227.464844 543.085938 240.035156 C 542.351562 248.84375 538.453125 254.621094 532.414062 260.046875 C 527.902344 264.101562 523.796875 268.605469 519.472656 272.871094 C 507.742188 284.4375 499.578125 285.417969 485.457031 276.609375 C 467.710938 265.542969 448.597656 258.121094 427.898438 255.1875 C 390.738281 249.921875 356.078125 256.910156 324.117188 276.890625 C 310.523438 285.390625 302.242188 284.316406 290.839844 273.128906 C 286.71875 269.085938 282.839844 264.78125 278.519531 260.972656 C 271.964844 255.195312 267.695312 248.933594 266.804688 239.527344 C 265.621094 227.007812 254.902344 219.578125 242.238281 220.316406 C 230.167969 221.019531 221.28125 229.765625 220.378906 241.832031 C 219.414062 254.738281 227.148438 265.746094 240.09375 266.890625 C 248.894531 267.664062 254.675781 271.519531 260.09375 277.585938 C 264.132812 282.105469 268.664062 286.1875 272.925781 290.515625 C 284.496094 302.265625 285.476562 310.414062 276.660156 324.535156 C 265.746094 342.007812 258.355469 360.832031 255.359375 381.191406 C 249.855469 418.640625 256.746094 453.628906 276.9375 485.875 C 285.414062 499.421875 284.332031 507.816406 273.171875 519.167969 C 269.128906 523.285156 264.8125 527.15625 261.007812 531.480469 C 255.230469 538.050781 248.945312 542.273438 239.554688 543.171875 C 227.09375 544.359375 219.566406 555.210938 220.335938 567.753906 C 221.101562 580.179688 230.3125 589.175781 242.785156 589.671875 C 255.3125 590.171875 265.882812 582.460938 266.921875 569.878906 C 267.652344 561.058594 271.601562 555.304688 277.640625 549.886719 C 282.152344 545.832031 286.257812 541.328125 290.585938 537.066406 C 302.328125 525.492188 310.425781 524.523438 324.585938 533.339844 C 342.339844 544.390625 361.453125 551.8125 382.148438 554.75 C 419.3125 560.019531 453.976562 553.019531 485.933594 533.039062 C 499.523438 524.546875 507.855469 525.613281 519.195312 536.792969 C 523.304688 540.847656 527.195312 545.140625 531.507812 548.957031 C 538.046875 554.742188 542.332031 560.980469 543.210938 570.402344 C 544.367188 582.882812 555.175781 590.363281 567.785156 589.632812 C 580.1875 588.914062 589.21875 579.714844 589.761719 567.238281 C 590.308594 554.769531 582.570312 543.96875 570.039062 543.042969 C 560.753906 542.355469 555.054688 537.757812 549.382812 531.738281 C 545.632812 527.761719 541.660156 524 537.8125 520.113281 C 525.304688 507.480469 524.457031 500.042969 533.839844 484.683594 C 548.742188 460.277344 556.589844 433.882812 556.417969 405.183594 Z M 417.738281 237.042969 C 417.738281 227.105469 417.082031 217.726562 417.984375 208.503906 C 418.527344 202.949219 420.460938 196.929688 423.578125 192.351562 C 430.898438 181.605469 430.296875 167.695312 420.964844 159.363281 C 411.8125 151.191406 397.644531 151.34375 388.675781 159.714844 C 379.570312 168.210938 379.21875 182.09375 386.839844 192.75 C 389.734375 196.800781 391.667969 202.25 392.078125 207.21875 C 392.882812 217.035156 392.3125 226.960938 392.3125 237.039062 Z M 236.929688 392.25 C 226.621094 392.25 216.671875 392.769531 206.816406 392.027344 C 202.125 391.671875 196.921875 389.855469 193.148438 387.074219 C 182.199219 379.003906 168.035156 379.417969 159.472656 388.960938 C 151.257812 398.121094 151.367188 412.261719 159.726562 421.257812 C 168.425781 430.617188 182.457031 430.820312 193.4375 422.578125 C 196.960938 419.933594 201.886719 418.1875 206.296875 417.894531 C 216.4375 417.214844 226.65625 417.675781 236.929688 417.675781 Z M 573.0625 417.675781 C 583.3125 417.675781 593.25 417.167969 603.09375 417.898438 C 607.789062 418.25 613.027344 419.992188 616.777344 422.777344 C 627.6875 430.890625 641.828125 430.570312 650.476562 421.082031 C 658.742188 412.011719 658.714844 397.820312 650.417969 388.777344 C 641.753906 379.332031 627.671875 379.078125 616.710938 387.214844 C 612.964844 389.996094 607.699219 391.6875 602.996094 392.03125 C 593.15625 392.753906 583.230469 392.25 573.066406 392.25 Z M 392.3125 573.050781 C 392.3125 583.351562 392.828125 593.296875 392.089844 603.152344 C 391.734375 607.847656 389.933594 613.054688 387.152344 616.828125 C 379.070312 627.78125 379.46875 641.933594 389.015625 650.492188 C 398.1875 658.714844 412.316406 658.621094 421.300781 650.269531 C 430.683594 641.550781 430.898438 627.511719 422.65625 616.5625 C 420.007812 613.042969 418.25 608.117188 417.957031 603.710938 C 417.273438 593.570312 417.738281 583.351562 417.738281 573.050781 Z M 392.3125 573.050781 " fill-opacity="1" fill-rule="nonzero"/></g><path fill="#05439a" d="M 431.980469 339.457031 C 431.988281 338.300781 432.054688 337.148438 432.179688 336 C 432.300781 334.847656 432.480469 333.707031 432.714844 332.578125 C 432.949219 331.445312 433.238281 330.328125 433.585938 329.222656 C 433.929688 328.121094 434.332031 327.039062 434.78125 325.976562 C 435.234375 324.910156 435.742188 323.871094 436.296875 322.859375 C 436.851562 321.847656 437.457031 320.863281 438.109375 319.90625 C 438.761719 318.953125 439.460938 318.035156 440.203125 317.148438 C 440.945312 316.265625 441.734375 315.417969 442.558594 314.613281 C 443.386719 313.804688 444.253906 313.042969 445.15625 312.320312 C 446.058594 311.597656 446.996094 310.921875 447.964844 310.292969 C 448.933594 309.664062 449.933594 309.085938 450.960938 308.554688 C 451.988281 308.027344 453.039062 307.546875 454.113281 307.121094 C 455.1875 306.695312 456.28125 306.324219 457.390625 306.003906 C 458.503906 305.6875 459.628906 305.425781 460.765625 305.21875 C 461.902344 305.011719 463.046875 304.859375 464.199219 304.765625 C 465.351562 304.671875 466.503906 304.636719 467.660156 304.65625 C 487.175781 304.929688 502.761719 320.953125 502.476562 340.449219 C 502.191406 359.742188 485.652344 375.960938 466.675781 375.558594 C 447.335938 375.144531 431.773438 358.949219 431.980469 339.457031 Z M 448.164062 339.804688 C 448.101562 350.507812 456.242188 358.984375 466.824219 359.230469 C 477.511719 359.480469 486.675781 350.367188 486.476562 339.6875 C 486.277344 329.105469 477.871094 320.972656 467.148438 320.988281 C 456.195312 321.007812 448.226562 328.902344 448.164062 339.804688 Z M 448.164062 339.804688 " fill-opacity="1" fill-rule="nonzero"/><path fill="#05439a" d="M 359.410156 311.8125 C 375.222656 312.042969 387.230469 324.523438 387.015625 340.496094 C 386.804688 356.03125 373.839844 368.671875 358.359375 368.4375 C 342.410156 368.199219 329.851562 355.023438 330.285156 338.984375 C 330.707031 323.304688 343.277344 311.578125 359.410156 311.8125 Z M 370.726562 339.667969 C 370.617188 332.789062 365.582031 327.714844 358.785156 327.628906 C 357.960938 327.613281 357.140625 327.683594 356.328125 327.835938 C 355.515625 327.988281 354.726562 328.222656 353.960938 328.535156 C 353.199219 328.847656 352.472656 329.234375 351.785156 329.691406 C 351.097656 330.152344 350.464844 330.675781 349.882812 331.261719 C 349.300781 331.847656 348.785156 332.488281 348.332031 333.179688 C 347.878906 333.871094 347.5 334.601562 347.199219 335.371094 C 346.894531 336.136719 346.667969 336.929688 346.523438 337.742188 C 346.378906 338.558594 346.320312 339.375 346.339844 340.203125 C 346.480469 346.980469 351.601562 352.035156 358.425781 352.121094 C 365.800781 352.21875 370.847656 347.109375 370.726562 339.667969 Z M 370.726562 339.667969 " fill-opacity="1" fill-rule="nonzero"/><path fill="#05439a" d="M 466.8125 478.214844 C 451.042969 478.054688 438.835938 465.574219 438.929688 449.714844 C 439.027344 433.550781 451.898438 421.058594 468.054688 421.449219 C 483.128906 421.816406 495.578125 434.472656 495.722656 449.574219 C 495.871094 465.484375 482.855469 478.378906 466.8125 478.214844 Z M 467.609375 437.550781 C 460.660156 437.324219 454.785156 442.972656 454.785156 449.890625 C 454.78125 456.605469 459.945312 461.957031 466.773438 461.96875 C 474.238281 461.984375 478.695312 458.105469 479.503906 450.699219 C 480.253906 443.824219 474.566406 437.78125 467.605469 437.550781 Z M 467.609375 437.550781 " fill-opacity="1" fill-rule="nonzero"/><path fill="#05439a" d="M 350.683594 431.832031 C 350.820312 443.675781 341.472656 453.527344 329.730469 453.925781 C 317.871094 454.328125 307.550781 444.066406 307.652344 431.984375 C 307.757812 420.140625 317.390625 410.460938 329.136719 410.390625 C 340.84375 410.320312 350.550781 419.984375 350.683594 431.832031 Z M 329.191406 424.707031 C 326.667969 428.113281 323.730469 430.492188 324.144531 431.882812 C 324.804688 434.101562 327.683594 435.664062 329.628906 437.503906 C 331.195312 435.644531 333.851562 433.871094 334.003906 431.902344 C 334.144531 430.09375 331.585938 428.074219 329.191406 424.707031 Z M 329.191406 424.707031 " fill-opacity="1" fill-rule="nonzero"/><path fill="#05439a" d="M 360.878906 490.550781 C 360.71875 478.332031 369.566406 468.988281 381.617188 468.636719 C 393.648438 468.289062 403.285156 477.34375 403.59375 489.292969 C 403.914062 501.6875 394.445312 511.816406 382.40625 511.960938 C 370.804688 512.101562 361.03125 502.382812 360.878906 490.550781 Z M 382.640625 498.011719 C 385 494.035156 387.390625 491.734375 387.34375 489.484375 C 387.3125 487.957031 383.8125 485.273438 381.960938 485.355469 C 380.152344 485.433594 376.953125 488.503906 377.09375 490.011719 C 377.296875 492.265625 379.890625 494.300781 382.640625 498.011719 Z M 382.640625 498.011719 " fill-opacity="1" fill-rule="nonzero"/><path fill="#05439a" d="M 545.699219 407.179688 C 545.128906 412.0625 545.109375 418.578125 543.347656 424.578125 C 542.484375 427.515625 538.375 429.496094 535.734375 431.910156 C 533.171875 429.0625 528.644531 426.371094 528.40625 423.339844 C 527.714844 413.957031 527.980469 404.605469 529.203125 395.277344 C 529.613281 392.089844 533.757812 389.378906 536.195312 386.449219 C 539.089844 388.941406 543.070312 390.914062 544.589844 394.066406 C 546.167969 397.347656 545.367188 401.773438 545.699219 407.179688 Z M 545.699219 407.179688 " fill-opacity="1" fill-rule="nonzero"/></svg>