<svg xmlns="http://www.w3.org/2000/svg" xmlns:xlink="http://www.w3.org/1999/xlink" width="1080" zoomAndPan="magnify" viewBox="0 0 810 817.92" height="1080" preserveAspectRatio="xMidYMid meet" version="1.0"><defs><clipPath id="408e6ef18b"><path d="M 131.632812 121.308594 L 678.328125 121.308594 L 678.328125 688 L 131.632812 688 Z M 131.632812 121.308594 " clip-rule="nonzero"/></clipPath></defs><g clip-path="url(#408e6ef18b)"><path fill="#05439a" d="M 447.71875 482.566406 L 418.144531 460.835938 C 408.09375 453.453125 401.03125 442.703125 398.246094 430.546875 L 391.851562 402.644531 L 371.386719 443.246094 C 369.214844 447.558594 370.949219 452.8125 375.257812 454.984375 L 395.710938 465.292969 C 414.859375 474.945312 429.390625 491.808594 436.105469 512.171875 C 442.824219 532.539062 441.171875 554.738281 431.523438 573.890625 L 385.625 664.957031 C 380.792969 674.542969 372.351562 681.816406 362.152344 685.175781 C 351.960938 688.539062 340.847656 687.714844 331.257812 682.882812 C 321.671875 678.050781 314.398438 669.609375 311.035156 659.414062 C 307.675781 649.21875 308.5 638.105469 313.332031 628.519531 L 354.375 547.089844 L 288.339844 513.808594 C 266.8125 502.957031 250.476562 484 242.929688 461.105469 C 235.378906 438.214844 237.230469 413.257812 248.082031 391.730469 C 248.082031 391.730469 296.605469 295.460938 296.605469 295.460938 C 305.515625 277.589844 322.15625 258.496094 341.621094 249.445312 C 355.628906 242.933594 371.039062 241.4375 386.351562 248.332031 C 386.457031 248.378906 386.5625 248.429688 386.667969 248.484375 L 409.285156 259.882812 C 430.085938 270.367188 445.039062 289.683594 449.976562 312.445312 L 462.785156 371.527344 L 558.949219 316.011719 C 561.429688 314.578125 564.488281 314.578125 566.96875 316.011719 L 674.1875 377.910156 C 676.667969 379.34375 678.195312 381.992188 678.195312 384.855469 L 678.195312 508.671875 C 678.195312 511.539062 676.667969 514.1875 674.1875 515.617188 L 566.96875 577.519531 C 564.488281 578.953125 561.429688 578.953125 558.949219 577.519531 L 451.730469 515.617188 C 449.25 514.1875 447.71875 511.539062 447.71875 508.671875 Z M 469.394531 402 L 469.5 402.5 C 469.746094 403.617188 470.367188 404.617188 471.265625 405.328125 L 525.34375 448.167969 C 540.824219 460.433594 543.863281 482.730469 532.226562 498.6875 C 526.449219 506.617188 517.746094 511.917969 508.054688 513.417969 C 498.355469 514.917969 488.460938 512.496094 480.554688 506.6875 L 463.757812 494.347656 C 463.757812 499.558594 463.757812 504.042969 463.757812 504.042969 C 463.757812 504.042969 531.335938 543.058594 554.941406 556.683594 L 554.941406 451.386719 Z M 654.140625 384.855469 L 562.957031 332.214844 L 471.777344 384.855469 L 562.957031 437.5 Z M 570.976562 556.683594 L 662.160156 504.042969 L 662.160156 398.746094 L 639.503906 411.824219 L 639.503906 458.792969 C 639.503906 461.660156 637.972656 464.304688 635.492188 465.738281 L 605.660156 482.949219 C 603.179688 484.382812 600.121094 484.382812 597.640625 482.949219 C 595.160156 481.515625 593.632812 478.871094 593.632812 476.003906 L 593.632812 438.308594 L 570.976562 451.386719 Z M 404.96875 388.101562 L 413.878906 426.964844 C 415.804688 435.371094 420.691406 442.804688 427.640625 447.910156 L 490.050781 493.761719 C 494.519531 497.046875 500.117188 498.417969 505.597656 497.566406 C 511.082031 496.71875 516 493.722656 519.269531 489.238281 C 525.832031 480.238281 524.117188 467.660156 515.386719 460.742188 L 461.304688 417.902344 C 457.5 414.886719 454.855469 410.644531 453.828125 405.898438 L 434.300781 315.84375 C 430.390625 297.8125 418.546875 282.511719 402.070312 274.207031 C 402.070312 274.207031 379.613281 262.886719 379.59375 262.878906 C 366.035156 256.859375 352.421875 260.574219 340.726562 268.292969 C 327.859375 276.785156 317.1875 290.113281 310.949219 302.636719 C 310.941406 302.644531 310.9375 302.65625 310.929688 302.667969 L 262.402344 398.949219 C 253.46875 416.679688 251.941406 437.230469 258.160156 456.085938 C 264.375 474.9375 277.828125 490.550781 295.558594 499.484375 L 368.753906 536.375 C 372.707031 538.371094 374.296875 543.191406 372.304688 547.144531 L 327.652344 635.738281 C 324.734375 641.523438 324.238281 648.234375 326.265625 654.390625 C 328.296875 660.546875 332.6875 665.644531 338.476562 668.5625 C 344.265625 671.476562 350.976562 671.976562 357.132812 669.945312 C 363.285156 667.917969 368.382812 663.523438 371.300781 657.734375 L 417.199219 566.671875 C 424.9375 551.320312 426.261719 533.523438 420.875 517.195312 C 415.492188 500.871094 403.84375 487.351562 388.492188 479.613281 L 368.039062 469.304688 C 355.820312 463.144531 350.90625 448.246094 357.0625 436.027344 L 382.589844 385.386719 C 384.863281 380.875 389.71875 378.273438 394.734375 378.882812 C 399.746094 379.492188 403.84375 383.179688 404.96875 388.101562 Z M 623.464844 454.160156 L 623.464844 421.09375 L 609.671875 429.058594 C 609.671875 429.058594 609.671875 462.121094 609.671875 462.121094 Z M 500.601562 147.941406 C 535.273438 165.417969 549.234375 207.753906 531.757812 242.425781 C 514.285156 277.097656 471.945312 291.0625 437.273438 273.585938 C 402.601562 256.109375 388.640625 213.773438 406.113281 179.097656 C 423.589844 144.425781 465.929688 130.464844 500.601562 147.941406 Z M 493.382812 162.261719 C 466.613281 148.769531 433.929688 159.550781 420.4375 186.316406 C 406.945312 213.085938 417.722656 245.773438 444.492188 259.261719 C 471.261719 272.753906 503.945312 261.976562 517.4375 235.207031 C 530.929688 208.441406 520.148438 175.753906 493.382812 162.261719 Z M 287.683594 275.578125 C 285.296875 279.304688 280.332031 280.394531 276.605469 278.007812 C 272.878906 275.621094 271.789062 270.65625 274.175781 266.929688 C 278.199219 260.652344 282.976562 254.457031 288.347656 248.753906 C 291.382812 245.535156 296.460938 245.382812 299.683594 248.417969 C 302.90625 251.453125 303.058594 256.53125 300.023438 259.753906 C 295.347656 264.71875 291.183594 270.113281 287.683594 275.578125 Z M 265.972656 317.46875 C 263.980469 321.417969 259.152344 323.011719 255.203125 321.019531 C 251.25 319.027344 249.660156 314.199219 251.648438 310.25 L 261.011719 291.671875 C 263.003906 287.71875 267.832031 286.128906 271.78125 288.121094 C 275.734375 290.113281 277.328125 294.9375 275.335938 298.890625 Z M 243.082031 362.886719 C 241.089844 366.835938 236.261719 368.429688 232.308594 366.4375 C 228.355469 364.445312 226.765625 359.617188 228.757812 355.667969 L 239.210938 334.921875 C 241.203125 330.972656 246.03125 329.378906 249.984375 331.371094 C 253.9375 333.363281 255.527344 338.191406 253.535156 342.140625 Z M 222.429688 407.667969 C 221.273438 411.941406 216.867188 414.46875 212.59375 413.3125 C 208.320312 412.15625 205.792969 407.75 206.949219 403.476562 C 208.703125 397 211.117188 390.667969 214.179688 384.585938 L 215.867188 381.246094 C 217.859375 377.296875 222.683594 375.703125 226.636719 377.695312 C 230.585938 379.6875 232.179688 384.515625 230.1875 388.464844 L 228.503906 391.804688 C 225.929688 396.914062 223.902344 402.230469 222.429688 407.667969 Z M 223.738281 455.976562 C 225.125 460.179688 222.835938 464.714844 218.632812 466.101562 C 214.429688 467.488281 209.890625 465.199219 208.503906 460.996094 C 205.632812 452.285156 203.996094 443.300781 203.578125 434.292969 C 203.371094 429.875 206.792969 426.117188 211.214844 425.914062 C 215.636719 425.707031 219.394531 429.128906 219.597656 433.550781 C 219.949219 441.113281 221.324219 448.65625 223.738281 455.976562 Z M 321.878906 242.171875 C 318.871094 245.417969 313.792969 245.609375 310.546875 242.601562 C 307.304688 239.59375 307.109375 234.515625 310.117188 231.269531 C 317.164062 223.671875 325.058594 220.140625 333.621094 218.199219 C 337.9375 217.21875 342.238281 219.929688 343.214844 224.246094 C 344.195312 228.5625 341.484375 232.859375 337.167969 233.839844 C 331.625 235.097656 326.441406 237.253906 321.878906 242.171875 Z M 211.589844 121.292969 C 255.691406 121.292969 291.5 157.101562 291.5 201.207031 C 291.5 245.3125 255.691406 281.117188 211.589844 281.117188 C 167.480469 281.117188 131.675781 245.3125 131.675781 201.207031 C 131.675781 157.101562 167.480469 121.292969 211.589844 121.292969 Z M 211.589844 137.332031 C 176.332031 137.332031 147.710938 165.953125 147.710938 201.207031 C 147.710938 236.460938 176.332031 265.082031 211.589844 265.082031 C 246.839844 265.082031 275.460938 236.460938 275.460938 201.207031 C 275.460938 165.953125 246.839844 137.332031 211.589844 137.332031 Z M 169.839844 200.820312 C 166.511719 197.902344 166.179688 192.832031 169.09375 189.503906 C 172.011719 186.175781 177.082031 185.84375 180.410156 188.761719 L 201.039062 206.84375 L 242.808594 170.765625 C 246.15625 167.871094 251.226562 168.242188 254.117188 171.589844 C 257.011719 174.941406 256.640625 180.007812 253.289062 182.902344 L 206.242188 223.539062 C 203.214844 226.15625 198.722656 226.140625 195.714844 223.503906 Z M 169.839844 200.820312 " fill-opacity="1" fill-rule="evenodd"/></g></svg>