<svg xmlns="http://www.w3.org/2000/svg" xmlns:xlink="http://www.w3.org/1999/xlink" width="1080" zoomAndPan="magnify" viewBox="0 0 810 817.92" height="1080" preserveAspectRatio="xMidYMid meet" version="1.0"><defs><clipPath id="3cd3e0f4a0"><path d="M 163.070312 81 L 691.015625 81 L 691.015625 728.929688 L 163.070312 728.929688 Z M 163.070312 81 " clip-rule="nonzero"/></clipPath></defs><g clip-path="url(#3cd3e0f4a0)"><path fill="#05439a" d="M 297.546875 499.390625 L 297.550781 499.390625 L 297.550781 499.179688 L 297.558594 498.972656 L 297.5625 498.972656 L 297.570312 498.769531 L 297.589844 498.5625 L 297.609375 498.359375 L 297.613281 498.359375 L 297.640625 498.15625 L 297.644531 498.15625 L 297.671875 497.957031 L 297.675781 497.957031 L 297.710938 497.757812 L 297.714844 497.757812 L 297.753906 497.5625 L 297.800781 497.367188 L 297.804688 497.367188 L 297.855469 497.171875 L 297.910156 496.984375 L 297.914062 496.984375 L 297.972656 496.796875 L 298.039062 496.605469 L 298.109375 496.421875 L 298.183594 496.238281 L 298.261719 496.058594 L 298.265625 496.058594 L 298.34375 495.882812 L 298.347656 495.882812 L 298.433594 495.707031 L 298.523438 495.535156 L 298.527344 495.535156 L 298.621094 495.363281 L 298.71875 495.195312 L 298.722656 495.195312 L 298.824219 495.027344 L 298.929688 494.867188 L 298.933594 494.867188 L 299.039062 494.707031 L 299.042969 494.707031 L 299.15625 494.546875 L 299.273438 494.394531 L 299.277344 494.394531 L 299.394531 494.242188 L 299.398438 494.242188 L 299.519531 494.09375 L 299.523438 494.09375 L 299.78125 493.804688 L 299.785156 493.804688 L 299.917969 493.664062 L 299.921875 493.664062 L 300.054688 493.53125 L 300.058594 493.53125 L 300.199219 493.398438 L 300.203125 493.398438 L 300.34375 493.269531 L 300.347656 493.269531 L 300.492188 493.144531 L 300.496094 493.144531 L 300.644531 493.023438 L 300.796875 492.90625 L 300.800781 492.90625 L 300.957031 492.789062 L 301.117188 492.679688 L 301.28125 492.570312 L 301.445312 492.46875 L 301.613281 492.371094 L 301.785156 492.273438 L 301.957031 492.183594 L 302.132812 492.09375 L 302.136719 492.09375 L 302.308594 492.011719 L 302.3125 492.011719 L 302.492188 491.933594 L 302.675781 491.859375 L 302.859375 491.789062 L 303.046875 491.722656 L 303.234375 491.660156 L 303.425781 491.601562 L 303.617188 491.550781 L 303.621094 491.550781 L 303.8125 491.503906 L 303.816406 491.503906 L 304.007812 491.460938 L 304.011719 491.460938 L 304.210938 491.421875 L 304.609375 491.359375 L 304.613281 491.359375 L 304.8125 491.335938 L 304.816406 491.335938 L 305.019531 491.320312 L 305.222656 491.308594 L 305.226562 491.308594 L 305.433594 491.296875 L 305.851562 491.296875 L 306.058594 491.308594 L 306.261719 491.320312 L 306.265625 491.320312 L 306.46875 491.335938 L 306.472656 491.335938 L 306.671875 491.359375 L 306.871094 491.390625 L 306.875 491.390625 L 307.070312 491.421875 L 307.074219 491.421875 L 307.269531 491.460938 L 307.273438 491.460938 L 307.46875 491.503906 L 307.472656 491.503906 L 307.664062 491.550781 L 307.667969 491.550781 L 307.855469 491.601562 L 307.859375 491.601562 L 308.046875 491.660156 L 308.050781 491.660156 L 308.234375 491.722656 L 308.238281 491.722656 L 308.421875 491.789062 L 308.425781 491.789062 L 308.605469 491.859375 L 308.609375 491.859375 L 308.789062 491.933594 L 308.792969 491.933594 L 308.972656 492.011719 L 309.148438 492.09375 L 309.152344 492.09375 L 309.324219 492.183594 L 309.328125 492.183594 L 309.496094 492.273438 L 309.5 492.273438 L 309.667969 492.371094 L 309.671875 492.371094 L 309.835938 492.46875 L 309.839844 492.46875 L 310 492.570312 L 310.003906 492.570312 L 310.164062 492.679688 L 310.167969 492.679688 L 310.324219 492.789062 L 310.328125 492.789062 L 310.484375 492.90625 L 310.636719 493.023438 L 310.640625 493.023438 L 310.789062 493.144531 L 310.9375 493.269531 L 310.941406 493.269531 L 311.082031 493.398438 L 311.085938 493.398438 L 311.222656 493.53125 L 311.226562 493.53125 L 311.363281 493.664062 L 311.367188 493.664062 L 311.5 493.804688 L 311.503906 493.804688 L 311.628906 493.949219 L 311.632812 493.949219 L 311.761719 494.09375 L 311.886719 494.242188 L 312.007812 494.394531 L 312.125 494.546875 L 312.128906 494.546875 L 312.242188 494.707031 L 312.351562 494.867188 L 312.457031 495.027344 L 312.460938 495.027344 L 312.5625 495.195312 L 312.660156 495.363281 L 312.664062 495.363281 L 312.757812 495.535156 L 312.847656 495.707031 L 312.851562 495.707031 L 312.9375 495.882812 L 313.019531 496.058594 L 313.097656 496.238281 L 313.101562 496.238281 L 313.171875 496.421875 L 313.175781 496.421875 L 313.242188 496.605469 L 313.246094 496.605469 L 313.308594 496.796875 L 313.3125 496.796875 L 313.371094 496.984375 L 313.425781 497.171875 L 313.429688 497.171875 L 313.480469 497.367188 L 313.527344 497.5625 L 313.53125 497.5625 L 313.570312 497.757812 L 313.609375 497.957031 L 313.640625 498.15625 L 313.667969 498.359375 L 313.671875 498.359375 L 313.691406 498.5625 L 313.695312 498.5625 L 313.710938 498.769531 L 313.714844 498.769531 L 313.722656 498.972656 L 313.726562 498.972656 L 313.730469 499.179688 L 313.734375 499.179688 L 313.734375 499.390625 L 313.738281 499.390625 L 313.738281 679.332031 C 313.738281 688.285156 317.40625 696.4375 323.3125 702.347656 C 329.222656 708.257812 337.375 711.925781 346.332031 711.925781 C 355.285156 711.925781 363.4375 708.257812 369.347656 702.347656 L 369.742188 701.972656 C 375.417969 696.117188 378.925781 688.121094 378.925781 679.332031 L 378.925781 499.390625 C 378.925781 498.402344 379.101562 497.453125 379.429688 496.574219 C 373.832031 492.511719 368.484375 487.960938 363.441406 482.914062 L 363.4375 482.914062 C 337.480469 456.957031 324.496094 422.921875 324.496094 388.902344 C 324.496094 354.875 337.480469 320.84375 363.4375 294.886719 L 363.441406 294.886719 L 363.441406 294.882812 C 372.019531 286.308594 381.476562 279.148438 391.519531 273.40625 C 387.835938 271.394531 383.964844 269.671875 379.945312 268.273438 C 372.046875 265.519531 363.519531 264.015625 354.609375 264.015625 L 256.671875 264.015625 C 235.375 264.015625 216.003906 272.738281 201.960938 286.78125 C 187.917969 300.828125 179.199219 320.199219 179.199219 341.496094 L 179.199219 443.898438 C 179.199219 448.972656 181.28125 453.597656 184.632812 456.949219 C 187.984375 460.300781 192.605469 462.382812 197.683594 462.382812 C 202.757812 462.382812 207.382812 460.300781 210.734375 456.949219 C 214.085938 453.597656 216.167969 448.972656 216.167969 443.898438 L 216.167969 347.554688 C 216.167969 343.085938 219.792969 339.460938 224.261719 339.460938 C 228.734375 339.460938 232.355469 343.085938 232.355469 347.554688 L 232.355469 679.332031 C 232.355469 688.121094 235.863281 696.117188 241.539062 701.972656 L 241.9375 702.347656 C 247.847656 708.257812 256 711.925781 264.957031 711.925781 C 273.746094 711.925781 281.742188 708.417969 287.597656 702.742188 L 287.96875 702.347656 C 293.878906 696.4375 297.546875 688.285156 297.546875 679.332031 Z M 395.113281 506.371094 L 395.113281 679.332031 C 395.113281 692.484375 389.816406 704.480469 381.246094 713.292969 C 381.101562 713.460938 380.949219 713.628906 380.789062 713.789062 C 371.949219 722.628906 359.753906 728.113281 346.332031 728.113281 C 332.910156 728.113281 320.710938 722.628906 311.871094 713.789062 C 309.550781 711.46875 307.460938 708.910156 305.644531 706.167969 C 303.824219 708.910156 301.734375 711.46875 299.414062 713.789062 C 299.25 713.949219 299.082031 714.101562 298.914062 714.246094 C 290.101562 722.816406 278.105469 728.113281 264.957031 728.113281 C 251.535156 728.113281 239.332031 722.628906 230.496094 713.789062 C 230.332031 713.628906 230.179688 713.460938 230.035156 713.292969 C 221.46875 704.480469 216.167969 692.484375 216.167969 679.332031 L 216.167969 473.203125 C 210.8125 476.597656 204.46875 478.570312 197.683594 478.570312 C 188.140625 478.570312 179.46875 474.671875 173.191406 468.390625 C 166.910156 462.113281 163.011719 453.441406 163.011719 443.898438 L 163.011719 341.496094 C 163.011719 315.730469 173.546875 292.3125 190.515625 275.339844 C 207.488281 258.367188 230.910156 247.832031 256.671875 247.832031 L 354.609375 247.832031 C 365.273438 247.832031 375.59375 249.667969 385.253906 253.035156 C 393.660156 255.964844 401.542969 260.082031 408.695312 265.171875 C 424.328125 259.019531 440.894531 255.941406 457.457031 255.941406 C 491.480469 255.941406 525.507812 268.921875 551.46875 294.882812 L 551.472656 294.886719 C 577.429688 320.84375 590.414062 354.871094 590.414062 388.898438 C 590.414062 415.402344 582.535156 441.90625 566.785156 464.601562 L 579.480469 477.296875 C 582.519531 475.546875 585.914062 474.671875 589.304688 474.671875 C 594.351562 474.671875 599.40625 476.605469 603.269531 480.464844 L 603.300781 480.464844 L 603.300781 480.46875 L 679.832031 556.996094 L 679.832031 557.027344 C 687.308594 564.507812 691.046875 574.328125 691.046875 584.136719 C 691.046875 593.964844 687.304688 603.800781 679.828125 611.277344 C 672.351562 618.753906 662.519531 622.492188 652.691406 622.492188 C 642.863281 622.492188 633.027344 618.753906 625.550781 611.277344 L 549.023438 534.746094 C 545.164062 530.886719 543.226562 525.8125 543.226562 520.75 C 543.226562 517.355469 544.101562 513.957031 545.851562 510.921875 L 533.15625 498.226562 C 510.464844 513.976562 483.957031 521.859375 457.453125 521.859375 C 436 521.859375 414.542969 516.695312 395.113281 506.371094 Z M 556.691406 477.390625 C 555.011719 479.269531 553.273438 481.113281 551.472656 482.914062 C 549.667969 484.71875 547.828125 486.457031 545.949219 488.132812 L 556.796875 498.980469 L 567.539062 488.238281 Z M 374.886719 306.324219 C 397.679688 283.53125 427.570312 272.128906 457.457031 272.128906 C 487.339844 272.128906 517.226562 283.527344 540.027344 306.324219 L 540.027344 306.328125 C 562.824219 329.125 574.226562 359.011719 574.226562 388.898438 C 574.226562 418.785156 562.824219 448.675781 540.027344 471.472656 C 517.230469 494.269531 487.339844 505.671875 457.453125 505.671875 C 427.566406 505.671875 397.679688 494.269531 374.882812 471.472656 L 374.882812 471.46875 C 352.085938 448.675781 340.683594 418.785156 340.683594 388.902344 C 340.683594 359.015625 352.085938 329.125 374.882812 306.332031 L 374.882812 306.328125 Z M 386.441406 317.882812 C 406.046875 298.277344 431.753906 288.464844 457.457031 288.464844 C 483.160156 288.464844 508.863281 298.277344 528.472656 317.882812 L 528.476562 317.882812 C 548.082031 337.492188 557.890625 363.195312 557.890625 388.902344 C 557.890625 414.605469 548.082031 440.304688 528.476562 459.914062 L 528.472656 459.917969 C 508.863281 479.527344 483.160156 489.332031 457.457031 489.332031 C 431.753906 489.332031 406.046875 479.527344 386.441406 459.917969 C 366.828125 440.3125 357.023438 414.605469 357.023438 388.902344 C 357.023438 363.195312 366.828125 337.492188 386.441406 317.882812 Z M 457.457031 304.652344 C 479.019531 304.652344 500.582031 312.878906 517.03125 329.324219 L 517.03125 329.328125 C 533.476562 345.773438 541.703125 367.339844 541.703125 388.902344 C 541.703125 410.464844 533.476562 432.023438 517.03125 448.472656 C 500.582031 464.921875 479.019531 473.144531 457.457031 473.144531 C 435.894531 473.144531 414.328125 464.921875 397.882812 448.472656 C 381.4375 432.03125 373.210938 410.464844 373.210938 388.902344 C 373.210938 367.339844 381.4375 345.769531 397.882812 329.324219 C 414.328125 312.878906 435.894531 304.652344 457.457031 304.652344 Z M 591.433594 491.523438 L 586.847656 496.105469 L 564.664062 518.292969 L 560.09375 522.863281 C 560.203125 523.015625 560.328125 523.164062 560.464844 523.300781 L 560.46875 523.304688 L 636.992188 599.832031 C 641.308594 604.144531 647 606.304688 652.691406 606.304688 C 658.382812 606.304688 664.074219 604.144531 668.386719 599.832031 C 672.699219 595.519531 674.859375 589.828125 674.859375 584.136719 C 674.859375 578.429688 672.707031 572.734375 668.40625 568.421875 L 668.390625 568.4375 L 591.859375 491.910156 L 591.855469 491.910156 L 591.875 491.894531 C 591.734375 491.757812 591.589844 491.632812 591.433594 491.523438 Z M 447.960938 433.578125 L 466.957031 433.578125 L 466.957031 409.886719 C 466.957031 406.714844 468.253906 403.839844 470.328125 401.765625 C 472.40625 399.683594 475.28125 398.394531 478.449219 398.394531 L 502.140625 398.394531 L 502.140625 379.402344 L 478.449219 379.402344 C 475.316406 379.402344 472.449219 378.109375 470.359375 376.03125 L 470.328125 376 C 468.246094 373.910156 466.957031 371.039062 466.957031 367.90625 L 466.957031 344.21875 L 447.960938 344.21875 L 447.960938 367.90625 C 447.960938 371.074219 446.664062 373.957031 444.589844 376.03125 C 442.511719 378.109375 439.636719 379.402344 436.46875 379.402344 L 412.777344 379.402344 L 412.777344 398.394531 L 436.46875 398.394531 C 439.636719 398.394531 442.511719 399.683594 444.589844 401.765625 C 446.664062 403.839844 447.960938 406.714844 447.960938 409.886719 Z M 471.082031 449.765625 C 474.40625 449.765625 477.425781 448.414062 479.609375 446.226562 C 481.789062 444.046875 483.144531 441.023438 483.144531 437.703125 L 483.144531 414.582031 L 506.261719 414.582031 C 509.582031 414.582031 512.605469 413.230469 514.789062 411.046875 C 516.972656 408.863281 518.324219 405.847656 518.324219 402.523438 L 518.324219 375.273438 C 518.324219 371.949219 516.972656 368.933594 514.789062 366.75 C 512.605469 364.566406 509.582031 363.214844 506.261719 363.214844 L 483.144531 363.214844 L 483.144531 340.09375 C 483.144531 336.773438 481.789062 333.75 479.609375 331.566406 C 477.425781 329.382812 474.40625 328.03125 471.082031 328.03125 L 443.832031 328.03125 C 440.507812 328.03125 437.492188 329.382812 435.308594 331.566406 C 433.125 333.75 431.773438 336.773438 431.773438 340.09375 L 431.773438 363.214844 L 408.652344 363.214844 C 405.332031 363.214844 402.308594 364.566406 400.128906 366.75 C 397.945312 368.933594 396.589844 371.949219 396.589844 375.273438 L 396.589844 402.523438 C 396.589844 405.847656 397.945312 408.863281 400.128906 411.046875 C 402.308594 413.230469 405.332031 414.582031 408.652344 414.582031 L 431.773438 414.582031 L 431.773438 437.703125 C 431.773438 441.023438 433.125 444.046875 435.308594 446.226562 C 437.492188 448.414062 440.507812 449.765625 443.832031 449.765625 Z M 305.640625 81.808594 C 326.171875 81.808594 344.765625 90.132812 358.222656 103.585938 C 371.679688 117.046875 380.003906 135.636719 380.003906 156.167969 C 380.003906 176.699219 371.679688 195.289062 358.222656 208.746094 C 344.765625 222.203125 326.171875 230.53125 305.640625 230.53125 C 285.109375 230.53125 266.519531 222.203125 253.0625 208.746094 C 239.605469 195.289062 231.28125 176.699219 231.28125 156.167969 C 231.28125 135.636719 239.605469 117.046875 253.0625 103.589844 C 266.519531 90.132812 285.109375 81.808594 305.640625 81.808594 Z M 346.777344 115.03125 C 336.253906 104.507812 321.707031 97.996094 305.640625 97.996094 C 289.578125 97.996094 275.03125 104.507812 264.503906 115.03125 C 253.980469 125.554688 247.46875 140.101562 247.46875 156.167969 C 247.46875 172.230469 253.980469 186.78125 264.507812 197.304688 C 275.03125 207.828125 289.578125 214.34375 305.640625 214.34375 C 321.707031 214.34375 336.253906 207.828125 346.777344 197.304688 C 357.304688 186.78125 363.816406 172.230469 363.816406 156.167969 C 363.816406 140.101562 357.304688 125.554688 346.777344 115.03125 Z M 346.777344 115.03125 " fill-opacity="1" fill-rule="evenodd"/></g></svg>