<svg xmlns="http://www.w3.org/2000/svg" xmlns:xlink="http://www.w3.org/1999/xlink" width="1080" zoomAndPan="magnify" viewBox="0 0 810 809.999993" height="1080" preserveAspectRatio="xMidYMid meet" version="1.0"><defs><clipPath id="db1d55e18a"><path d="M 116.628906 115.90625 L 693.378906 115.90625 L 693.378906 694.15625 L 116.628906 694.15625 Z M 116.628906 115.90625 " clip-rule="nonzero"/></clipPath></defs><g clip-path="url(#db1d55e18a)"><path fill="#134295" d="M 607.136719 521.511719 C 606.855469 522.023438 606.960938 522.65625 607.394531 523.027344 C 617.566406 531.636719 639.296875 550.777344 672.578125 580.441406 C 684.183594 590.789062 690.933594 603.800781 692.839844 619.484375 C 699.554688 674.871094 642.945312 712.769531 593.5625 684.417969 C 588.339844 681.40625 581.4375 675.003906 572.84375 665.210938 C 557.277344 647.492188 540.21875 628.609375 521.664062 608.566406 C 521.050781 607.902344 520.050781 607.761719 519.261719 608.222656 C 505.050781 616.703125 490.007812 623.332031 474.140625 628.117188 C 472.890625 628.488281 471.953125 629.523438 471.710938 630.800781 C 469.3125 643.378906 467.070312 654.902344 464.996094 665.382812 C 462.054688 680.1875 461.394531 690.589844 446.765625 692.050781 C 419.769531 694.699219 392.257812 694.820312 364.234375 692.417969 C 352.628906 691.390625 348.515625 684.21875 346.6875 672.785156 C 345.3125 664.097656 342.65625 650.273438 338.714844 631.3125 C 338.449219 629.988281 337.484375 628.917969 336.199219 628.511719 C 321.546875 623.765625 307.402344 617.6875 293.761719 610.277344 C 293.128906 609.929688 292.351562 609.976562 291.761719 610.394531 C 272.671875 624.015625 259.449219 633.246094 252.09375 638.089844 C 241.492188 645.089844 232.261719 639.40625 223.316406 630.917969 C 204.511719 613.042969 188.261719 596.460938 174.566406 581.160156 C 166.449219 572.089844 166.21875 562.375 173.878906 552.007812 C 175.347656 550.007812 183.691406 538.03125 198.914062 516.082031 C 199.25 515.597656 199.316406 514.972656 199.085938 514.425781 L 180.796875 471.726562 C 180.667969 471.421875 180.390625 471.195312 180.050781 471.125 C 165.898438 468.1875 150.238281 465.160156 133.070312 462.035156 C 120.898438 459.804688 117.953125 448.488281 117.382812 436.367188 C 116.007812 406.835938 116.523438 382.304688 118.925781 362.777344 C 119.953125 354.296875 125.257812 349.09375 134.84375 347.171875 C 159.53125 342.234375 174.554688 339.226562 179.90625 338.140625 C 180.867188 337.945312 181.675781 337.269531 182.050781 336.335938 L 198.738281 294.039062 C 198.882812 293.644531 198.828125 293.199219 198.597656 292.839844 C 197.375 291.046875 189.011719 279.292969 173.503906 257.574219 C 162.703125 242.425781 169.761719 232.109375 181.734375 219.761719 C 193.109375 208.023438 205.398438 195.726562 218.601562 182.863281 C 232.230469 169.601562 239.148438 162.285156 256.035156 173.949219 C 263.296875 178.941406 275.070312 187.246094 291.359375 198.871094 C 292.230469 199.5 293.375 199.578125 294.300781 199.070312 C 307.371094 192.019531 321.355469 186.21875 336.253906 181.664062 C 337.515625 181.28125 338.449219 180.214844 338.652344 178.921875 C 340.253906 169.757812 343.207031 154.554688 347.511719 133.308594 C 349.742188 122.3125 356.25 116.691406 367.03125 116.445312 C 394.828125 115.777344 418.890625 115.765625 439.21875 116.414062 C 453.960938 116.902344 459.964844 121.300781 462.933594 135.792969 C 465.164062 146.632812 467.878906 160.859375 471.082031 178.464844 C 471.304688 179.710938 472.210938 180.726562 473.425781 181.09375 C 487.847656 185.476562 501.871094 191.304688 515.492188 198.582031 C 516.480469 199.113281 517.671875 199.066406 518.605469 198.464844 C 528.535156 191.972656 540.21875 183.949219 553.671875 174.402344 C 563.503906 167.429688 573.277344 164.570312 581.992188 173.285156 C 609.425781 200.695312 627.542969 217.273438 638.433594 231.703125 C 647.347656 243.539062 641.175781 250.480469 633.117188 262.167969 C 620.085938 281.089844 613.046875 291.320312 611.996094 292.867188 C 611.640625 293.402344 611.574219 294.089844 611.824219 294.695312 L 629.171875 336.566406 C 629.507812 337.40625 630.242188 338.007812 631.117188 338.167969 C 648.492188 341.652344 664.226562 345.007812 678.324219 348.226562 C 689.445312 350.742188 692.214844 361.574219 692.644531 373.066406 C 693.691406 400.976562 693.492188 424.480469 692.042969 443.574219 C 691.300781 453.347656 686.6875 459.222656 678.210938 461.207031 C 661.292969 465.113281 645.191406 468.515625 629.914062 471.410156 C 628.925781 471.605469 628.125 472.316406 627.828125 473.269531 C 622.433594 490.601562 615.539062 506.6875 607.136719 521.511719 Z M 588.21875 504.5625 C 595.246094 490.765625 601.027344 476.066406 605.566406 460.460938 C 607.421875 454.0625 610.222656 449.773438 616.308594 448.429688 C 630.214844 445.382812 646.570312 442.246094 665.375 439.023438 C 666.585938 438.800781 667.464844 437.757812 667.460938 436.539062 L 667.460938 373.035156 C 667.46875 371.851562 666.613281 370.828125 665.433594 370.605469 C 642.894531 366.53125 627.636719 363.652344 619.652344 361.976562 C 611.910156 360.34375 608.394531 358.003906 606.078125 350 C 601.371094 333.84375 594.960938 317.867188 586.847656 302.070312 C 583.5625 295.613281 582.960938 290.695312 586.964844 284.894531 C 596.757812 270.699219 605.957031 257.269531 614.570312 244.597656 C 615.339844 243.46875 615.195312 241.957031 614.226562 240.996094 L 569.445312 196.210938 C 568.644531 195.417969 567.382812 195.308594 566.445312 195.953125 C 553.738281 204.640625 540.515625 213.769531 526.777344 223.335938 C 521.824219 226.800781 516.613281 227.003906 511.144531 223.9375 C 495.734375 215.285156 478.109375 208.179688 458.277344 202.613281 C 452.484375 200.976562 449.113281 197.621094 448.160156 192.554688 C 442.425781 162.371094 439.273438 146.121094 438.703125 143.796875 C 438.371094 142.371094 437.09375 141.367188 435.617188 141.371094 L 373.203125 141.371094 C 372.027344 141.363281 371.027344 142.199219 370.828125 143.339844 C 368.828125 155.230469 365.867188 171.503906 361.941406 192.15625 C 360.949219 197.453125 357.527344 200.949219 351.679688 202.644531 C 333.199219 208 316.578125 214.925781 301.8125 223.421875 C 296.328125 226.5625 291.070312 227.820312 286.125 224.621094 C 273.285156 216.273438 259.042969 206.539062 243.402344 195.414062 C 242.808594 194.984375 241.984375 195.054688 241.460938 195.585938 L 195.625 241.421875 C 194.785156 242.257812 194.675781 243.589844 195.367188 244.566406 C 207.390625 261.621094 217.152344 275.691406 224.660156 286.78125 C 227.34375 290.761719 227.785156 294.371094 225.972656 297.613281 C 216.371094 314.875 209.171875 332.328125 204.367188 349.972656 C 202.457031 357.003906 200.339844 359.945312 193.308594 361.402344 C 180.601562 364.089844 164.3125 367.082031 144.441406 370.375 C 143.320312 370.558594 142.5 371.527344 142.5 372.664062 L 142.5 436.566406 C 142.496094 437.8125 143.390625 438.875 144.617188 439.082031 C 162.789062 442.28125 178.375 445.207031 191.367188 447.855469 C 197.84375 449.191406 201.855469 452.144531 203.398438 456.71875 C 211.398438 480.613281 218.886719 498.882812 225.859375 511.535156 C 227.933594 515.34375 227.402344 519.449219 224.257812 523.851562 C 216.140625 535.226562 206.570312 548.964844 195.539062 565.066406 C 195.054688 565.761719 195.140625 566.699219 195.738281 567.296875 L 241.574219 613.136719 C 242.136719 613.699219 243.027344 613.773438 243.691406 613.308594 C 258.53125 603 272.011719 593.824219 284.128906 585.785156 C 289.328125 582.335938 294.152344 581.859375 298.589844 584.359375 C 317.011719 594.761719 334.929688 602.542969 352.34375 607.707031 C 357.6875 609.28125 361.316406 612.824219 362.257812 618.082031 C 367.039062 644.96875 370.039062 660.945312 371.261719 666.011719 C 371.558594 667.203125 372.617188 668.035156 373.832031 668.042969 L 435.757812 668.042969 C 437.394531 668.039062 438.800781 666.863281 439.105469 665.242188 C 442.398438 646.914062 445.523438 631.183594 448.480469 618.054688 C 449.773438 612.320312 452.90625 608.730469 457.882812 607.28125 C 474.019531 602.632812 489.230469 596.648438 503.519531 589.332031 C 503.867188 589.175781 504.011719 588.761719 503.84375 588.402344 C 503.8125 588.335938 503.773438 588.273438 503.71875 588.21875 L 478.171875 559.980469 C 477.511719 559.25 476.441406 559.039062 475.542969 559.464844 C 361.148438 613.855469 232.351562 524.539062 236.636719 399.988281 C 238.636719 342.796875 265.730469 295.582031 312.882812 263.058594 C 331.078125 250.484375 351.050781 242.386719 372.808594 238.765625 C 467.058594 223.046875 552.363281 279.609375 571.078125 373.894531 C 578.070312 409.105469 573.84375 443.335938 558.390625 476.582031 C 557.964844 477.484375 558.175781 478.550781 558.90625 479.210938 L 586.652344 504.851562 C 587.058594 505.226562 587.691406 505.199219 588.066406 504.792969 C 588.121094 504.722656 588.175781 504.644531 588.21875 504.5625 Z M 539.320312 458.746094 C 559.46875 402.929688 546.351562 341.027344 504.429688 301.1875 C 461.703125 260.542969 398.75 248.398438 344.308594 274.292969 C 297.472656 296.554688 265.378906 342.453125 261.980469 393.671875 C 259.046875 438.101562 273.355469 476.25 304.902344 508.105469 C 345.226562 548.804688 404.292969 562.265625 457.59375 540.289062 C 458.25 540.015625 458.5625 539.265625 458.289062 538.609375 C 458.230469 538.46875 458.152344 538.339844 458.050781 538.230469 L 431.871094 509.277344 C 430.777344 508.054688 429.109375 507.511719 427.5 507.847656 C 378.429688 517.910156 331.019531 495.386719 309.304688 450.886719 C 298.539062 428.84375 296.75 403.738281 303.929688 375.578125 C 306.558594 365.34375 314.5625 352.628906 326.335938 363.742188 C 340.757812 377.328125 356.589844 392.457031 373.828125 409.128906 C 374.683594 409.984375 375.957031 410.285156 377.117188 409.902344 L 397.777344 403.128906 C 399.144531 402.683594 400.214844 401.597656 400.664062 400.214844 L 407.0625 379.78125 C 407.382812 378.746094 407.09375 377.621094 406.320312 376.867188 C 384.011719 354.824219 368.503906 339.550781 359.796875 331.050781 C 353.207031 324.613281 352.863281 318.136719 358.769531 311.621094 C 360.652344 309.523438 364.253906 307.695312 369.570312 306.132812 C 417.609375 292.042969 465.304688 307.273438 492.683594 348.6875 C 508.210938 372.140625 512.789062 399.113281 506.429688 429.597656 C 506.195312 430.691406 506.5625 431.839844 507.398438 432.628906 L 536.460938 459.433594 C 537.15625 460.101562 538.265625 460.070312 538.941406 459.359375 C 539.109375 459.183594 539.238281 458.976562 539.320312 458.746094 Z M 324.105469 398.46875 C 323.480469 422.609375 330.355469 442.605469 344.742188 458.460938 C 366.488281 482.46875 398.324219 491.386719 429.332031 480.839844 C 434.570312 479.046875 439.429688 480.601562 443.90625 485.496094 C 495.914062 542.371094 547.5 599.132812 598.652344 655.777344 C 614.199219 672.984375 641.144531 673.242188 656.578125 656.636719 C 667.628906 644.746094 670.714844 630.851562 665.839844 614.9375 C 662.722656 604.820312 654.949219 597.390625 646.863281 590.445312 C 616.152344 564.019531 564.722656 518.148438 492.578125 452.832031 C 485.242188 446.199219 481.105469 442.078125 480.171875 440.457031 C 479.023438 438.398438 478.570312 436.03125 478.886719 433.710938 C 479.65625 428.28125 483.285156 417.847656 483.601562 409.875 C 484.78125 377.902344 471.875 353.6875 444.878906 337.226562 C 428.933594 327.488281 411.820312 324.039062 393.554688 326.878906 C 393.132812 326.953125 392.851562 327.355469 392.929688 327.773438 C 392.957031 327.933594 393.035156 328.082031 393.152344 328.195312 C 404.390625 338.902344 416.558594 350.820312 429.644531 363.945312 C 433.8125 368.136719 435.128906 372.84375 433.585938 378.066406 C 427.566406 398.625 423.8125 411.085938 422.328125 415.449219 C 420.726562 420.097656 417.113281 423.355469 411.496094 425.222656 C 403.226562 427.988281 392.261719 431.425781 378.601562 435.542969 C 370.171875 438.085938 365.945312 436.511719 359.65625 430.539062 C 347.539062 419.050781 336.300781 408.113281 325.9375 397.730469 C 325.53125 397.304688 324.859375 397.304688 324.4375 397.722656 C 324.234375 397.921875 324.117188 398.191406 324.105469 398.46875 Z M 324.105469 398.46875 " fill-opacity="1" fill-rule="nonzero"/></g><path fill="#134295" d="M 633.628906 612.890625 C 634.421875 613.542969 635.140625 614.257812 635.796875 615.042969 C 636.449219 615.828125 637.019531 616.667969 637.511719 617.558594 C 638 618.449219 638.402344 619.375 638.710938 620.339844 C 639.019531 621.300781 639.234375 622.28125 639.351562 623.277344 C 639.46875 624.277344 639.484375 625.269531 639.40625 626.265625 C 639.324219 627.257812 639.144531 628.230469 638.871094 629.183594 C 638.59375 630.132812 638.226562 631.046875 637.769531 631.921875 C 637.308594 632.792969 636.769531 633.609375 636.144531 634.371094 C 635.515625 635.132812 634.820312 635.824219 634.054688 636.445312 C 633.285156 637.0625 632.460938 637.601562 631.582031 638.054688 C 630.703125 638.511719 629.78125 638.875 628.824219 639.148438 C 627.867188 639.417969 626.886719 639.59375 625.882812 639.675781 C 624.882812 639.753906 623.882812 639.734375 622.875 639.617188 C 621.871094 639.5 620.886719 639.289062 619.917969 638.980469 C 618.945312 638.671875 618.011719 638.273438 617.117188 637.785156 C 616.21875 637.296875 615.375 636.730469 614.585938 636.078125 C 613.796875 635.429688 613.074219 634.714844 612.421875 633.929688 C 611.769531 633.144531 611.195312 632.304688 610.703125 631.414062 C 610.214844 630.523438 609.8125 629.59375 609.503906 628.632812 C 609.195312 627.671875 608.980469 626.691406 608.863281 625.691406 C 608.75 624.695312 608.730469 623.699219 608.8125 622.707031 C 608.890625 621.714844 609.070312 620.742188 609.34375 619.789062 C 609.621094 618.835938 609.988281 617.925781 610.445312 617.050781 C 610.90625 616.175781 611.449219 615.359375 612.074219 614.597656 C 612.699219 613.839844 613.394531 613.148438 614.160156 612.527344 C 614.929688 611.90625 615.753906 611.371094 616.632812 610.914062 C 617.511719 610.460938 618.433594 610.097656 619.390625 609.824219 C 620.351562 609.550781 621.332031 609.375 622.332031 609.296875 C 623.332031 609.21875 624.335938 609.238281 625.339844 609.351562 C 626.34375 609.46875 627.332031 609.683594 628.300781 609.992188 C 629.269531 610.300781 630.203125 610.699219 631.097656 611.1875 C 631.996094 611.675781 632.839844 612.242188 633.628906 612.890625 Z M 633.628906 612.890625 " fill-opacity="1" fill-rule="nonzero"/></svg>