<svg xmlns="http://www.w3.org/2000/svg" xmlns:xlink="http://www.w3.org/1999/xlink" width="1080" zoomAndPan="magnify" viewBox="0 0 810 817.92" height="1080" preserveAspectRatio="xMidYMid meet" version="1.0"><path fill="#05439a" d="M 632.164062 445.632812 L 629.722656 451.628906 C 620.128906 475.136719 610.253906 499.492188 601.085938 523.636719 C 586.898438 561.140625 582.492188 592.417969 587.222656 622.070312 C 588.847656 630.988281 591.027344 639.765625 593.761719 648.40625 C 594.601562 651.285156 595.449219 654.148438 596.253906 657.027344 C 596.539062 657.628906 596.757812 658.253906 596.914062 658.902344 C 597.070312 659.550781 597.15625 660.207031 597.171875 660.875 C 597.191406 661.539062 597.136719 662.199219 597.015625 662.855469 C 596.894531 663.511719 596.707031 664.148438 596.453125 664.761719 C 596.199219 665.378906 595.886719 665.960938 595.507812 666.511719 C 595.132812 667.0625 594.703125 667.566406 594.222656 668.027344 C 593.738281 668.488281 593.214844 668.890625 592.648438 669.242188 C 592.082031 669.59375 591.484375 669.878906 590.855469 670.105469 C 589.914062 670.472656 588.941406 670.707031 587.9375 670.808594 C 586.308594 671.746094 584.558594 672.203125 582.683594 672.179688 L 368.226562 672.179688 C 366.59375 672.597656 364.933594 672.828125 363.25 672.867188 C 361.566406 672.90625 359.898438 672.753906 358.246094 672.414062 C 356.59375 672.070312 355.003906 671.546875 353.472656 670.839844 C 351.945312 670.132812 350.511719 669.261719 349.183594 668.230469 C 344.464844 662.386719 341.148438 655.835938 339.238281 648.578125 C 338.6875 647.167969 338.257812 645.96875 337.980469 645.191406 C 332.296875 647.300781 326.503906 649.050781 320.601562 650.441406 C 314.703125 651.828125 308.738281 652.84375 302.707031 653.488281 C 296.679688 654.128906 290.632812 654.394531 284.574219 654.285156 C 278.511719 654.175781 272.480469 653.6875 266.480469 652.824219 C 259.9375 652.335938 253.519531 651.179688 247.21875 649.347656 C 240.917969 647.519531 234.878906 645.054688 229.09375 641.960938 C 226.535156 640.183594 224.183594 638.167969 222.035156 635.910156 C 219.886719 633.652344 217.992188 631.203125 216.34375 628.558594 C 214.699219 625.914062 213.335938 623.128906 212.257812 620.207031 C 211.179688 617.285156 210.410156 614.28125 209.945312 611.199219 C 207.484375 598.054688 209.382812 584.8125 208.238281 571.59375 C 207.515625 564.601562 205.855469 557.835938 203.261719 551.300781 C 200.671875 544.765625 197.242188 538.707031 192.972656 533.117188 C 192.242188 532.125 191.707031 531.035156 191.367188 529.851562 L 190.132812 528.25 C 189.164062 526.601562 188.683594 524.824219 188.6875 522.910156 L 188.6875 514.75 C 188.679688 514.222656 188.726562 513.699219 188.828125 513.179688 C 186.90625 509.914062 185.984375 506.386719 186.0625 502.597656 C 186.140625 501.5 186.144531 500.40625 186.0625 499.308594 C 185.984375 498.214844 185.824219 497.128906 185.589844 496.054688 C 185.351562 494.984375 185.039062 493.933594 184.648438 492.90625 C 184.257812 491.878906 183.792969 490.882812 183.257812 489.925781 C 182.726562 488.964844 182.125 488.046875 181.457031 487.175781 C 180.785156 486.304688 180.058594 485.484375 179.269531 484.71875 C 178.484375 483.953125 177.644531 483.246094 176.753906 482.601562 C 175.863281 481.957031 174.933594 481.382812 173.957031 480.871094 C 173.089844 480.421875 172.25 479.929688 171.429688 479.394531 C 170.613281 478.859375 169.824219 478.285156 169.0625 477.671875 C 168.300781 477.058594 167.574219 476.410156 166.875 475.726562 C 166.179688 475.042969 165.515625 474.324219 164.890625 473.574219 C 164.265625 472.824219 163.679688 472.042969 163.128906 471.234375 C 162.582031 470.425781 162.074219 469.59375 161.605469 468.734375 C 161.140625 467.875 160.71875 466.996094 160.339844 466.097656 C 159.957031 465.195312 159.625 464.28125 159.335938 463.347656 C 159.046875 462.414062 158.804688 461.46875 158.609375 460.507812 C 158.414062 459.550781 158.269531 458.585938 158.167969 457.617188 C 158.070312 456.644531 158.019531 455.667969 158.015625 454.691406 C 158.011719 453.714844 158.054688 452.738281 158.148438 451.765625 C 158.242188 450.792969 158.382812 449.828125 158.574219 448.871094 C 158.761719 447.910156 158.996094 446.964844 159.28125 446.03125 C 159.5625 445.09375 159.890625 444.175781 160.265625 443.273438 C 160.636719 442.367188 161.054688 441.488281 161.515625 440.625 C 165.386719 432.21875 170.28125 424.457031 176.207031 417.347656 C 179.140625 413.875 181.832031 410.21875 184.273438 406.386719 C 186.714844 402.550781 188.890625 398.570312 190.796875 394.441406 C 192.703125 390.3125 194.324219 386.074219 195.660156 381.730469 C 196.996094 377.382812 198.039062 372.96875 198.78125 368.480469 C 200.542969 357.195312 201.277344 345.535156 201.996094 334.265625 C 202.484375 326.507812 202.992188 318.523438 203.824219 310.683594 C 211.300781 240.417969 246.90625 190.992188 309.625 163.789062 C 328.597656 155.933594 348.105469 149.78125 368.148438 145.332031 C 388.191406 140.878906 408.46875 138.191406 428.980469 137.273438 C 435.152344 137.214844 441.316406 137.414062 447.472656 137.875 C 453.628906 138.335938 459.753906 139.054688 465.851562 140.03125 C 471.945312 141.007812 477.992188 142.242188 483.980469 143.730469 C 489.972656 145.21875 495.890625 146.957031 501.738281 148.945312 C 507.582031 150.929688 513.332031 153.160156 518.988281 155.636719 C 524.644531 158.109375 530.1875 160.816406 535.613281 163.757812 C 541.042969 166.699219 546.335938 169.863281 551.496094 173.253906 C 556.65625 176.640625 561.664062 180.242188 566.523438 184.054688 C 571.257812 187.785156 575.828125 191.714844 580.226562 195.835938 C 584.628906 199.960938 588.84375 204.265625 592.875 208.75 C 596.90625 213.234375 600.738281 217.882812 604.371094 222.695312 C 608.003906 227.507812 611.425781 232.464844 614.636719 237.570312 C 617.84375 242.675781 620.828125 247.910156 623.589844 253.269531 C 626.351562 258.632812 628.878906 264.101562 631.171875 269.679688 C 633.464844 275.253906 635.511719 280.921875 637.320312 286.671875 C 639.128906 292.425781 640.6875 298.246094 641.996094 304.132812 C 643.457031 309.964844 644.6875 315.84375 645.6875 321.773438 C 646.6875 327.699219 647.453125 333.660156 647.980469 339.648438 C 648.511719 345.636719 648.804688 351.636719 648.859375 357.648438 C 648.917969 363.660156 648.738281 369.667969 648.320312 375.664062 C 647.902344 381.660156 647.25 387.632812 646.363281 393.578125 C 645.476562 399.527344 644.355469 405.429688 643.003906 411.285156 C 641.652344 417.144531 640.070312 422.941406 638.257812 428.671875 C 636.449219 434.40625 634.417969 440.058594 632.164062 445.632812 Z M 624.359375 314.789062 C 607.496094 231.234375 543.632812 170.152344 461.636719 159.175781 C 454.667969 158.308594 447.671875 157.722656 440.65625 157.410156 C 433.640625 157.097656 426.621094 157.066406 419.601562 157.308594 C 412.582031 157.554688 405.585938 158.074219 398.609375 158.875 C 391.628906 159.671875 384.695312 160.746094 377.800781 162.09375 C 370.910156 163.445312 364.078125 165.0625 357.316406 166.953125 C 350.550781 168.839844 343.871094 170.996094 337.277344 173.414062 C 330.683594 175.832031 324.195312 178.507812 317.8125 181.4375 C 311.429688 184.371094 305.175781 187.550781 299.046875 190.980469 C 294.628906 193.261719 290.355469 195.78125 286.21875 198.535156 C 282.082031 201.289062 278.109375 204.261719 274.300781 207.457031 C 270.492188 210.648438 266.871094 214.042969 263.4375 217.632812 C 260 221.226562 256.777344 224.996094 253.757812 228.945312 C 250.742188 232.894531 247.949219 237 245.386719 241.257812 C 242.820312 245.515625 240.5 249.898438 238.417969 254.414062 C 236.339844 258.925781 234.515625 263.542969 232.945312 268.257812 C 231.371094 272.972656 230.066406 277.757812 229.023438 282.617188 C 224.722656 301.488281 222.371094 320.59375 221.972656 339.941406 C 221.953125 344.136719 221.757812 348.324219 221.386719 352.503906 C 221.015625 356.683594 220.472656 360.839844 219.753906 364.972656 C 219.035156 369.105469 218.144531 373.199219 217.082031 377.257812 C 216.019531 381.316406 214.789062 385.324219 213.390625 389.277344 C 211.996094 393.234375 210.433594 397.125 208.710938 400.949219 C 206.984375 404.773438 205.105469 408.519531 203.066406 412.183594 C 201.027344 415.851562 198.839844 419.425781 196.503906 422.910156 C 194.167969 426.394531 191.6875 429.773438 189.066406 433.050781 C 185.800781 436.929688 182.933594 441.085938 180.460938 445.511719 C 175.59375 454.726562 177.003906 459.9375 185.851562 465.417969 C 187.335938 466.226562 188.757812 467.132812 190.121094 468.136719 C 191.480469 469.136719 192.769531 470.226562 193.980469 471.402344 C 195.195312 472.582031 196.324219 473.835938 197.367188 475.164062 C 198.410156 476.496094 199.359375 477.890625 200.210938 479.351562 C 201.066406 480.808594 201.816406 482.320312 202.464844 483.882812 C 203.113281 485.441406 203.652344 487.039062 204.085938 488.675781 C 204.515625 490.308594 204.835938 491.964844 205.042969 493.644531 C 205.25 495.320312 205.339844 497.007812 205.316406 498.695312 C 205.214844 499.484375 205.265625 500.265625 205.472656 501.035156 C 205.679688 501.804688 206.023438 502.503906 206.511719 503.132812 C 207.171875 503.617188 207.902344 503.957031 208.703125 504.152344 C 209.5 504.347656 210.304688 504.382812 211.117188 504.253906 C 221.089844 504.058594 231.429688 504.066406 241.871094 504.253906 C 243.402344 504.1875 244.886719 504.421875 246.324219 504.953125 C 247.761719 505.488281 249.039062 506.28125 250.15625 507.332031 C 251.027344 508.316406 251.667969 509.433594 252.070312 510.683594 C 252.476562 511.9375 252.613281 513.214844 252.484375 514.523438 C 252.246094 520.429688 248.429688 523.695312 241.742188 523.695312 C 238.527344 523.695312 235.308594 523.710938 232.085938 523.742188 C 225.511719 523.785156 218.761719 523.785156 212.046875 523.679688 C 215.179688 528.34375 217.921875 533.222656 220.269531 538.328125 C 222.617188 543.429688 224.539062 548.6875 226.035156 554.101562 C 227.535156 559.515625 228.589844 565.015625 229.203125 570.597656 C 229.8125 576.183594 229.972656 581.777344 229.679688 587.386719 C 229.589844 597.839844 228.976562 609.960938 235.230469 618.972656 C 241.582031 628.144531 255.6875 629.765625 265.871094 631.492188 C 309.054688 638.808594 357.652344 624.925781 376.917969 582.535156 C 382.558594 570.15625 400.785156 580.898438 395.183594 593.214844 C 393.121094 597.722656 390.722656 602.050781 387.992188 606.191406 C 385.261719 610.332031 382.230469 614.242188 378.898438 617.917969 C 375.566406 621.589844 371.976562 624.992188 368.121094 628.113281 C 364.265625 631.238281 360.195312 634.046875 355.910156 636.542969 C 358.308594 641.628906 360.402344 646.59375 362.175781 651.039062 L 573.390625 651.039062 C 570.613281 641.675781 568.59375 632.152344 567.324219 622.464844 C 566.058594 612.78125 565.5625 603.058594 565.835938 593.296875 C 566.109375 583.53125 567.152344 573.851562 568.960938 564.253906 C 570.769531 554.65625 573.324219 545.257812 576.621094 536.066406 C 587.042969 505.554688 599.054688 475.023438 610.671875 445.507812 L 615.148438 434.113281 C 618.835938 424.671875 621.804688 415.007812 624.0625 405.125 C 626.320312 395.238281 627.839844 385.246094 628.617188 375.136719 C 629.398438 365.027344 629.433594 354.917969 628.71875 344.804688 C 628.003906 334.695312 626.554688 324.6875 624.359375 314.789062 Z M 564.933594 327.488281 C 564.371094 326.992188 563.90625 326.417969 563.542969 325.761719 C 563.179688 325.109375 562.9375 324.410156 562.8125 323.671875 C 562.691406 322.933594 562.695312 322.195312 562.828125 321.457031 C 562.960938 320.71875 563.214844 320.023438 563.589844 319.375 C 564.128906 318.183594 564.605469 316.964844 565.023438 315.726562 C 565.4375 314.484375 565.789062 313.226562 566.078125 311.949219 C 566.363281 310.671875 566.585938 309.382812 566.742188 308.085938 C 566.898438 306.785156 566.988281 305.480469 567.007812 304.171875 C 567.03125 302.863281 566.988281 301.558594 566.875 300.253906 C 566.765625 298.949219 566.585938 297.65625 566.34375 296.367188 C 566.101562 295.082031 565.792969 293.8125 565.417969 292.558594 C 565.042969 291.304688 564.609375 290.070312 564.109375 288.863281 C 563.609375 287.652344 563.050781 286.472656 562.429688 285.320312 C 561.808594 284.167969 561.132812 283.046875 560.398438 281.964844 C 559.664062 280.882812 558.875 279.839844 558.035156 278.835938 C 557.195312 277.832031 556.304688 276.875 555.363281 275.964844 C 554.425781 275.050781 553.441406 274.191406 552.414062 273.378906 C 551.390625 272.570312 550.324219 271.8125 549.21875 271.109375 C 548.113281 270.40625 546.976562 269.761719 545.808594 269.175781 C 544.636719 268.589844 543.441406 268.066406 542.214844 267.601562 C 541.824219 267.5 541.441406 267.367188 541.074219 267.199219 C 540.703125 267.03125 540.351562 266.832031 540.015625 266.605469 C 539.679688 266.375 539.367188 266.121094 539.078125 265.835938 C 538.789062 265.550781 538.523438 265.246094 538.289062 264.917969 C 538.050781 264.585938 537.84375 264.238281 537.667969 263.875 C 537.492188 263.507812 537.351562 263.128906 537.238281 262.738281 C 537.128906 262.351562 537.054688 261.953125 537.011719 261.550781 C 536.972656 261.144531 536.964844 260.742188 536.996094 260.335938 C 536.941406 259.03125 536.824219 257.734375 536.644531 256.4375 C 536.46875 255.144531 536.230469 253.863281 535.933594 252.589844 C 535.636719 251.320312 535.28125 250.0625 534.867188 248.824219 C 534.453125 247.585938 533.980469 246.371094 533.453125 245.175781 C 532.925781 243.980469 532.34375 242.8125 531.707031 241.671875 C 531.070312 240.53125 530.382812 239.425781 529.644531 238.347656 C 528.90625 237.269531 528.117188 236.230469 527.28125 235.230469 C 526.445312 234.226562 525.5625 233.261719 524.636719 232.34375 C 523.710938 231.421875 522.746094 230.546875 521.738281 229.714844 C 520.730469 228.882812 519.6875 228.101562 518.605469 227.367188 C 517.527344 226.632812 516.414062 225.953125 515.269531 225.320312 C 514.128906 224.691406 512.957031 224.117188 511.757812 223.59375 C 510.5625 223.074219 509.34375 222.609375 508.101562 222.203125 C 506.859375 221.792969 505.605469 221.445312 504.332031 221.15625 C 503.058594 220.863281 501.773438 220.632812 500.480469 220.460938 C 499.183594 220.292969 497.882812 220.183594 496.578125 220.132812 C 495.367188 220.113281 494.199219 219.871094 493.078125 219.40625 C 491.957031 218.941406 490.960938 218.289062 490.089844 217.445312 C 479.941406 201.15625 468.929688 193.539062 455.527344 194.105469 C 451.875 193.589844 448.253906 193.777344 444.671875 194.660156 C 443.464844 195.09375 442.125 195.65625 442.125 195.65625 C 441.003906 196.144531 439.875 196.785156 438.113281 197.773438 C 436.847656 198.484375 435.625 199.261719 434.445312 200.105469 C 433.804688 200.53125 433.167969 200.953125 432.539062 201.441406 L 432.398438 201.511719 L 432.039062 201.871094 C 429.839844 203.707031 427.792969 205.703125 425.902344 207.859375 C 425.832031 207.929688 425.132812 208.777344 424.984375 208.921875 C 424.863281 209.125 424.722656 209.3125 424.5625 209.488281 C 421.363281 214.566406 419.273438 220.066406 418.292969 225.984375 L 418.292969 230.21875 C 417.792969 230.632812 417.253906 230.984375 416.671875 231.269531 C 407.539062 235.167969 398.226562 238.578125 388.738281 241.503906 C 387.519531 241.863281 386.277344 241.972656 385.015625 241.824219 C 383.753906 241.679688 382.570312 241.289062 381.464844 240.65625 C 375.972656 236.628906 370.609375 232.050781 365.53125 227.609375 L 362.210938 224.789062 C 361.957031 224.5 361.683594 224.226562 361.402344 223.972656 C 361.117188 223.714844 360.816406 223.472656 360.507812 223.25 C 360.195312 223.023438 359.871094 222.820312 359.539062 222.628906 C 359.203125 222.441406 358.859375 222.273438 358.507812 222.121094 C 358.15625 221.972656 357.796875 221.839844 357.425781 221.730469 C 357.058594 221.621094 356.6875 221.53125 356.3125 221.460938 C 355.933594 221.390625 355.554688 221.34375 355.171875 221.316406 C 354.789062 221.289062 354.40625 221.28125 354.023438 221.296875 C 353.636719 221.3125 353.257812 221.347656 352.878906 221.40625 C 352.5 221.464844 352.125 221.542969 351.753906 221.640625 C 351.382812 221.738281 351.019531 221.859375 350.660156 221.996094 C 350.304688 222.136719 349.953125 222.296875 349.613281 222.472656 C 349.273438 222.652344 348.945312 222.847656 348.628906 223.0625 C 348.308594 223.277344 348.003906 223.507812 347.710938 223.753906 C 347.417969 224.003906 347.140625 224.265625 346.875 224.542969 C 346.613281 224.824219 346.367188 225.117188 346.136719 225.421875 C 337.945312 233.746094 329.480469 242.203125 321.371094 250.320312 L 320.453125 251.160156 C 319.878906 251.617188 319.355469 252.128906 318.890625 252.695312 C 318.425781 253.261719 318.027344 253.875 317.695312 254.527344 C 317.359375 255.183594 317.101562 255.863281 316.917969 256.574219 C 316.730469 257.285156 316.621094 258.007812 316.59375 258.738281 C 316.5625 259.472656 316.613281 260.203125 316.738281 260.925781 C 316.867188 261.648438 317.070312 262.347656 317.347656 263.027344 C 317.628906 263.707031 317.976562 264.347656 318.394531 264.949219 C 318.8125 265.554688 319.289062 266.105469 319.824219 266.609375 L 324.472656 272.109375 C 328.640625 276.914062 332.9375 281.914062 336.675781 287.140625 C 337.359375 288.378906 337.777344 289.699219 337.925781 291.105469 C 338.070312 292.511719 337.9375 293.894531 337.523438 295.246094 C 336.347656 298.890625 334.988281 302.46875 333.4375 305.972656 C 332.167969 309.070312 330.820312 312.320312 329.761719 315.566406 C 328.351562 319.71875 326.660156 321.066406 322.710938 321.207031 C 316.855469 321.351562 311.007812 321.914062 305.292969 322.480469 C 302.472656 322.695312 299.714844 322.972656 296.902344 323.183594 C 296.515625 323.164062 296.132812 323.167969 295.75 323.191406 C 295.367188 323.214844 294.988281 323.257812 294.609375 323.324219 C 294.230469 323.390625 293.855469 323.476562 293.488281 323.582031 C 293.117188 323.6875 292.753906 323.8125 292.398438 323.957031 C 292.042969 324.101562 291.699219 324.265625 291.359375 324.449219 C 291.023438 324.632812 290.695312 324.832031 290.378906 325.050781 C 290.0625 325.269531 289.761719 325.503906 289.472656 325.757812 C 289.179688 326.007812 288.90625 326.273438 288.644531 326.554688 C 288.382812 326.835938 288.136719 327.132812 287.910156 327.441406 C 287.679688 327.746094 287.46875 328.066406 287.273438 328.398438 C 287.078125 328.730469 286.902344 329.070312 286.746094 329.421875 C 286.589844 329.769531 286.449219 330.128906 286.332031 330.496094 C 286.214844 330.859375 286.117188 331.230469 286.039062 331.605469 C 285.960938 331.984375 285.902344 332.363281 285.867188 332.742188 C 285.832031 333.125 285.816406 333.507812 285.820312 333.894531 C 285.824219 334.277344 285.851562 334.660156 285.898438 335.039062 C 285.96875 345.761719 285.96875 356.6875 285.898438 367.199219 L 285.898438 371.367188 C 285.851562 371.746094 285.824219 372.128906 285.820312 372.515625 C 285.816406 372.898438 285.835938 373.28125 285.875 373.664062 C 285.910156 374.046875 285.972656 374.425781 286.050781 374.800781 C 286.132812 375.175781 286.230469 375.546875 286.355469 375.910156 C 286.476562 376.277344 286.617188 376.632812 286.777344 376.980469 C 286.9375 377.332031 287.117188 377.671875 287.316406 378 C 287.515625 378.328125 287.730469 378.644531 287.964844 378.949219 C 288.199219 379.253906 288.445312 379.546875 288.710938 379.824219 C 288.980469 380.101562 289.257812 380.363281 289.554688 380.609375 C 289.847656 380.855469 290.15625 381.085938 290.476562 381.296875 C 290.796875 381.511719 291.128906 381.703125 291.46875 381.878906 C 291.8125 382.054688 292.160156 382.210938 292.519531 382.347656 C 292.878906 382.484375 293.246094 382.601562 293.617188 382.699219 C 293.988281 382.792969 294.363281 382.871094 294.746094 382.925781 C 295.125 382.980469 295.507812 383.011719 295.890625 383.023438 C 296.277344 383.035156 296.660156 383.027344 297.042969 382.996094 C 302.820312 383.28125 308.679688 383.851562 314.316406 384.34375 L 321.164062 384.972656 C 321.648438 384.9375 322.132812 384.945312 322.613281 384.996094 C 323.097656 385.050781 323.570312 385.144531 324.035156 385.28125 C 324.5 385.421875 324.949219 385.597656 325.382812 385.816406 C 325.816406 386.035156 326.226562 386.292969 326.613281 386.585938 C 326.996094 386.878906 327.355469 387.207031 327.683594 387.5625 C 328.007812 387.921875 328.300781 388.304688 328.558594 388.71875 C 328.816406 389.128906 329.035156 389.558594 329.214844 390.007812 C 329.394531 390.460938 329.535156 390.921875 329.628906 391.398438 C 331.285156 397.460938 333.707031 403.199219 336.902344 408.609375 C 337.277344 409.085938 337.605469 409.59375 337.878906 410.136719 C 338.152344 410.675781 338.367188 411.242188 338.527344 411.828125 C 338.683594 412.414062 338.78125 413.007812 338.820312 413.613281 C 338.855469 414.21875 338.832031 414.824219 338.746094 415.425781 C 338.660156 416.023438 338.515625 416.609375 338.308594 417.183594 C 338.101562 417.753906 337.839844 418.296875 337.523438 418.816406 C 337.207031 419.332031 336.84375 419.8125 336.425781 420.257812 C 336.011719 420.699219 335.554688 421.097656 335.0625 421.445312 C 331.449219 425.054688 328.0625 428.863281 324.902344 432.875 C 323.140625 434.988281 321.453125 437.105469 319.613281 439.152344 C 319.078125 439.652344 318.597656 440.207031 318.179688 440.808594 C 317.761719 441.414062 317.410156 442.054688 317.128906 442.734375 C 316.847656 443.414062 316.640625 444.113281 316.507812 444.835938 C 316.375 445.558594 316.320312 446.289062 316.34375 447.023438 C 316.367188 447.757812 316.46875 448.480469 316.648438 449.191406 C 316.824219 449.90625 317.078125 450.59375 317.402344 451.25 C 317.726562 451.910156 318.117188 452.527344 318.570312 453.105469 C 319.027344 453.679688 319.539062 454.203125 320.105469 454.667969 C 328.789062 463.621094 337.742188 472.515625 346.980469 481.542969 C 347.4375 482.070312 347.945312 482.546875 348.5 482.96875 C 349.058594 483.390625 349.652344 483.75 350.285156 484.046875 C 350.917969 484.34375 351.574219 484.574219 352.257812 484.730469 C 352.9375 484.890625 353.628906 484.976562 354.324219 484.988281 C 355.023438 485 355.71875 484.941406 356.402344 484.808594 C 357.089844 484.675781 357.753906 484.472656 358.398438 484.199219 C 359.042969 483.925781 359.648438 483.589844 360.222656 483.1875 C 360.792969 482.785156 361.316406 482.328125 361.792969 481.816406 L 384.21875 463.0625 C 386.757812 464.113281 389.152344 465.179688 391.628906 466.160156 C 398.894531 469.199219 411.027344 472.089844 417.792969 475.265625 C 417.976562 475.359375 418.140625 475.476562 418.292969 475.617188 L 418.292969 504.058594 C 418.414062 504.402344 418.578125 504.730469 418.777344 505.039062 C 423.371094 513.15625 434.789062 514.992188 441.703125 515.476562 C 443.363281 515.421875 444.933594 515.015625 446.410156 514.261719 C 447.890625 513.511719 449.144531 512.480469 450.167969 511.175781 C 453.050781 511.773438 455.960938 512.105469 458.90625 512.167969 C 461.851562 512.230469 464.773438 512.023438 467.679688 511.546875 C 470.585938 511.074219 473.421875 510.335938 476.191406 509.335938 C 478.960938 508.339844 481.617188 507.097656 484.160156 505.609375 C 489.890625 502.335938 495.882812 499.652344 502.144531 497.5625 C 530.21875 488.46875 544.042969 472.808594 545.53125 448.398438 C 545.59375 447.277344 546.441406 445.230469 549.96875 442.128906 C 560.976562 432.316406 572.890625 418.78125 567.671875 400.511719 C 567.011719 397.945312 566.605469 395.34375 566.449219 392.699219 C 566.296875 390.054688 566.398438 387.421875 566.753906 384.796875 C 567.113281 382.171875 567.71875 379.609375 568.574219 377.101562 C 569.429688 374.59375 570.519531 372.195312 571.839844 369.898438 C 572.636719 368.171875 573.296875 366.390625 573.828125 364.5625 C 574.359375 362.734375 574.753906 360.878906 575.007812 358.992188 C 575.261719 357.105469 575.375 355.210938 575.351562 353.308594 C 575.324219 351.40625 575.15625 349.515625 574.847656 347.636719 C 574.542969 345.757812 574.097656 343.914062 573.515625 342.101562 C 572.933594 340.289062 572.222656 338.527344 571.378906 336.820312 C 570.535156 335.117188 569.570312 333.480469 568.484375 331.917969 C 567.398438 330.355469 566.203125 328.878906 564.898438 327.492188 Z M 418.257812 404.511719 C 402.175781 393.507812 385.035156 374.394531 385.523438 352.457031 C 385.945312 331.296875 401.675781 312.460938 418.257812 301.464844 Z M 393.632812 444.644531 C 383.195312 439.082031 381.289062 438.863281 372.472656 446.902344 C 368.3125 450.71875 364.007812 454.316406 360.207031 457.5625 C 358.859375 458.6875 357.519531 459.816406 356.328125 460.867188 L 339.601562 446.273438 L 344.894531 440.136719 C 349.34375 434.917969 353.5 429.980469 357.941406 425.183594 C 358.429688 424.675781 358.871094 424.125 359.265625 423.542969 C 359.660156 422.957031 360.003906 422.34375 360.292969 421.699219 C 360.585938 421.054688 360.820312 420.394531 361 419.710938 C 361.183594 419.027344 361.304688 418.335938 361.367188 417.632812 C 361.429688 416.929688 361.433594 416.226562 361.378906 415.523438 C 361.324219 414.820312 361.210938 414.125 361.042969 413.441406 C 360.871094 412.757812 360.640625 412.089844 360.359375 411.445312 C 360.074219 410.796875 359.742188 410.179688 359.351562 409.589844 C 354.773438 399.292969 350.394531 388.359375 346.097656 376.15625 C 345.953125 375.492188 345.75 374.847656 345.496094 374.21875 C 345.242188 373.589844 344.9375 372.988281 344.582031 372.410156 C 344.226562 371.832031 343.828125 371.285156 343.382812 370.773438 C 342.9375 370.261719 342.453125 369.789062 341.929688 369.359375 C 341.40625 368.929688 340.851562 368.542969 340.261719 368.203125 C 339.675781 367.863281 339.0625 367.574219 338.429688 367.335938 C 337.792969 367.101562 337.144531 366.914062 336.476562 366.785156 C 335.8125 366.65625 335.140625 366.582031 334.460938 366.5625 C 325.433594 366.078125 317.890625 365.503906 310.339844 364.523438 C 308.503906 364.242188 305.753906 362.261719 305.691406 361.421875 C 305.324219 356.582031 305.207031 351.742188 305.335938 346.890625 C 305.40625 345.339844 305.40625 343.789062 305.40625 342.234375 L 314.082031 341.390625 C 321.207031 340.683594 327.972656 339.976562 334.671875 339.554688 C 335.347656 339.527344 336.015625 339.449219 336.675781 339.3125 C 337.339844 339.175781 337.984375 338.984375 338.613281 338.742188 C 339.242188 338.496094 339.847656 338.203125 340.429688 337.859375 C 341.011719 337.515625 341.558594 337.128906 342.078125 336.691406 C 342.59375 336.257812 343.070312 335.785156 343.511719 335.269531 C 343.949219 334.757812 344.339844 334.210938 344.691406 333.632812 C 345.039062 333.054688 345.335938 332.453125 345.585938 331.824219 C 345.832031 331.195312 346.027344 330.550781 346.171875 329.890625 C 350.472656 317.617188 354.710938 306.898438 359.21875 297.164062 C 359.589844 296.5625 359.910156 295.9375 360.179688 295.285156 C 360.449219 294.632812 360.664062 293.964844 360.824219 293.277344 C 360.984375 292.59375 361.089844 291.898438 361.136719 291.195312 C 361.183594 290.488281 361.175781 289.789062 361.109375 289.085938 C 361.042969 288.382812 360.917969 287.691406 360.742188 287.007812 C 360.5625 286.328125 360.328125 285.664062 360.042969 285.019531 C 359.757812 284.375 359.417969 283.757812 359.03125 283.167969 C 358.644531 282.578125 358.214844 282.023438 357.738281 281.503906 C 353.222656 276.425781 348.992188 271.207031 344.828125 266.121094 C 343.207031 264.222656 341.65625 262.25 340.105469 260.414062 L 355.691406 244.828125 C 357.527344 246.378906 359.359375 247.859375 361.195312 249.402344 C 366.0625 253.359375 371 257.523438 375.800781 261.746094 C 376.335938 262.261719 376.910156 262.726562 377.527344 263.140625 C 378.140625 263.550781 378.789062 263.910156 379.46875 264.207031 C 380.144531 264.507812 380.84375 264.746094 381.5625 264.921875 C 382.285156 265.097656 383.015625 265.210938 383.753906 265.261719 C 384.492188 265.308594 385.230469 265.292969 385.96875 265.210938 C 386.707031 265.128906 387.429688 264.984375 388.140625 264.773438 C 388.851562 264.566406 389.539062 264.296875 390.203125 263.96875 C 390.867188 263.636719 391.5 263.253906 392.09375 262.8125 C 398.929688 259.214844 410.570312 255.964844 418.265625 253.007812 L 418.265625 279.105469 C 390.050781 292.445312 365.003906 322.773438 366.066406 355.363281 C 367.195312 389.640625 393.511719 416.164062 418.265625 427.511719 L 418.265625 453.976562 C 409.867188 451.363281 401.65625 448.253906 393.632812 444.644531 Z M 547.753906 373.339844 C 540.628906 381.101562 519.398438 383.5 512.273438 377.363281 C 511.15625 376.410156 510.308594 375.257812 509.742188 373.90625 C 501.90625 351.96875 482.9375 346.320312 467.273438 343.929688 C 465.636719 343.523438 463.984375 343.453125 462.316406 343.722656 C 460.652344 343.988281 459.105469 344.574219 457.679688 345.472656 C 456.675781 346.304688 455.886719 347.308594 455.3125 348.476562 C 454.734375 349.644531 454.417969 350.878906 454.363281 352.179688 C 453.453125 360.574219 459.9375 362.550781 464.945312 363.324219 C 476.730469 365.089844 484.058594 368.398438 488.007812 373.90625 C 489.054688 375.765625 489.902344 377.710938 490.554688 379.742188 C 491.207031 381.773438 491.652344 383.851562 491.890625 385.96875 C 492.125 388.089844 492.148438 390.214844 491.957031 392.339844 C 491.769531 394.464844 491.367188 396.546875 490.761719 398.59375 C 490.761719 398.664062 490.695312 398.734375 490.695312 398.796875 C 490.59375 399 490.546875 399.214844 490.554688 399.441406 C 490.390625 400.078125 490.289062 400.730469 490.25 401.386719 C 490.210938 402.046875 490.238281 402.703125 490.332031 403.359375 C 490.425781 404.011719 490.582031 404.652344 490.800781 405.277344 C 491.019531 405.898438 491.296875 406.496094 491.636719 407.0625 C 491.972656 407.628906 492.363281 408.160156 492.804688 408.652344 C 493.25 409.140625 493.734375 409.585938 494.265625 409.976562 C 494.792969 410.371094 495.359375 410.710938 495.957031 410.992188 C 496.554688 411.277344 497.171875 411.496094 497.8125 411.65625 C 498.445312 411.882812 499.09375 412.039062 499.757812 412.125 C 500.421875 412.210938 501.089844 412.226562 501.757812 412.167969 C 502.425781 412.109375 503.082031 411.980469 503.71875 411.785156 C 504.359375 411.585938 504.972656 411.320312 505.554688 410.988281 C 506.140625 410.65625 506.679688 410.265625 507.179688 409.820312 C 507.675781 409.371094 508.121094 408.875 508.515625 408.332031 C 508.90625 407.785156 509.234375 407.207031 509.5 406.589844 C 509.769531 405.976562 509.964844 405.339844 510.09375 404.679688 C 510.511719 403.269531 511.003906 401.921875 511.433594 400.582031 L 511.859375 399.3125 C 513.542969 399.460938 515.242188 399.671875 516.867188 399.8125 C 520.964844 400.296875 525.082031 400.511719 529.210938 400.449219 C 533.5 400.195312 537.757812 399.652344 541.976562 398.820312 C 543.519531 398.542969 545.148438 398.324219 546.773438 398.050781 C 547.28125 399.09375 547.691406 400.175781 548.011719 401.292969 C 548.328125 402.410156 548.542969 403.546875 548.660156 404.699219 C 548.777344 405.855469 548.792969 407.011719 548.707031 408.171875 C 548.621094 409.328125 548.429688 410.46875 548.144531 411.59375 C 547.855469 412.71875 547.46875 413.808594 546.988281 414.867188 C 546.507812 415.925781 545.9375 416.929688 545.28125 417.886719 C 544.621094 418.84375 543.886719 419.734375 543.070312 420.5625 C 542.253906 421.386719 541.371094 422.136719 540.425781 422.808594 C 540.21875 422.3125 540 421.8125 539.796875 421.25 C 539.089844 419.421875 538.316406 417.589844 537.53125 415.824219 C 536.988281 414.265625 536.152344 412.882812 535.023438 411.679688 C 533.894531 410.472656 532.570312 409.550781 531.050781 408.90625 C 529.777344 408.515625 528.476562 408.390625 527.148438 408.539062 C 525.824219 408.6875 524.582031 409.089844 523.425781 409.75 C 523.101562 409.890625 522.785156 410.046875 522.480469 410.21875 C 522.175781 410.394531 521.878906 410.582031 521.59375 410.789062 C 521.308594 410.996094 521.035156 411.214844 520.773438 411.453125 C 520.511719 411.6875 520.265625 411.9375 520.035156 412.203125 C 519.800781 412.464844 519.582031 412.742188 519.378906 413.03125 C 519.175781 413.316406 518.992188 413.617188 518.820312 413.925781 C 518.652344 414.234375 518.5 414.550781 518.367188 414.875 C 518.230469 415.199219 518.117188 415.53125 518.019531 415.871094 C 517.921875 416.207031 517.84375 416.550781 517.78125 416.898438 C 517.722656 417.246094 517.683594 417.59375 517.660156 417.945312 C 517.640625 418.296875 517.640625 418.648438 517.65625 419 C 517.675781 419.351562 517.710938 419.699219 517.769531 420.046875 C 517.828125 420.394531 517.902344 420.738281 517.996094 421.078125 C 518.089844 421.417969 518.203125 421.75 518.335938 422.074219 C 518.46875 422.402344 518.617188 422.71875 518.785156 423.03125 C 518.949219 423.339844 519.132812 423.640625 519.335938 423.929688 L 519.476562 424.21875 C 521.195312 427.703125 522.703125 431.277344 523.996094 434.941406 C 529.214844 450.457031 523.855469 466.46875 511.722656 471.617188 C 510.800781 470.425781 509.960938 469.15625 509.105469 467.878906 C 508.324219 466.351562 507.339844 464.972656 506.148438 463.734375 C 504.960938 462.496094 503.617188 461.457031 502.125 460.613281 C 501.089844 460.160156 500.007812 459.925781 498.878906 459.910156 C 497.890625 459.90625 496.949219 460.117188 496.058594 460.539062 C 494.453125 461.601562 493.101562 462.929688 492.003906 464.511719 C 490.90625 466.097656 490.140625 467.828125 489.710938 469.707031 C 489.527344 470.191406 489.320312 470.660156 489.082031 471.117188 C 488.921875 471.332031 488.804688 471.566406 488.730469 471.824219 C 487.765625 474.050781 486.59375 476.15625 485.210938 478.148438 C 483.824219 480.140625 482.257812 481.976562 480.507812 483.652344 C 478.757812 485.328125 476.855469 486.816406 474.808594 488.117188 C 472.757812 489.414062 470.601562 490.496094 468.335938 491.359375 C 466.035156 492.015625 463.691406 492.433594 461.304688 492.613281 C 458.917969 492.796875 456.535156 492.738281 454.160156 492.441406 C 451.785156 492.144531 449.464844 491.613281 447.195312 490.851562 C 444.929688 490.085938 442.757812 489.105469 440.6875 487.90625 C 439.757812 487.347656 438.984375 486.625 438.355469 485.742188 C 437.730469 484.859375 437.308594 483.886719 437.089844 482.828125 C 436.808594 475.773438 436.808594 468.71875 436.878906 461.3125 C 436.878906 459.050781 436.949219 456.726562 436.949219 454.402344 C 438.148438 454.613281 439.285156 454.816406 440.40625 455.105469 C 443.4375 455.664062 446.265625 456.234375 449.152344 456.515625 C 465.804688 458.214844 477.507812 453.277344 485.125 441.351562 C 485.351562 441.085938 485.566406 440.804688 485.761719 440.515625 C 485.960938 440.222656 486.140625 439.921875 486.304688 439.613281 C 486.46875 439.300781 486.617188 438.984375 486.746094 438.65625 C 486.875 438.328125 486.984375 437.996094 487.078125 437.65625 C 487.171875 437.316406 487.246094 436.976562 487.300781 436.628906 C 487.355469 436.28125 487.390625 435.933594 487.40625 435.582031 C 487.421875 435.230469 487.421875 434.878906 487.398438 434.527344 C 487.375 434.175781 487.335938 433.828125 487.273438 433.484375 C 487.214844 433.136719 487.132812 432.792969 487.035156 432.457031 C 486.9375 432.121094 486.820312 431.789062 486.6875 431.464844 C 486.554688 431.140625 486.402344 430.824219 486.230469 430.515625 C 486.0625 430.207031 485.878906 429.910156 485.675781 429.621094 C 485.472656 429.332031 485.257812 429.058594 485.023438 428.792969 C 484.792969 428.53125 484.546875 428.28125 484.285156 428.042969 C 484.027344 427.808594 483.753906 427.585938 483.46875 427.378906 C 483.183594 427.171875 482.890625 426.980469 482.585938 426.808594 C 481.605469 426.019531 480.507812 425.457031 479.292969 425.125 C 478.078125 424.796875 476.847656 424.722656 475.601562 424.902344 C 474.207031 425.265625 472.949219 425.894531 471.820312 426.792969 C 470.691406 427.6875 469.792969 428.769531 469.121094 430.046875 C 468.644531 430.777344 468.113281 431.464844 467.527344 432.113281 C 466.941406 432.757812 466.308594 433.355469 465.628906 433.902344 C 464.949219 434.449219 464.230469 434.941406 463.472656 435.375 C 462.714844 435.808594 461.929688 436.179688 461.113281 436.488281 C 460.296875 436.796875 459.460938 437.039062 458.605469 437.214844 C 457.75 437.394531 456.886719 437.503906 456.015625 437.542969 C 455.144531 437.582031 454.273438 437.554688 453.40625 437.457031 C 452.539062 437.359375 451.6875 437.195312 450.84375 436.964844 C 447.488281 436.367188 444.21875 435.453125 441.039062 434.226562 L 437.441406 432.964844 L 437.441406 409.195312 C 439.976562 408.699219 442.445312 408.277344 444.847656 407.847656 C 450.976562 406.726562 456.839844 405.667969 462.625 404.179688 C 464.066406 403.894531 465.390625 403.328125 466.597656 402.480469 C 467.800781 401.632812 468.78125 400.574219 469.535156 399.3125 C 470.070312 398.179688 470.351562 396.984375 470.378906 395.730469 C 470.402344 394.476562 470.167969 393.273438 469.675781 392.117188 C 469.589844 391.761719 469.480469 391.410156 469.355469 391.0625 C 469.226562 390.71875 469.078125 390.382812 468.914062 390.054688 C 468.75 389.726562 468.566406 389.40625 468.363281 389.097656 C 468.160156 388.792969 467.945312 388.496094 467.707031 388.214844 C 467.472656 387.929688 467.222656 387.660156 466.957031 387.40625 C 466.691406 387.152344 466.414062 386.910156 466.121094 386.6875 C 465.828125 386.464844 465.523438 386.257812 465.210938 386.070312 C 464.894531 385.882812 464.570312 385.710938 464.234375 385.558594 C 463.898438 385.40625 463.554688 385.273438 463.207031 385.160156 C 462.855469 385.046875 462.5 384.953125 462.140625 384.878906 C 461.78125 384.804688 461.417969 384.753906 461.050781 384.71875 C 460.683594 384.6875 460.316406 384.675781 459.949219 384.683594 C 459.582031 384.695312 459.214844 384.722656 458.851562 384.773438 C 458.484375 384.824219 458.125 384.894531 457.769531 384.988281 C 457.410156 385.078125 457.0625 385.191406 456.71875 385.320312 C 456.375 385.453125 456.039062 385.601562 455.710938 385.769531 C 451.835938 386.886719 447.882812 387.566406 443.855469 387.808594 L 442.585938 387.886719 C 441.824219 388.054688 441.0625 388.058594 440.296875 387.898438 C 439.535156 387.738281 438.839844 387.425781 438.210938 386.960938 C 437.609375 386.191406 437.1875 385.335938 436.941406 384.394531 C 436.699219 383.449219 436.648438 382.496094 436.800781 381.53125 C 437.082031 363.96875 437.082031 346.835938 436.800781 330.609375 C 436.675781 329.570312 436.773438 328.550781 437.09375 327.550781 C 437.414062 326.550781 437.925781 325.664062 438.636719 324.890625 C 439.210938 324.429688 439.855469 324.113281 440.574219 323.941406 C 441.292969 323.769531 442.011719 323.757812 442.734375 323.910156 C 450.289062 324.945312 457.644531 326.78125 464.804688 329.414062 C 470.234375 331.378906 475.738281 332.296875 479.261719 326.167969 C 479.957031 325.078125 480.410156 323.898438 480.617188 322.625 C 480.824219 321.347656 480.773438 320.085938 480.460938 318.832031 C 479.878906 317.265625 479.011719 315.875 477.859375 314.664062 C 476.710938 313.449219 475.367188 312.511719 473.832031 311.847656 C 471.136719 310.21875 468.320312 308.832031 465.382812 307.691406 C 462.445312 306.550781 459.433594 305.671875 456.34375 305.050781 C 453.253906 304.433594 450.132812 304.082031 446.984375 304.003906 C 443.832031 303.925781 440.699219 304.121094 437.582031 304.582031 L 437.582031 285.890625 C 439.136719 286.027344 440.679688 286.167969 442.160156 286.308594 C 445.886719 286.820312 449.625 287.054688 453.382812 287.011719 C 454.375 287.074219 455.363281 287.054688 456.347656 286.960938 C 457.335938 286.863281 458.308594 286.691406 459.269531 286.445312 C 460.226562 286.195312 461.164062 285.875 462.074219 285.480469 C 462.980469 285.085938 463.855469 284.621094 464.691406 284.089844 C 465.527344 283.558594 466.320312 282.964844 467.0625 282.308594 C 467.804688 281.652344 468.492188 280.945312 469.125 280.179688 C 469.757812 279.414062 470.328125 278.609375 470.832031 277.753906 C 471.335938 276.902344 471.773438 276.015625 472.140625 275.09375 C 472.414062 274.164062 472.570312 273.21875 472.609375 272.253906 C 472.648438 271.285156 472.570312 270.332031 472.375 269.382812 C 472.175781 268.4375 471.871094 267.527344 471.449219 266.65625 C 471.027344 265.785156 470.507812 264.980469 469.890625 264.238281 C 468.75 263.457031 467.519531 262.886719 466.1875 262.523438 C 464.859375 262.160156 463.503906 262.027344 462.128906 262.121094 C 461.523438 262.078125 460.933594 262.152344 460.359375 262.347656 C 459.785156 262.542969 459.269531 262.839844 458.816406 263.242188 C 452.953125 269.660156 447.382812 267.828125 440.820312 265.648438 C 439.558594 265.289062 438.28125 264.867188 437.011719 264.449219 C 437.011719 261.132812 436.941406 257.742188 436.941406 254.425781 C 436.871094 246.109375 436.800781 238.28125 437.082031 230.238281 C 437.140625 229.242188 437.285156 228.253906 437.515625 227.28125 C 437.746094 226.304688 438.054688 225.359375 438.449219 224.4375 C 438.839844 223.519531 439.308594 222.636719 439.855469 221.796875 C 440.398438 220.957031 441.011719 220.171875 441.691406 219.4375 C 442.371094 218.703125 443.109375 218.03125 443.902344 217.425781 C 444.699219 216.820312 445.539062 216.285156 446.429688 215.824219 C 447.316406 215.359375 448.234375 214.976562 449.191406 214.675781 C 450.144531 214.371094 451.117188 214.152344 452.105469 214.015625 C 453.050781 213.832031 454 213.722656 454.960938 213.699219 C 455.921875 213.671875 456.878906 213.722656 457.832031 213.859375 C 458.78125 213.992188 459.714844 214.203125 460.632812 214.492188 C 461.546875 214.785156 462.433594 215.148438 463.289062 215.585938 C 464.144531 216.023438 464.957031 216.53125 465.726562 217.105469 C 466.496094 217.679688 467.214844 218.316406 467.878906 219.011719 C 468.539062 219.703125 469.140625 220.449219 469.679688 221.246094 C 470.21875 222.042969 470.6875 222.875 471.089844 223.75 C 472.398438 227.964844 472.820312 232.269531 472.351562 236.660156 C 472.070312 241.453125 472.640625 246.609375 478.699219 248.585938 C 479.285156 248.800781 479.890625 248.960938 480.507812 249.058594 C 481.125 249.160156 481.746094 249.199219 482.371094 249.179688 C 482.996094 249.160156 483.613281 249.082031 484.222656 248.945312 C 484.835938 248.808594 485.425781 248.613281 486 248.363281 C 486.570312 248.109375 487.117188 247.808594 487.632812 247.453125 C 488.144531 247.097656 488.621094 246.695312 489.0625 246.25 C 489.5 245.804688 489.890625 245.320312 490.234375 244.796875 C 490.582031 244.273438 490.875 243.726562 491.113281 243.148438 C 491.808594 242.199219 492.675781 241.453125 493.714844 240.910156 C 494.757812 240.367188 495.863281 240.078125 497.039062 240.050781 C 497.714844 240.097656 498.386719 240.171875 499.058594 240.28125 C 499.726562 240.386719 500.390625 240.527344 501.046875 240.695312 C 501.707031 240.863281 502.351562 241.0625 502.992188 241.292969 C 503.628906 241.519531 504.257812 241.777344 504.871094 242.0625 C 505.488281 242.347656 506.089844 242.664062 506.675781 243.003906 C 507.261719 243.347656 507.828125 243.714844 508.382812 244.109375 C 508.933594 244.5 509.46875 244.921875 509.980469 245.363281 C 510.496094 245.804688 510.988281 246.273438 511.457031 246.761719 C 511.929688 247.25 512.375 247.757812 512.800781 248.289062 C 513.222656 248.816406 513.621094 249.363281 513.996094 249.929688 C 514.371094 250.496094 514.714844 251.078125 515.035156 251.679688 C 515.355469 252.277344 515.648438 252.886719 515.910156 253.511719 C 516.175781 254.136719 516.410156 254.773438 516.613281 255.421875 C 516.816406 256.066406 516.992188 256.722656 517.136719 257.386719 C 517.28125 258.046875 517.394531 258.714844 517.480469 259.390625 C 517.5625 260.0625 517.613281 260.738281 517.632812 261.417969 C 517.675781 262.164062 517.679688 262.914062 517.648438 263.660156 C 517.613281 264.410156 517.546875 265.15625 517.4375 265.898438 C 517.332031 266.640625 517.1875 267.375 517.007812 268.101562 C 516.824219 268.828125 516.609375 269.546875 516.359375 270.25 C 516.105469 270.957031 515.820312 271.648438 515.5 272.324219 C 515.175781 273.003906 514.824219 273.660156 514.4375 274.304688 C 514.050781 274.945312 513.632812 275.566406 513.183594 276.167969 C 512.734375 276.765625 512.257812 277.34375 511.75 277.894531 C 511.246094 278.449219 510.710938 278.976562 510.152344 279.472656 C 509.59375 279.972656 509.011719 280.445312 508.40625 280.886719 C 507.800781 281.328125 507.175781 281.738281 506.527344 282.113281 C 505.882812 282.492188 505.21875 282.839844 504.535156 283.152344 C 503.855469 283.464844 503.160156 283.742188 502.449219 283.984375 C 501.742188 284.230469 501.023438 284.4375 500.292969 284.609375 C 499.5625 284.777344 498.828125 284.914062 498.085938 285.011719 C 497.339844 285.109375 496.59375 285.171875 495.847656 285.195312 C 488.363281 286.175781 484.984375 289.558594 485.40625 295.5625 C 485.429688 296.867188 485.710938 298.117188 486.25 299.304688 C 486.789062 300.496094 487.542969 301.527344 488.511719 302.402344 C 489.863281 303.382812 491.355469 304.066406 492.976562 304.457031 C 494.601562 304.847656 496.242188 304.917969 497.890625 304.660156 C 500.796875 304.53125 503.652344 304.082031 506.460938 303.3125 C 509.265625 302.542969 511.953125 301.476562 514.519531 300.109375 C 517.089844 298.746094 519.476562 297.113281 521.679688 295.214844 C 523.886719 293.316406 525.855469 291.199219 527.585938 288.863281 C 531.175781 283.925781 533.933594 284.410156 538.371094 287.300781 C 539.332031 287.898438 540.230469 288.574219 541.074219 289.332031 C 541.914062 290.085938 542.683594 290.90625 543.378906 291.796875 C 544.078125 292.6875 544.691406 293.628906 545.222656 294.628906 C 545.753906 295.625 546.191406 296.664062 546.542969 297.738281 C 546.890625 298.8125 547.144531 299.910156 547.300781 301.027344 C 547.457031 302.148438 547.515625 303.273438 547.476562 304.402344 C 547.433594 305.53125 547.296875 306.648438 547.058594 307.753906 C 546.824219 308.859375 546.492188 309.933594 546.066406 310.980469 C 545.683594 312.0625 545.230469 313.113281 544.703125 314.132812 C 544.175781 315.152344 543.582031 316.128906 542.917969 317.066406 C 542.257812 318.003906 541.535156 318.890625 540.75 319.730469 C 539.964844 320.566406 539.125 321.347656 538.234375 322.070312 C 537.34375 322.792969 536.40625 323.449219 535.421875 324.042969 C 534.441406 324.636719 533.421875 325.15625 532.367188 325.609375 C 531.3125 326.0625 530.234375 326.441406 529.125 326.746094 C 528.019531 327.046875 526.898438 327.273438 525.761719 327.421875 C 523.933594 327.453125 522.1875 327.84375 520.519531 328.589844 C 518.851562 329.335938 517.398438 330.382812 516.160156 331.726562 C 515.441406 332.761719 514.960938 333.898438 514.714844 335.136719 C 514.46875 336.375 514.480469 337.609375 514.75 338.84375 C 514.859375 340.222656 515.261719 341.515625 515.957031 342.714844 C 516.648438 343.914062 517.566406 344.90625 518.707031 345.691406 C 520.253906 346.566406 521.910156 347.085938 523.675781 347.261719 C 525.445312 347.433594 527.171875 347.238281 528.855469 346.679688 C 533.726562 345.3125 538.503906 343.664062 543.183594 341.742188 C 545.085938 340.957031 547.054688 340.183594 549.035156 339.484375 C 549.960938 340.1875 550.796875 340.980469 551.554688 341.863281 C 552.308594 342.746094 552.960938 343.695312 553.515625 344.71875 C 554.066406 345.738281 554.507812 346.804688 554.832031 347.917969 C 555.15625 349.035156 555.363281 350.167969 555.449219 351.328125 C 555.574219 353.328125 555.5 355.316406 555.226562 357.300781 C 554.953125 359.285156 554.488281 361.222656 553.828125 363.113281 C 553.167969 365.003906 552.324219 366.808594 551.300781 368.53125 C 550.28125 370.253906 549.097656 371.855469 547.753906 373.339844 Z M 547.753906 373.339844 " fill-opacity="1" fill-rule="nonzero"/></svg>