<svg xmlns="http://www.w3.org/2000/svg" xmlns:xlink="http://www.w3.org/1999/xlink" width="1080" zoomAndPan="magnify" viewBox="0 0 810 817.92" height="1080" preserveAspectRatio="xMidYMid meet" version="1.0"><defs><clipPath id="d2591c1c29"><path d="M 193 241 L 617 241 L 617 728.929688 L 193 728.929688 Z M 193 241 " clip-rule="nonzero"/></clipPath></defs><g clip-path="url(#d2591c1c29)"><path fill="#05439a" d="M 610.519531 650.421875 L 478.3125 402.9375 L 478.3125 316.277344 C 479.472656 316.277344 480.632812 316.222656 481.785156 316.113281 C 482.941406 316.007812 484.089844 315.847656 485.230469 315.636719 C 486.371094 315.425781 487.5 315.164062 488.617188 314.851562 C 489.734375 314.539062 490.835938 314.175781 491.917969 313.761719 C 493.003906 313.351562 494.066406 312.886719 495.105469 312.378906 C 496.148438 311.871094 497.167969 311.3125 498.160156 310.710938 C 499.148438 310.109375 500.113281 309.464844 501.046875 308.777344 C 501.980469 308.085938 502.878906 307.359375 503.746094 306.585938 C 504.613281 305.816406 505.445312 305.007812 506.238281 304.164062 C 507.03125 303.316406 507.785156 302.4375 508.5 301.523438 C 509.214844 300.609375 509.882812 299.664062 510.511719 298.6875 C 511.140625 297.714844 511.722656 296.710938 512.261719 295.683594 C 512.796875 294.65625 513.289062 293.605469 513.730469 292.53125 C 514.171875 291.460938 514.566406 290.371094 514.910156 289.261719 C 515.253906 288.152344 515.542969 287.03125 515.785156 285.898438 C 516.027344 284.765625 516.21875 283.621094 516.355469 282.46875 C 516.480469 281.171875 516.539062 279.871094 516.53125 278.570312 C 516.523438 277.265625 516.445312 275.96875 516.300781 274.671875 C 516.15625 273.375 515.941406 272.09375 515.664062 270.820312 C 515.386719 269.546875 515.042969 268.292969 514.632812 267.054688 C 514.222656 265.816406 513.75 264.605469 513.214844 263.417969 C 512.675781 262.230469 512.082031 261.074219 511.421875 259.949219 C 510.765625 258.824219 510.054688 257.734375 509.28125 256.683594 C 508.511719 255.632812 507.691406 254.625 506.8125 253.660156 C 505.9375 252.695312 505.015625 251.777344 504.042969 250.910156 C 503.074219 250.039062 502.058594 249.222656 501.003906 248.460938 C 499.945312 247.699219 498.851562 246.992188 497.722656 246.34375 C 496.59375 245.695312 495.433594 245.105469 494.242188 244.578125 C 493.050781 244.050781 491.835938 243.585938 490.59375 243.183594 C 489.355469 242.78125 488.097656 242.449219 486.824219 242.175781 C 485.546875 241.90625 484.261719 241.703125 482.964844 241.570312 C 481.671875 241.433594 480.371094 241.363281 479.066406 241.363281 L 332.046875 241.363281 C 330.878906 241.355469 329.714844 241.398438 328.550781 241.496094 C 327.386719 241.589844 326.226562 241.742188 325.078125 241.941406 C 323.925781 242.144531 322.789062 242.398438 321.660156 242.707031 C 320.53125 243.011719 319.421875 243.367188 318.324219 243.777344 C 317.230469 244.183594 316.15625 244.640625 315.105469 245.148438 C 314.050781 245.652344 313.023438 246.207031 312.019531 246.804688 C 311.015625 247.40625 310.042969 248.046875 309.101562 248.738281 C 308.15625 249.425781 307.246094 250.15625 306.367188 250.925781 C 305.492188 251.699219 304.652344 252.507812 303.847656 253.359375 C 303.042969 254.207031 302.28125 255.089844 301.558594 256.007812 C 300.835938 256.925781 300.15625 257.875 299.519531 258.855469 C 298.886719 259.835938 298.292969 260.84375 297.75 261.875 C 297.207031 262.910156 296.710938 263.964844 296.261719 265.046875 C 295.816406 266.125 295.417969 267.222656 295.070312 268.339844 C 294.722656 269.453125 294.429688 270.582031 294.183594 271.726562 C 293.941406 272.867188 293.75 274.019531 293.609375 275.179688 C 293.484375 276.476562 293.425781 277.777344 293.433594 279.078125 C 293.441406 280.382812 293.519531 281.679688 293.664062 282.976562 C 293.808594 284.269531 294.023438 285.554688 294.300781 286.828125 C 294.578125 288.101562 294.921875 289.355469 295.332031 290.59375 C 295.742188 291.828125 296.214844 293.042969 296.75 294.230469 C 297.289062 295.417969 297.882812 296.574219 298.542969 297.699219 C 299.199219 298.824219 299.910156 299.914062 300.683594 300.964844 C 301.453125 302.015625 302.277344 303.023438 303.152344 303.988281 C 304.027344 304.953125 304.949219 305.871094 305.921875 306.738281 C 306.890625 307.609375 307.90625 308.425781 308.960938 309.1875 C 310.019531 309.949219 311.113281 310.65625 312.242188 311.304688 C 313.371094 311.953125 314.53125 312.542969 315.722656 313.070312 C 316.914062 313.597656 318.128906 314.0625 319.371094 314.464844 C 320.609375 314.863281 321.867188 315.199219 323.140625 315.46875 C 324.417969 315.742188 325.703125 315.945312 327 316.078125 C 328.292969 316.214844 329.59375 316.28125 330.898438 316.285156 L 331.652344 316.285156 L 331.652344 402.9375 L 199.457031 650.421875 C 198.917969 651.425781 198.414062 652.445312 197.945312 653.480469 C 197.472656 654.519531 197.035156 655.570312 196.632812 656.632812 C 196.230469 657.699219 195.863281 658.773438 195.527344 659.863281 C 195.195312 660.953125 194.894531 662.050781 194.632812 663.15625 C 194.371094 664.265625 194.144531 665.378906 193.953125 666.503906 C 193.761719 667.625 193.605469 668.753906 193.488281 669.882812 C 193.367188 671.015625 193.285156 672.152344 193.242188 673.289062 C 193.195312 674.425781 193.1875 675.566406 193.214844 676.703125 C 193.242188 677.839844 193.308594 678.976562 193.410156 680.109375 C 193.511719 681.246094 193.648438 682.375 193.820312 683.5 C 193.996094 684.625 194.207031 685.742188 194.453125 686.855469 C 194.699219 687.964844 194.980469 689.070312 195.296875 690.164062 C 195.613281 691.253906 195.964844 692.335938 196.351562 693.410156 C 196.738281 694.480469 197.160156 695.535156 197.613281 696.578125 C 198.070312 697.625 198.558594 698.652344 199.078125 699.664062 C 199.601562 700.675781 200.152344 701.671875 200.738281 702.648438 C 201.324219 703.625 201.9375 704.582031 202.585938 705.515625 C 203.234375 706.453125 203.910156 707.367188 204.617188 708.261719 C 205.320312 709.15625 206.054688 710.023438 206.816406 710.871094 C 207.578125 711.71875 208.367188 712.539062 209.183594 713.332031 C 209.996094 714.128906 210.835938 714.894531 211.699219 715.636719 C 212.566406 716.378906 213.453125 717.089844 214.363281 717.773438 C 215.273438 718.457031 216.203125 719.113281 217.15625 719.734375 C 218.109375 720.359375 219.078125 720.953125 220.070312 721.511719 C 221.0625 722.074219 222.066406 722.605469 223.09375 723.101562 C 224.117188 723.597656 225.15625 724.058594 226.210938 724.488281 C 227.265625 724.917969 228.332031 725.3125 229.414062 725.671875 C 230.492188 726.035156 231.582031 726.359375 232.683594 726.648438 C 233.785156 726.941406 234.894531 727.195312 236.011719 727.414062 C 237.128906 727.632812 238.25 727.816406 239.378906 727.960938 C 240.507812 728.109375 241.640625 728.21875 242.777344 728.292969 C 243.914062 728.367188 245.050781 728.402344 246.191406 728.402344 L 563.757812 728.402344 C 564.894531 728.402344 566.03125 728.367188 567.167969 728.292969 C 568.304688 728.21875 569.4375 728.109375 570.566406 727.960938 C 571.695312 727.816406 572.820312 727.632812 573.9375 727.414062 C 575.054688 727.195312 576.164062 726.941406 577.261719 726.648438 C 578.363281 726.359375 579.453125 726.035156 580.535156 725.671875 C 581.613281 725.3125 582.679688 724.917969 583.734375 724.488281 C 584.789062 724.058594 585.828125 723.597656 586.855469 723.101562 C 587.878906 722.605469 588.886719 722.074219 589.875 721.515625 C 590.867188 720.953125 591.839844 720.359375 592.789062 719.734375 C 593.742188 719.113281 594.675781 718.457031 595.585938 717.773438 C 596.496094 717.089844 597.382812 716.378906 598.246094 715.636719 C 599.109375 714.894531 599.949219 714.128906 600.765625 713.332031 C 601.578125 712.539062 602.367188 711.71875 603.128906 710.871094 C 603.890625 710.023438 604.625 709.15625 605.332031 708.261719 C 606.035156 707.367188 606.714844 706.453125 607.359375 705.515625 C 608.007812 704.582031 608.625 703.625 609.207031 702.648438 C 609.792969 701.671875 610.347656 700.675781 610.867188 699.664062 C 611.390625 698.652344 611.878906 697.625 612.332031 696.582031 C 612.785156 695.535156 613.207031 694.480469 613.59375 693.410156 C 613.980469 692.335938 614.332031 691.253906 614.648438 690.164062 C 614.96875 689.070312 615.25 687.964844 615.496094 686.855469 C 615.742188 685.742188 615.949219 684.625 616.125 683.5 C 616.300781 682.375 616.4375 681.246094 616.539062 680.109375 C 616.640625 678.976562 616.703125 677.839844 616.730469 676.703125 C 616.757812 675.566406 616.75 674.425781 616.703125 673.289062 C 616.660156 672.152344 616.578125 671.015625 616.460938 669.882812 C 616.339844 668.753906 616.1875 667.625 615.996094 666.503906 C 615.804688 665.378906 615.578125 664.265625 615.3125 663.15625 C 615.050781 662.050781 614.753906 660.953125 614.417969 659.863281 C 614.085938 658.773438 613.714844 657.699219 613.3125 656.632812 C 612.910156 655.570312 612.472656 654.519531 612 653.480469 C 611.53125 652.445312 611.027344 651.425781 610.492188 650.421875 Z M 330.921875 294.84375 C 330.363281 294.84375 329.808594 294.8125 329.253906 294.753906 C 328.699219 294.695312 328.148438 294.605469 327.601562 294.492188 C 327.058594 294.375 326.519531 294.230469 325.988281 294.058594 C 325.457031 293.882812 324.9375 293.683594 324.429688 293.457031 C 323.917969 293.230469 323.421875 292.976562 322.9375 292.699219 C 322.457031 292.421875 321.988281 292.117188 321.535156 291.789062 C 321.085938 291.464844 320.652344 291.113281 320.234375 290.742188 C 319.820312 290.367188 319.425781 289.972656 319.050781 289.5625 C 318.679688 289.148438 318.328125 288.714844 318 288.265625 C 317.667969 287.8125 317.363281 287.347656 317.085938 286.863281 C 316.804688 286.382812 316.550781 285.886719 316.320312 285.378906 C 316.09375 284.867188 315.890625 284.347656 315.71875 283.820312 C 315.542969 283.289062 315.398438 282.75 315.277344 282.207031 C 315.160156 281.660156 315.070312 281.113281 315.011719 280.558594 C 314.949219 280.003906 314.917969 279.445312 314.914062 278.886719 C 314.914062 278.332031 314.9375 277.773438 314.996094 277.21875 C 315.136719 276.207031 315.371094 275.214844 315.695312 274.246094 C 316.023438 273.277344 316.433594 272.34375 316.925781 271.449219 C 317.421875 270.554688 317.996094 269.714844 318.644531 268.925781 C 319.292969 268.132812 320.007812 267.410156 320.789062 266.75 C 321.570312 266.089844 322.40625 265.507812 323.292969 265.003906 C 324.183594 264.496094 325.109375 264.074219 326.074219 263.738281 C 327.039062 263.398438 328.027344 263.152344 329.035156 262.996094 C 330.046875 262.839844 331.0625 262.777344 332.085938 262.804688 L 479.105469 262.804688 C 479.664062 262.804688 480.21875 262.835938 480.773438 262.894531 C 481.328125 262.953125 481.878906 263.042969 482.425781 263.15625 C 482.96875 263.273438 483.507812 263.417969 484.039062 263.589844 C 484.570312 263.765625 485.089844 263.964844 485.597656 264.191406 C 486.109375 264.417969 486.605469 264.667969 487.085938 264.949219 C 487.570312 265.226562 488.039062 265.53125 488.488281 265.859375 C 488.941406 266.183594 489.375 266.535156 489.789062 266.90625 C 490.203125 267.28125 490.601562 267.671875 490.972656 268.085938 C 491.347656 268.5 491.699219 268.933594 492.027344 269.382812 C 492.355469 269.835938 492.660156 270.300781 492.941406 270.785156 C 493.222656 271.265625 493.476562 271.761719 493.703125 272.269531 C 493.933594 272.78125 494.132812 273.300781 494.308594 273.828125 C 494.484375 274.359375 494.628906 274.894531 494.746094 275.441406 C 494.867188 275.988281 494.953125 276.535156 495.015625 277.089844 C 495.078125 277.644531 495.109375 278.203125 495.109375 278.757812 C 495.113281 279.316406 495.085938 279.875 495.03125 280.429688 C 494.886719 281.441406 494.652344 282.433594 494.328125 283.402344 C 494.003906 284.371094 493.59375 285.300781 493.097656 286.195312 C 492.601562 287.089844 492.03125 287.933594 491.382812 288.722656 C 490.730469 289.511719 490.015625 290.238281 489.234375 290.894531 C 488.453125 291.554688 487.621094 292.136719 486.730469 292.644531 C 485.84375 293.152344 484.917969 293.574219 483.953125 293.910156 C 482.988281 294.246094 482 294.496094 480.988281 294.652344 C 479.980469 294.808594 478.960938 294.871094 477.941406 294.84375 L 410.097656 294.84375 C 409.394531 294.84375 408.695312 294.910156 408.007812 295.050781 C 407.316406 295.1875 406.644531 295.390625 405.996094 295.660156 C 405.34375 295.929688 404.726562 296.257812 404.140625 296.648438 C 403.554688 297.039062 403.015625 297.484375 402.515625 297.984375 C 402.019531 298.480469 401.574219 299.023438 401.183594 299.609375 C 400.792969 300.191406 400.460938 300.808594 400.195312 301.460938 C 399.925781 302.109375 399.71875 302.78125 399.582031 303.472656 C 399.445312 304.164062 399.378906 304.859375 399.378906 305.5625 C 399.378906 306.265625 399.445312 306.964844 399.582031 307.65625 C 399.71875 308.34375 399.925781 309.015625 400.195312 309.664062 C 400.460938 310.316406 400.792969 310.933594 401.183594 311.519531 C 401.574219 312.105469 402.019531 312.644531 402.515625 313.144531 C 403.015625 313.640625 403.554688 314.085938 404.140625 314.476562 C 404.726562 314.867188 405.34375 315.199219 405.996094 315.46875 C 406.644531 315.738281 407.316406 315.941406 408.007812 316.078125 C 408.695312 316.214844 409.394531 316.285156 410.097656 316.285156 L 456.875 316.285156 L 456.875 405.621094 C 456.882812 407.339844 457.277344 408.960938 458.0625 410.484375 C 438.898438 416.953125 419.394531 422.140625 399.550781 426.042969 C 379.703125 429.941406 359.6875 432.527344 339.503906 433.792969 L 351.851562 410.675781 C 352.695312 409.097656 353.113281 407.410156 353.117188 405.621094 L 353.117188 316.285156 L 358.4375 316.285156 C 359.140625 316.285156 359.839844 316.214844 360.53125 316.078125 C 361.21875 315.941406 361.890625 315.738281 362.542969 315.46875 C 363.191406 315.199219 363.808594 314.867188 364.394531 314.476562 C 364.980469 314.085938 365.519531 313.640625 366.019531 313.144531 C 366.515625 312.644531 366.960938 312.105469 367.351562 311.519531 C 367.742188 310.933594 368.074219 310.316406 368.34375 309.664062 C 368.613281 309.015625 368.816406 308.34375 368.953125 307.65625 C 369.089844 306.964844 369.160156 306.265625 369.160156 305.5625 C 369.160156 304.859375 369.089844 304.164062 368.953125 303.472656 C 368.816406 302.78125 368.613281 302.109375 368.34375 301.460938 C 368.074219 300.808594 367.742188 300.191406 367.351562 299.609375 C 366.960938 299.023438 366.515625 298.480469 366.019531 297.984375 C 365.519531 297.484375 364.980469 297.039062 364.394531 296.648438 C 363.808594 296.257812 363.191406 295.929688 362.542969 295.660156 C 361.890625 295.390625 361.21875 295.1875 360.53125 295.050781 C 359.839844 294.910156 359.140625 294.84375 358.4375 294.84375 Z M 590.839844 691.640625 C 590.144531 692.808594 589.378906 693.925781 588.539062 694.992188 C 587.703125 696.058594 586.796875 697.066406 585.828125 698.019531 C 584.859375 698.96875 583.832031 699.851562 582.746094 700.667969 C 581.664062 701.480469 580.53125 702.222656 579.347656 702.894531 C 578.167969 703.5625 576.949219 704.152344 575.691406 704.660156 C 574.433594 705.171875 573.144531 705.597656 571.832031 705.941406 C 570.519531 706.285156 569.191406 706.539062 567.84375 706.710938 C 566.496094 706.878906 565.144531 706.960938 563.789062 706.957031 L 246.21875 706.957031 C 245.542969 706.957031 244.863281 706.933594 244.1875 706.890625 C 243.511719 706.84375 242.839844 706.78125 242.164062 706.691406 C 241.492188 706.605469 240.824219 706.496094 240.160156 706.367188 C 239.496094 706.234375 238.835938 706.082031 238.179688 705.910156 C 237.523438 705.738281 236.875 705.542969 236.230469 705.328125 C 235.589844 705.113281 234.953125 704.878906 234.324219 704.621094 C 233.699219 704.367188 233.078125 704.089844 232.46875 703.796875 C 231.859375 703.5 231.257812 703.183594 230.667969 702.851562 C 230.078125 702.515625 229.5 702.164062 228.933594 701.792969 C 228.367188 701.417969 227.8125 701.03125 227.269531 700.621094 C 226.730469 700.214844 226.199219 699.789062 225.6875 699.351562 C 225.171875 698.910156 224.671875 698.449219 224.1875 697.976562 C 223.703125 697.503906 223.234375 697.015625 222.777344 696.511719 C 222.324219 696.007812 221.890625 695.488281 221.46875 694.957031 C 221.046875 694.425781 220.644531 693.878906 220.261719 693.324219 C 219.875 692.765625 219.507812 692.195312 219.160156 691.613281 C 218.8125 691.03125 218.484375 690.441406 218.171875 689.835938 C 217.863281 689.234375 217.574219 688.621094 217.300781 688 C 217.03125 687.378906 216.78125 686.75 216.550781 686.113281 C 216.320312 685.472656 216.109375 684.832031 215.921875 684.179688 C 215.734375 683.527344 215.566406 682.871094 215.417969 682.210938 C 215.273438 681.546875 215.148438 680.882812 215.042969 680.210938 C 214.941406 679.542969 214.859375 678.871094 214.800781 678.195312 C 214.738281 677.519531 214.699219 676.84375 214.683594 676.164062 C 214.667969 675.488281 214.671875 674.808594 214.699219 674.132812 C 214.726562 673.453125 214.777344 672.777344 214.847656 672.105469 C 214.917969 671.429688 215.011719 670.757812 215.125 670.089844 C 215.238281 669.421875 215.375 668.757812 215.53125 668.101562 C 215.6875 667.441406 215.863281 666.785156 216.0625 666.136719 C 216.261719 665.492188 216.480469 664.847656 216.722656 664.214844 C 216.960938 663.582031 217.222656 662.957031 217.503906 662.339844 C 217.785156 661.722656 218.082031 661.113281 218.402344 660.515625 L 327.859375 455.609375 C 351.785156 454.851562 375.515625 452.304688 399.058594 447.960938 C 422.597656 443.617188 445.679688 437.527344 468.296875 429.695312 L 591.609375 660.527344 C 592.257812 661.722656 592.820312 662.957031 593.304688 664.226562 C 593.789062 665.496094 594.191406 666.792969 594.507812 668.113281 C 594.824219 669.433594 595.050781 670.773438 595.195312 672.121094 C 595.335938 673.472656 595.390625 674.828125 595.359375 676.1875 C 595.324219 677.546875 595.203125 678.898438 594.992188 680.238281 C 594.785156 681.582031 594.488281 682.90625 594.109375 684.210938 C 593.726562 685.515625 593.261719 686.789062 592.714844 688.03125 C 592.167969 689.277344 591.542969 690.480469 590.839844 691.640625 Z M 590.839844 691.640625 " fill-opacity="1" fill-rule="nonzero"/></g><path fill="#05439a" d="M 348.023438 226.472656 C 349.046875 226.472656 350.070312 226.421875 351.085938 226.324219 C 352.105469 226.222656 353.117188 226.074219 354.121094 225.871094 C 355.125 225.671875 356.113281 225.425781 357.09375 225.128906 C 358.074219 224.832031 359.035156 224.488281 359.980469 224.09375 C 360.925781 223.703125 361.847656 223.265625 362.75 222.785156 C 363.65625 222.300781 364.53125 221.777344 365.382812 221.207031 C 366.234375 220.640625 367.054688 220.03125 367.84375 219.382812 C 368.636719 218.734375 369.390625 218.046875 370.117188 217.324219 C 370.839844 216.597656 371.527344 215.84375 372.175781 215.050781 C 372.824219 214.261719 373.433594 213.4375 374 212.589844 C 374.570312 211.738281 375.09375 210.859375 375.578125 209.957031 C 376.058594 209.054688 376.496094 208.132812 376.886719 207.1875 C 377.28125 206.242188 377.625 205.28125 377.921875 204.300781 C 378.21875 203.320312 378.464844 202.328125 378.667969 201.328125 C 378.867188 200.324219 379.015625 199.3125 379.117188 198.292969 C 379.214844 197.277344 379.265625 196.253906 379.265625 195.230469 C 379.265625 194.207031 379.214844 193.1875 379.117188 192.167969 C 379.015625 191.152344 378.867188 190.140625 378.667969 189.136719 C 378.464844 188.132812 378.21875 187.140625 377.921875 186.164062 C 377.625 185.183594 377.28125 184.222656 376.886719 183.277344 C 376.496094 182.332031 376.058594 181.40625 375.578125 180.503906 C 375.09375 179.601562 374.570312 178.726562 374 177.875 C 373.433594 177.023438 372.824219 176.203125 372.175781 175.410156 C 371.527344 174.621094 370.839844 173.863281 370.117188 173.140625 C 369.390625 172.417969 368.636719 171.730469 367.84375 171.082031 C 367.054688 170.433594 366.230469 169.824219 365.382812 169.253906 C 364.53125 168.6875 363.65625 168.160156 362.75 167.679688 C 361.847656 167.195312 360.925781 166.757812 359.980469 166.367188 C 359.035156 165.976562 358.074219 165.632812 357.09375 165.335938 C 356.113281 165.039062 355.125 164.789062 354.121094 164.589844 C 353.117188 164.390625 352.105469 164.242188 351.085938 164.140625 C 350.070312 164.039062 349.046875 163.988281 348.023438 163.988281 C 347 163.988281 345.980469 164.039062 344.960938 164.140625 C 343.945312 164.242188 342.933594 164.390625 341.929688 164.589844 C 340.925781 164.789062 339.933594 165.039062 338.957031 165.335938 C 337.976562 165.632812 337.015625 165.976562 336.070312 166.367188 C 335.125 166.757812 334.199219 167.195312 333.296875 167.679688 C 332.394531 168.160156 331.519531 168.6875 330.667969 169.253906 C 329.816406 169.824219 328.996094 170.433594 328.207031 171.082031 C 327.414062 171.730469 326.65625 172.417969 325.933594 173.140625 C 325.210938 173.863281 324.523438 174.621094 323.875 175.410156 C 323.226562 176.203125 322.617188 177.023438 322.046875 177.875 C 321.480469 178.726562 320.953125 179.601562 320.472656 180.503906 C 319.988281 181.40625 319.554688 182.332031 319.160156 183.277344 C 318.769531 184.222656 318.425781 185.183594 318.128906 186.164062 C 317.832031 187.140625 317.582031 188.132812 317.382812 189.136719 C 317.183594 190.140625 317.035156 191.152344 316.933594 192.167969 C 316.832031 193.1875 316.785156 194.207031 316.785156 195.230469 C 316.785156 196.253906 316.835938 197.273438 316.9375 198.292969 C 317.042969 199.308594 317.191406 200.320312 317.394531 201.320312 C 317.59375 202.324219 317.84375 203.316406 318.140625 204.292969 C 318.441406 205.273438 318.785156 206.234375 319.175781 207.175781 C 319.570312 208.121094 320.007812 209.046875 320.492188 209.945312 C 320.972656 210.847656 321.5 211.722656 322.066406 212.574219 C 322.636719 213.425781 323.246094 214.246094 323.894531 215.035156 C 324.542969 215.824219 325.226562 216.582031 325.953125 217.304688 C 326.675781 218.027344 327.429688 218.714844 328.222656 219.363281 C 329.011719 220.011719 329.832031 220.621094 330.683594 221.1875 C 331.53125 221.757812 332.410156 222.285156 333.308594 222.765625 C 334.210938 223.25 335.132812 223.6875 336.078125 224.078125 C 337.023438 224.472656 337.984375 224.816406 338.960938 225.113281 C 339.941406 225.414062 340.929688 225.660156 341.933594 225.863281 C 342.9375 226.0625 343.945312 226.214844 344.964844 226.316406 C 345.980469 226.417969 347.003906 226.472656 348.023438 226.472656 Z M 348.023438 185.386719 C 348.667969 185.386719 349.304688 185.449219 349.9375 185.574219 C 350.566406 185.703125 351.179688 185.886719 351.777344 186.132812 C 352.371094 186.378906 352.933594 186.683594 353.46875 187.039062 C 354.003906 187.398438 354.5 187.804688 354.957031 188.257812 C 355.410156 188.714844 355.816406 189.207031 356.175781 189.742188 C 356.53125 190.277344 356.832031 190.84375 357.078125 191.4375 C 357.328125 192.03125 357.511719 192.644531 357.636719 193.277344 C 357.761719 193.90625 357.824219 194.546875 357.824219 195.1875 C 357.824219 195.832031 357.761719 196.46875 357.636719 197.101562 C 357.511719 197.730469 357.328125 198.34375 357.078125 198.9375 C 356.832031 199.535156 356.53125 200.097656 356.175781 200.632812 C 355.816406 201.167969 355.410156 201.664062 354.957031 202.121094 C 354.5 202.574219 354.003906 202.980469 353.46875 203.339844 C 352.933594 203.695312 352.371094 203.996094 351.777344 204.242188 C 351.179688 204.488281 350.566406 204.675781 349.9375 204.800781 C 349.304688 204.925781 348.667969 204.988281 348.023438 204.988281 C 347.382812 204.988281 346.742188 204.925781 346.113281 204.800781 C 345.480469 204.675781 344.867188 204.488281 344.273438 204.242188 C 343.679688 203.996094 343.113281 203.695312 342.578125 203.339844 C 342.042969 202.980469 341.550781 202.574219 341.09375 202.121094 C 340.640625 201.664062 340.234375 201.167969 339.875 200.632812 C 339.519531 200.097656 339.214844 199.535156 338.96875 198.9375 C 338.722656 198.34375 338.539062 197.730469 338.410156 197.101562 C 338.285156 196.46875 338.222656 195.832031 338.222656 195.1875 C 338.226562 194.546875 338.289062 193.910156 338.417969 193.277344 C 338.546875 192.648438 338.730469 192.035156 338.980469 191.445312 C 339.226562 190.851562 339.527344 190.285156 339.886719 189.753906 C 340.246094 189.21875 340.648438 188.722656 341.105469 188.269531 C 341.558594 187.8125 342.054688 187.40625 342.589844 187.050781 C 343.121094 186.691406 343.6875 186.390625 344.28125 186.144531 C 344.875 185.894531 345.484375 185.707031 346.117188 185.582031 C 346.746094 185.453125 347.382812 185.390625 348.023438 185.386719 Z M 348.023438 185.386719 " fill-opacity="1" fill-rule="nonzero"/><path fill="#05439a" d="M 318.503906 603.820312 C 317.457031 603.820312 316.410156 603.875 315.363281 603.976562 C 314.320312 604.078125 313.28125 604.230469 312.253906 604.4375 C 311.222656 604.640625 310.207031 604.894531 309.203125 605.199219 C 308.199219 605.503906 307.210938 605.859375 306.242188 606.257812 C 305.273438 606.660156 304.324219 607.109375 303.398438 607.601562 C 302.476562 608.097656 301.574219 608.636719 300.703125 609.21875 C 299.832031 609.800781 298.988281 610.425781 298.175781 611.089844 C 297.367188 611.757812 296.589844 612.460938 295.847656 613.203125 C 295.105469 613.945312 294.402344 614.722656 293.734375 615.53125 C 293.070312 616.34375 292.445312 617.183594 291.863281 618.058594 C 291.277344 618.929688 290.738281 619.828125 290.246094 620.753906 C 289.75 621.679688 289.300781 622.628906 288.902344 623.597656 C 288.5 624.566406 288.144531 625.554688 287.839844 626.558594 C 287.535156 627.5625 287.28125 628.578125 287.078125 629.605469 C 286.871094 630.636719 286.71875 631.671875 286.613281 632.71875 C 286.511719 633.761719 286.460938 634.808594 286.460938 635.859375 C 286.460938 636.90625 286.511719 637.953125 286.613281 639 C 286.71875 640.042969 286.871094 641.078125 287.074219 642.109375 C 287.28125 643.136719 287.535156 644.15625 287.839844 645.160156 C 288.144531 646.164062 288.496094 647.148438 288.898438 648.121094 C 289.300781 649.089844 289.75 650.035156 290.242188 650.960938 C 290.738281 651.886719 291.277344 652.785156 291.859375 653.660156 C 292.441406 654.53125 293.066406 655.375 293.734375 656.183594 C 294.398438 656.996094 295.101562 657.773438 295.84375 658.515625 C 296.585938 659.257812 297.363281 659.960938 298.175781 660.625 C 298.984375 661.292969 299.828125 661.914062 300.699219 662.5 C 301.570312 663.082031 302.472656 663.621094 303.398438 664.117188 C 304.320312 664.609375 305.269531 665.058594 306.238281 665.460938 C 307.207031 665.859375 308.195312 666.214844 309.199219 666.519531 C 310.203125 666.824219 311.21875 667.078125 312.25 667.28125 C 313.277344 667.488281 314.316406 667.640625 315.359375 667.742188 C 316.40625 667.847656 317.449219 667.898438 318.5 667.898438 C 319.550781 667.898438 320.597656 667.847656 321.640625 667.742188 C 322.683594 667.640625 323.722656 667.488281 324.75 667.28125 C 325.78125 667.078125 326.796875 666.824219 327.800781 666.519531 C 328.804688 666.214844 329.792969 665.859375 330.761719 665.457031 C 331.730469 665.054688 332.679688 664.609375 333.605469 664.113281 C 334.53125 663.617188 335.429688 663.078125 336.300781 662.496094 C 337.171875 661.914062 338.015625 661.289062 338.824219 660.625 C 339.636719 659.957031 340.414062 659.253906 341.15625 658.511719 C 341.898438 657.769531 342.601562 656.992188 343.265625 656.179688 C 343.933594 655.371094 344.558594 654.527344 345.140625 653.65625 C 345.722656 652.78125 346.261719 651.882812 346.753906 650.957031 C 347.25 650.03125 347.699219 649.085938 348.097656 648.117188 C 348.5 647.144531 348.855469 646.160156 349.160156 645.15625 C 349.460938 644.152344 349.71875 643.132812 349.921875 642.105469 C 350.125 641.074219 350.28125 640.039062 350.382812 638.996094 C 350.484375 637.949219 350.535156 636.902344 350.535156 635.855469 C 350.535156 634.804688 350.484375 633.757812 350.378906 632.714844 C 350.273438 631.671875 350.121094 630.636719 349.914062 629.605469 C 349.710938 628.578125 349.453125 627.5625 349.148438 626.558594 C 348.84375 625.554688 348.488281 624.570312 348.089844 623.601562 C 347.6875 622.632812 347.238281 621.6875 346.742188 620.761719 C 346.25 619.835938 345.710938 618.9375 345.125 618.066406 C 344.542969 617.195312 343.917969 616.355469 343.253906 615.542969 C 342.589844 614.730469 341.886719 613.957031 341.144531 613.214844 C 340.402344 612.472656 339.625 611.769531 338.816406 611.105469 C 338.003906 610.4375 337.164062 609.816406 336.292969 609.230469 C 335.421875 608.648438 334.523438 608.109375 333.597656 607.613281 C 332.671875 607.121094 331.726562 606.671875 330.757812 606.269531 C 329.789062 605.867188 328.800781 605.515625 327.796875 605.210938 C 326.796875 604.90625 325.78125 604.648438 324.75 604.445312 C 323.722656 604.238281 322.6875 604.082031 321.644531 603.980469 C 320.597656 603.875 319.554688 603.824219 318.503906 603.820312 Z M 318.503906 649.515625 C 317.609375 649.515625 316.71875 649.425781 315.839844 649.253906 C 314.960938 649.078125 314.105469 648.820312 313.277344 648.476562 C 312.445312 648.132812 311.660156 647.714844 310.914062 647.214844 C 310.167969 646.71875 309.476562 646.152344 308.84375 645.515625 C 308.207031 644.882812 307.640625 644.191406 307.144531 643.449219 C 306.644531 642.703125 306.222656 641.914062 305.878906 641.085938 C 305.535156 640.257812 305.277344 639.402344 305.101562 638.523438 C 304.925781 637.644531 304.839844 636.753906 304.839844 635.859375 C 304.835938 634.960938 304.925781 634.074219 305.101562 633.191406 C 305.273438 632.3125 305.535156 631.457031 305.875 630.628906 C 306.21875 629.800781 306.640625 629.011719 307.136719 628.265625 C 307.636719 627.519531 308.203125 626.832031 308.835938 626.195312 C 309.472656 625.5625 310.160156 624.996094 310.90625 624.496094 C 311.652344 624 312.441406 623.578125 313.269531 623.234375 C 314.097656 622.890625 314.953125 622.632812 315.832031 622.457031 C 316.710938 622.28125 317.597656 622.195312 318.496094 622.195312 C 319.394531 622.191406 320.28125 622.28125 321.160156 622.457031 C 322.042969 622.628906 322.894531 622.890625 323.726562 623.234375 C 324.554688 623.574219 325.339844 623.996094 326.085938 624.496094 C 326.832031 624.992188 327.523438 625.558594 328.15625 626.195312 C 328.792969 626.828125 329.359375 627.519531 329.855469 628.265625 C 330.355469 629.007812 330.777344 629.796875 331.117188 630.625 C 331.460938 631.453125 331.722656 632.308594 331.898438 633.1875 C 332.070312 634.070312 332.160156 634.957031 332.160156 635.855469 C 332.160156 636.75 332.070312 637.636719 331.894531 638.515625 C 331.71875 639.398438 331.460938 640.25 331.117188 641.078125 C 330.773438 641.90625 330.351562 642.691406 329.855469 643.4375 C 329.355469 644.183594 328.789062 644.875 328.15625 645.507812 C 327.523438 646.140625 326.832031 646.707031 326.089844 647.207031 C 325.34375 647.703125 324.554688 648.125 323.726562 648.46875 C 322.902344 648.8125 322.046875 649.074219 321.167969 649.25 C 320.289062 649.425781 319.402344 649.511719 318.503906 649.515625 Z M 318.503906 649.515625 " fill-opacity="1" fill-rule="nonzero"/><path fill="#05439a" d="M 442.773438 478.867188 C 441.875 478.867188 440.976562 478.910156 440.082031 479 C 439.1875 479.085938 438.296875 479.21875 437.414062 479.394531 C 436.53125 479.570312 435.660156 479.789062 434.800781 480.046875 C 433.941406 480.308594 433.09375 480.613281 432.261719 480.957031 C 431.433594 481.300781 430.621094 481.683594 429.828125 482.109375 C 429.035156 482.53125 428.261719 482.992188 427.515625 483.492188 C 426.765625 483.992188 426.046875 484.527344 425.351562 485.097656 C 424.65625 485.667969 423.988281 486.269531 423.351562 486.90625 C 422.714844 487.542969 422.113281 488.207031 421.542969 488.902344 C 420.972656 489.597656 420.4375 490.320312 419.9375 491.066406 C 419.4375 491.816406 418.976562 492.585938 418.550781 493.378906 C 418.125 494.171875 417.742188 494.984375 417.398438 495.8125 C 417.054688 496.644531 416.75 497.492188 416.488281 498.351562 C 416.226562 499.210938 416.007812 500.082031 415.832031 500.964844 C 415.65625 501.847656 415.527344 502.734375 415.4375 503.628906 C 415.347656 504.523438 415.304688 505.421875 415.304688 506.320312 C 415.304688 507.222656 415.347656 508.117188 415.4375 509.011719 C 415.523438 509.910156 415.65625 510.796875 415.832031 511.679688 C 416.003906 512.5625 416.222656 513.433594 416.484375 514.292969 C 416.746094 515.15625 417.046875 516 417.390625 516.832031 C 417.734375 517.664062 418.121094 518.472656 418.542969 519.269531 C 418.964844 520.0625 419.429688 520.832031 419.925781 521.578125 C 420.425781 522.328125 420.960938 523.050781 421.53125 523.746094 C 422.101562 524.441406 422.707031 525.105469 423.339844 525.742188 C 423.976562 526.378906 424.640625 526.980469 425.335938 527.550781 C 426.03125 528.125 426.753906 528.660156 427.5 529.160156 C 428.25 529.660156 429.019531 530.121094 429.8125 530.542969 C 430.605469 530.96875 431.417969 531.351562 432.25 531.699219 C 433.078125 532.042969 433.925781 532.34375 434.785156 532.605469 C 435.644531 532.867188 436.515625 533.085938 437.398438 533.261719 C 438.28125 533.4375 439.167969 533.570312 440.066406 533.660156 C 440.960938 533.746094 441.855469 533.792969 442.757812 533.792969 C 443.65625 533.792969 444.554688 533.75 445.449219 533.660156 C 446.34375 533.574219 447.230469 533.441406 448.113281 533.265625 C 448.996094 533.089844 449.867188 532.875 450.726562 532.613281 C 451.589844 532.351562 452.433594 532.050781 453.265625 531.707031 C 454.097656 531.363281 454.910156 530.976562 455.703125 530.554688 C 456.496094 530.128906 457.265625 529.667969 458.015625 529.167969 C 458.761719 528.671875 459.484375 528.136719 460.179688 527.566406 C 460.875 526.996094 461.539062 526.390625 462.175781 525.757812 C 462.8125 525.121094 463.417969 524.457031 463.988281 523.761719 C 464.558594 523.066406 465.09375 522.34375 465.59375 521.597656 C 466.09375 520.847656 466.554688 520.078125 466.980469 519.285156 C 467.40625 518.492188 467.789062 517.679688 468.132812 516.851562 C 468.476562 516.019531 468.78125 515.171875 469.042969 514.3125 C 469.304688 513.453125 469.523438 512.582031 469.699219 511.699219 C 469.875 510.816406 470.007812 509.929688 470.09375 509.035156 C 470.183594 508.140625 470.226562 507.242188 470.226562 506.34375 C 470.226562 505.441406 470.183594 504.546875 470.09375 503.652344 C 470.003906 502.757812 469.875 501.867188 469.699219 500.984375 C 469.523438 500.105469 469.304688 499.234375 469.042969 498.371094 C 468.78125 497.511719 468.476562 496.667969 468.132812 495.835938 C 467.789062 495.003906 467.40625 494.191406 466.980469 493.398438 C 466.558594 492.605469 466.097656 491.835938 465.597656 491.089844 C 465.097656 490.339844 464.5625 489.621094 463.992188 488.925781 C 463.421875 488.230469 462.816406 487.5625 462.183594 486.925781 C 461.546875 486.289062 460.882812 485.6875 460.1875 485.117188 C 459.492188 484.546875 458.769531 484.011719 458.023438 483.511719 C 457.277344 483.011719 456.503906 482.546875 455.710938 482.125 C 454.921875 481.699219 454.109375 481.3125 453.277344 480.96875 C 452.449219 480.625 451.601562 480.320312 450.742188 480.058594 C 449.882812 479.796875 449.011719 479.578125 448.128906 479.402344 C 447.246094 479.226562 446.359375 479.09375 445.464844 479.003906 C 444.570312 478.914062 443.671875 478.871094 442.773438 478.867188 Z M 442.773438 515.410156 C 442.175781 515.410156 441.585938 515.351562 441 515.234375 C 440.414062 515.117188 439.84375 514.945312 439.292969 514.71875 C 438.742188 514.492188 438.21875 514.210938 437.722656 513.878906 C 437.226562 513.546875 436.765625 513.171875 436.34375 512.75 C 435.921875 512.328125 435.546875 511.867188 435.214844 511.371094 C 434.882812 510.875 434.601562 510.351562 434.375 509.800781 C 434.144531 509.25 433.972656 508.679688 433.855469 508.09375 C 433.738281 507.511719 433.683594 506.917969 433.683594 506.320312 C 433.683594 505.726562 433.742188 505.132812 433.855469 504.546875 C 433.972656 503.964844 434.144531 503.394531 434.375 502.84375 C 434.605469 502.292969 434.882812 501.769531 435.214844 501.273438 C 435.546875 500.777344 435.925781 500.316406 436.347656 499.894531 C 436.769531 499.472656 437.230469 499.097656 437.726562 498.765625 C 438.222656 498.433594 438.746094 498.15625 439.296875 497.929688 C 439.847656 497.699219 440.417969 497.527344 441.003906 497.414062 C 441.589844 497.296875 442.179688 497.238281 442.777344 497.238281 C 443.375 497.238281 443.964844 497.300781 444.550781 497.417969 C 445.136719 497.535156 445.703125 497.707031 446.253906 497.9375 C 446.804688 498.164062 447.328125 498.445312 447.824219 498.777344 C 448.320312 499.109375 448.777344 499.488281 449.199219 499.910156 C 449.621094 500.332031 449.996094 500.792969 450.328125 501.289062 C 450.660156 501.785156 450.9375 502.3125 451.164062 502.863281 C 451.394531 503.414062 451.566406 503.984375 451.679688 504.570312 C 451.796875 505.152344 451.851562 505.746094 451.851562 506.34375 C 451.847656 506.9375 451.789062 507.527344 451.671875 508.109375 C 451.554688 508.695312 451.382812 509.261719 451.152344 509.8125 C 450.925781 510.359375 450.644531 510.882812 450.3125 511.378906 C 449.980469 511.871094 449.605469 512.328125 449.183594 512.75 C 448.761719 513.171875 448.304688 513.546875 447.808594 513.878906 C 447.3125 514.207031 446.792969 514.488281 446.242188 514.714844 C 445.691406 514.941406 445.125 515.117188 444.542969 515.230469 C 443.957031 515.347656 443.367188 515.40625 442.773438 515.410156 Z M 442.773438 515.410156 " fill-opacity="1" fill-rule="nonzero"/><path fill="#05439a" d="M 493.820312 635.769531 C 492.996094 635.769531 492.175781 635.808594 491.355469 635.890625 C 490.539062 635.96875 489.726562 636.089844 488.917969 636.25 C 488.113281 636.410156 487.316406 636.609375 486.527344 636.847656 C 485.742188 637.089844 484.96875 637.363281 484.207031 637.679688 C 483.449219 637.996094 482.703125 638.347656 481.980469 638.734375 C 481.253906 639.121094 480.550781 639.542969 479.863281 640 C 479.179688 640.457031 478.519531 640.949219 477.886719 641.46875 C 477.25 641.992188 476.640625 642.542969 476.058594 643.125 C 475.476562 643.707031 474.925781 644.316406 474.402344 644.949219 C 473.882812 645.585938 473.394531 646.246094 472.9375 646.929688 C 472.480469 647.613281 472.054688 648.320312 471.667969 649.042969 C 471.28125 649.769531 470.929688 650.511719 470.613281 651.273438 C 470.300781 652.03125 470.023438 652.804688 469.785156 653.59375 C 469.546875 654.378906 469.347656 655.175781 469.183594 655.984375 C 469.023438 656.789062 468.90625 657.601562 468.824219 658.421875 C 468.742188 659.242188 468.703125 660.0625 468.703125 660.882812 C 468.703125 661.707031 468.742188 662.527344 468.824219 663.34375 C 468.90625 664.164062 469.023438 664.976562 469.183594 665.785156 C 469.347656 666.589844 469.546875 667.386719 469.785156 668.175781 C 470.023438 668.960938 470.300781 669.734375 470.613281 670.496094 C 470.929688 671.253906 471.28125 671.996094 471.667969 672.722656 C 472.054688 673.449219 472.480469 674.152344 472.9375 674.835938 C 473.394531 675.519531 473.882812 676.179688 474.402344 676.816406 C 474.925781 677.453125 475.476562 678.0625 476.058594 678.644531 C 476.640625 679.226562 477.25 679.777344 477.886719 680.296875 C 478.519531 680.820312 479.179688 681.308594 479.863281 681.765625 C 480.550781 682.222656 481.253906 682.644531 481.980469 683.035156 C 482.703125 683.421875 483.449219 683.773438 484.207031 684.085938 C 484.96875 684.402344 485.742188 684.679688 486.527344 684.917969 C 487.316406 685.15625 488.113281 685.355469 488.917969 685.515625 C 489.726562 685.675781 490.539062 685.796875 491.355469 685.878906 C 492.175781 685.960938 492.996094 686 493.820312 686 C 494.640625 686 495.460938 685.960938 496.28125 685.878906 C 497.097656 685.796875 497.910156 685.675781 498.71875 685.515625 C 499.523438 685.355469 500.324219 685.15625 501.109375 684.917969 C 501.898438 684.679688 502.671875 684.402344 503.429688 684.085938 C 504.191406 683.773438 504.933594 683.421875 505.660156 683.035156 C 506.382812 682.644531 507.089844 682.222656 507.773438 681.765625 C 508.457031 681.308594 509.117188 680.820312 509.753906 680.296875 C 510.386719 679.777344 510.996094 679.226562 511.578125 678.644531 C 512.160156 678.0625 512.710938 677.453125 513.234375 676.816406 C 513.753906 676.179688 514.246094 675.519531 514.703125 674.835938 C 515.160156 674.152344 515.582031 673.449219 515.96875 672.722656 C 516.355469 671.996094 516.707031 671.253906 517.023438 670.496094 C 517.335938 669.734375 517.613281 668.960938 517.851562 668.175781 C 518.089844 667.386719 518.292969 666.589844 518.453125 665.785156 C 518.613281 664.976562 518.734375 664.164062 518.8125 663.34375 C 518.894531 662.527344 518.933594 661.707031 518.933594 660.882812 C 518.933594 660.0625 518.894531 659.242188 518.8125 658.421875 C 518.734375 657.601562 518.613281 656.789062 518.453125 655.984375 C 518.292969 655.175781 518.089844 654.378906 517.851562 653.59375 C 517.613281 652.804688 517.335938 652.03125 517.023438 651.273438 C 516.707031 650.511719 516.355469 649.769531 515.96875 649.042969 C 515.582031 648.320312 515.160156 647.613281 514.703125 646.929688 C 514.246094 646.246094 513.753906 645.585938 513.234375 644.949219 C 512.710938 644.316406 512.160156 643.707031 511.578125 643.125 C 510.996094 642.542969 510.386719 641.992188 509.753906 641.46875 C 509.117188 640.949219 508.457031 640.457031 507.773438 640 C 507.089844 639.542969 506.382812 639.121094 505.660156 638.734375 C 504.933594 638.347656 504.191406 637.996094 503.429688 637.679688 C 502.671875 637.363281 501.898438 637.089844 501.109375 636.847656 C 500.324219 636.609375 499.523438 636.410156 498.71875 636.25 C 497.910156 636.089844 497.097656 635.96875 496.28125 635.890625 C 495.460938 635.808594 494.640625 635.769531 493.820312 635.769531 Z M 493.820312 667.578125 C 493.375 667.578125 492.9375 667.535156 492.503906 667.449219 C 492.070312 667.363281 491.648438 667.234375 491.238281 667.066406 C 490.832031 666.898438 490.441406 666.691406 490.074219 666.445312 C 489.707031 666.199219 489.367188 665.917969 489.054688 665.605469 C 488.742188 665.292969 488.460938 664.953125 488.214844 664.585938 C 487.96875 664.214844 487.761719 663.828125 487.59375 663.417969 C 487.425781 663.011719 487.296875 662.589844 487.210938 662.15625 C 487.125 661.722656 487.082031 661.285156 487.082031 660.839844 C 487.082031 660.398438 487.125 659.960938 487.210938 659.527344 C 487.296875 659.09375 487.425781 658.671875 487.59375 658.261719 C 487.761719 657.851562 487.96875 657.464844 488.214844 657.097656 C 488.460938 656.730469 488.742188 656.390625 489.054688 656.078125 C 489.367188 655.761719 489.707031 655.484375 490.074219 655.238281 C 490.441406 654.992188 490.832031 654.785156 491.238281 654.617188 C 491.648438 654.445312 492.070312 654.320312 492.503906 654.230469 C 492.9375 654.144531 493.375 654.101562 493.820312 654.101562 C 494.261719 654.101562 494.699219 654.144531 495.132812 654.230469 C 495.566406 654.316406 495.988281 654.445312 496.398438 654.617188 C 496.804688 654.785156 497.195312 654.992188 497.5625 655.238281 C 497.929688 655.484375 498.269531 655.761719 498.582031 656.078125 C 498.894531 656.390625 499.175781 656.730469 499.421875 657.097656 C 499.667969 657.464844 499.875 657.851562 500.042969 658.261719 C 500.214844 658.671875 500.339844 659.09375 500.425781 659.527344 C 500.515625 659.960938 500.558594 660.398438 500.558594 660.839844 C 500.558594 661.285156 500.515625 661.722656 500.425781 662.15625 C 500.339844 662.589844 500.214844 663.011719 500.042969 663.417969 C 499.875 663.828125 499.667969 664.214844 499.421875 664.585938 C 499.175781 664.953125 498.894531 665.292969 498.582031 665.605469 C 498.269531 665.917969 497.929688 666.199219 497.5625 666.445312 C 497.195312 666.691406 496.804688 666.898438 496.398438 667.066406 C 495.988281 667.234375 495.566406 667.363281 495.132812 667.449219 C 494.699219 667.535156 494.261719 667.578125 493.820312 667.578125 Z M 493.820312 667.578125 " fill-opacity="1" fill-rule="nonzero"/><path fill="#05439a" d="M 404.996094 397.914062 C 405.816406 397.914062 406.636719 397.875 407.457031 397.792969 C 408.273438 397.714844 409.085938 397.59375 409.894531 397.433594 C 410.703125 397.273438 411.5 397.074219 412.285156 396.835938 C 413.074219 396.59375 413.847656 396.320312 414.605469 396.003906 C 415.367188 395.6875 416.109375 395.335938 416.835938 394.949219 C 417.558594 394.5625 418.265625 394.140625 418.949219 393.683594 C 419.632812 393.226562 420.292969 392.738281 420.929688 392.214844 C 421.5625 391.691406 422.171875 391.140625 422.753906 390.558594 C 423.335938 389.976562 423.886719 389.367188 424.410156 388.734375 C 424.929688 388.097656 425.421875 387.4375 425.878906 386.753906 C 426.335938 386.070312 426.757812 385.363281 427.144531 384.640625 C 427.53125 383.914062 427.882812 383.171875 428.199219 382.410156 C 428.511719 381.652344 428.789062 380.878906 429.027344 380.089844 C 429.269531 379.304688 429.46875 378.507812 429.628906 377.699219 C 429.789062 376.894531 429.910156 376.082031 429.988281 375.261719 C 430.070312 374.441406 430.109375 373.621094 430.109375 372.800781 C 430.109375 371.976562 430.070312 371.15625 429.988281 370.339844 C 429.910156 369.519531 429.789062 368.707031 429.628906 367.898438 C 429.46875 367.09375 429.269531 366.296875 429.027344 365.507812 C 428.789062 364.722656 428.511719 363.949219 428.199219 363.1875 C 427.882812 362.429688 427.53125 361.6875 427.144531 360.960938 C 426.757812 360.234375 426.335938 359.53125 425.878906 358.847656 C 425.421875 358.164062 424.929688 357.503906 424.410156 356.867188 C 423.886719 356.230469 423.335938 355.621094 422.753906 355.039062 C 422.171875 354.457031 421.5625 353.90625 420.929688 353.386719 C 420.292969 352.863281 419.632812 352.375 418.949219 351.917969 C 418.265625 351.460938 417.558594 351.039062 416.835938 350.648438 C 416.109375 350.261719 415.367188 349.910156 414.605469 349.597656 C 413.847656 349.28125 413.074219 349.003906 412.285156 348.765625 C 411.5 348.527344 410.703125 348.328125 409.894531 348.167969 C 409.085938 348.007812 408.273438 347.886719 407.457031 347.804688 C 406.636719 347.722656 405.816406 347.683594 404.996094 347.683594 C 404.171875 347.683594 403.351562 347.722656 402.53125 347.804688 C 401.714844 347.886719 400.902344 348.007812 400.09375 348.167969 C 399.289062 348.328125 398.492188 348.527344 397.703125 348.765625 C 396.917969 349.003906 396.144531 349.28125 395.382812 349.597656 C 394.625 349.910156 393.878906 350.261719 393.15625 350.648438 C 392.429688 351.039062 391.726562 351.460938 391.042969 351.917969 C 390.355469 352.375 389.695312 352.863281 389.0625 353.386719 C 388.425781 353.90625 387.816406 354.457031 387.234375 355.039062 C 386.652344 355.621094 386.101562 356.230469 385.578125 356.867188 C 385.058594 357.503906 384.570312 358.164062 384.113281 358.847656 C 383.65625 359.53125 383.230469 360.234375 382.84375 360.960938 C 382.457031 361.6875 382.105469 362.429688 381.789062 363.1875 C 381.476562 363.949219 381.199219 364.722656 380.960938 365.507812 C 380.722656 366.296875 380.523438 367.09375 380.363281 367.898438 C 380.199219 368.707031 380.082031 369.519531 380 370.339844 C 379.917969 371.15625 379.878906 371.976562 379.878906 372.800781 C 379.878906 373.621094 379.917969 374.441406 380 375.261719 C 380.082031 376.082031 380.199219 376.894531 380.363281 377.699219 C 380.523438 378.507812 380.722656 379.304688 380.960938 380.089844 C 381.199219 380.878906 381.476562 381.652344 381.789062 382.410156 C 382.105469 383.171875 382.457031 383.914062 382.84375 384.640625 C 383.230469 385.363281 383.65625 386.070312 384.113281 386.753906 C 384.570312 387.4375 385.058594 388.097656 385.578125 388.734375 C 386.101562 389.367188 386.652344 389.976562 387.234375 390.558594 C 387.816406 391.140625 388.425781 391.691406 389.0625 392.214844 C 389.695312 392.738281 390.355469 393.226562 391.042969 393.683594 C 391.726562 394.140625 392.429688 394.5625 393.15625 394.949219 C 393.878906 395.335938 394.625 395.6875 395.382812 396.003906 C 396.144531 396.320312 396.917969 396.59375 397.703125 396.835938 C 398.492188 397.074219 399.289062 397.273438 400.09375 397.433594 C 400.902344 397.59375 401.714844 397.714844 402.53125 397.792969 C 403.351562 397.875 404.171875 397.914062 404.996094 397.914062 Z M 404.996094 366.0625 C 405.4375 366.0625 405.875 366.105469 406.308594 366.191406 C 406.742188 366.277344 407.164062 366.40625 407.574219 366.574219 C 407.980469 366.742188 408.371094 366.953125 408.738281 367.195312 C 409.105469 367.441406 409.445312 367.722656 409.757812 368.035156 C 410.070312 368.347656 410.351562 368.6875 410.597656 369.054688 C 410.84375 369.425781 411.050781 369.8125 411.21875 370.222656 C 411.390625 370.628906 411.515625 371.050781 411.605469 371.484375 C 411.691406 371.917969 411.734375 372.359375 411.734375 372.800781 C 411.734375 373.242188 411.691406 373.679688 411.605469 374.113281 C 411.515625 374.546875 411.390625 374.96875 411.21875 375.378906 C 411.050781 375.789062 410.84375 376.175781 410.597656 376.542969 C 410.351562 376.910156 410.070312 377.25 409.757812 377.566406 C 409.445312 377.878906 409.105469 378.15625 408.738281 378.402344 C 408.371094 378.648438 407.980469 378.855469 407.574219 379.027344 C 407.164062 379.195312 406.742188 379.324219 406.308594 379.410156 C 405.875 379.496094 405.4375 379.539062 404.996094 379.539062 C 404.550781 379.539062 404.113281 379.496094 403.679688 379.410156 C 403.246094 379.324219 402.824219 379.195312 402.414062 379.027344 C 402.007812 378.855469 401.617188 378.648438 401.25 378.402344 C 400.882812 378.15625 400.542969 377.878906 400.230469 377.566406 C 399.917969 377.25 399.636719 376.910156 399.390625 376.542969 C 399.144531 376.175781 398.9375 375.789062 398.769531 375.378906 C 398.601562 374.96875 398.472656 374.546875 398.386719 374.113281 C 398.300781 373.679688 398.257812 373.242188 398.257812 372.800781 C 398.257812 372.359375 398.300781 371.917969 398.386719 371.484375 C 398.472656 371.050781 398.601562 370.628906 398.769531 370.222656 C 398.9375 369.8125 399.144531 369.425781 399.390625 369.054688 C 399.636719 368.6875 399.917969 368.347656 400.230469 368.035156 C 400.542969 367.722656 400.882812 367.441406 401.25 367.195312 C 401.617188 366.953125 402.007812 366.742188 402.417969 366.574219 C 402.824219 366.40625 403.246094 366.277344 403.679688 366.191406 C 404.113281 366.105469 404.550781 366.0625 404.996094 366.0625 Z M 404.996094 366.0625 " fill-opacity="1" fill-rule="nonzero"/><path fill="#05439a" d="M 368.480469 541.332031 C 368.480469 542.160156 368.398438 542.980469 368.238281 543.789062 C 368.074219 544.601562 367.835938 545.386719 367.519531 546.152344 C 367.203125 546.917969 366.816406 547.640625 366.355469 548.328125 C 365.898438 549.019531 365.375 549.652344 364.789062 550.238281 C 364.207031 550.824219 363.570312 551.34375 362.882812 551.804688 C 362.195312 552.265625 361.46875 552.652344 360.703125 552.96875 C 359.941406 553.285156 359.152344 553.523438 358.339844 553.683594 C 357.53125 553.847656 356.710938 553.925781 355.882812 553.925781 C 355.058594 553.925781 354.238281 553.847656 353.425781 553.683594 C 352.617188 553.523438 351.828125 553.285156 351.0625 552.96875 C 350.300781 552.652344 349.574219 552.265625 348.886719 551.804688 C 348.199219 551.34375 347.5625 550.824219 346.976562 550.238281 C 346.394531 549.652344 345.871094 549.019531 345.414062 548.328125 C 344.953125 547.640625 344.566406 546.917969 344.25 546.152344 C 343.933594 545.386719 343.691406 544.601562 343.53125 543.789062 C 343.371094 542.980469 343.289062 542.160156 343.289062 541.332031 C 343.289062 540.503906 343.371094 539.6875 343.53125 538.875 C 343.691406 538.066406 343.933594 537.277344 344.25 536.511719 C 344.566406 535.75 344.953125 535.023438 345.414062 534.335938 C 345.871094 533.648438 346.394531 533.011719 346.976562 532.425781 C 347.5625 531.84375 348.199219 531.320312 348.886719 530.859375 C 349.574219 530.402344 350.300781 530.011719 351.0625 529.695312 C 351.828125 529.378906 352.617188 529.140625 353.425781 528.980469 C 354.238281 528.820312 355.058594 528.738281 355.882812 528.738281 C 356.710938 528.738281 357.53125 528.820312 358.339844 528.980469 C 359.152344 529.140625 359.941406 529.378906 360.703125 529.695312 C 361.46875 530.011719 362.195312 530.402344 362.882812 530.859375 C 363.570312 531.320312 364.207031 531.84375 364.789062 532.425781 C 365.375 533.011719 365.898438 533.648438 366.355469 534.335938 C 366.816406 535.023438 367.203125 535.75 367.519531 536.511719 C 367.835938 537.277344 368.074219 538.066406 368.238281 538.875 C 368.398438 539.6875 368.480469 540.503906 368.480469 541.332031 Z M 368.480469 541.332031 " fill-opacity="1" fill-rule="nonzero"/><path fill="#05439a" d="M 442.773438 607.945312 C 442.773438 608.683594 442.699219 609.414062 442.554688 610.140625 C 442.414062 610.863281 442.199219 611.566406 441.917969 612.25 C 441.632812 612.929688 441.289062 613.578125 440.878906 614.191406 C 440.464844 614.808594 440 615.375 439.476562 615.898438 C 438.957031 616.417969 438.386719 616.886719 437.773438 617.296875 C 437.160156 617.707031 436.511719 618.054688 435.828125 618.335938 C 435.148438 618.617188 434.445312 618.832031 433.71875 618.976562 C 432.996094 619.121094 432.265625 619.191406 431.527344 619.191406 C 430.785156 619.191406 430.054688 619.121094 429.332031 618.976562 C 428.605469 618.832031 427.902344 618.617188 427.222656 618.335938 C 426.539062 618.054688 425.890625 617.707031 425.277344 617.296875 C 424.664062 616.886719 424.09375 616.417969 423.574219 615.898438 C 423.050781 615.375 422.585938 614.808594 422.175781 614.191406 C 421.765625 613.578125 421.417969 612.929688 421.132812 612.25 C 420.851562 611.566406 420.640625 610.863281 420.496094 610.140625 C 420.351562 609.414062 420.277344 608.683594 420.277344 607.945312 C 420.277344 607.207031 420.351562 606.476562 420.496094 605.75 C 420.640625 605.027344 420.851562 604.324219 421.132812 603.640625 C 421.417969 602.957031 421.765625 602.308594 422.175781 601.695312 C 422.585938 601.082031 423.050781 600.515625 423.574219 599.992188 C 424.09375 599.46875 424.664062 599.003906 425.277344 598.59375 C 425.890625 598.183594 426.539062 597.835938 427.222656 597.554688 C 427.902344 597.269531 428.605469 597.058594 429.332031 596.914062 C 430.054688 596.769531 430.785156 596.699219 431.527344 596.699219 C 432.265625 596.699219 432.996094 596.769531 433.71875 596.914062 C 434.445312 597.058594 435.148438 597.269531 435.828125 597.554688 C 436.511719 597.835938 437.160156 598.183594 437.773438 598.59375 C 438.386719 599.003906 438.957031 599.46875 439.476562 599.992188 C 440 600.515625 440.464844 601.082031 440.878906 601.695312 C 441.289062 602.308594 441.632812 602.957031 441.917969 603.640625 C 442.199219 604.324219 442.414062 605.027344 442.554688 605.75 C 442.699219 606.476562 442.773438 607.207031 442.773438 607.945312 Z M 442.773438 607.945312 " fill-opacity="1" fill-rule="nonzero"/><path fill="#05439a" d="M 449.535156 185.386719 C 451.179688 185.386719 452.816406 185.308594 454.453125 185.144531 C 456.085938 184.984375 457.710938 184.742188 459.320312 184.421875 C 460.933594 184.101562 462.523438 183.703125 464.097656 183.226562 C 465.667969 182.75 467.210938 182.199219 468.730469 181.570312 C 470.25 180.941406 471.730469 180.238281 473.179688 179.464844 C 474.628906 178.691406 476.035156 177.847656 477.402344 176.933594 C 478.769531 176.019531 480.085938 175.042969 481.355469 174 C 482.625 172.960938 483.839844 171.855469 485.003906 170.695312 C 486.164062 169.535156 487.265625 168.316406 488.308594 167.046875 C 489.351562 165.777344 490.328125 164.460938 491.242188 163.09375 C 492.152344 161.730469 492.996094 160.320312 493.773438 158.871094 C 494.546875 157.421875 495.246094 155.941406 495.875 154.421875 C 496.503906 152.90625 497.058594 151.359375 497.535156 149.789062 C 498.011719 148.214844 498.410156 146.625 498.730469 145.011719 C 499.050781 143.402344 499.292969 141.777344 499.453125 140.144531 C 499.613281 138.507812 499.695312 136.871094 499.695312 135.226562 C 499.691406 133.585938 499.613281 131.945312 499.453125 130.3125 C 499.289062 128.675781 499.050781 127.054688 498.730469 125.441406 C 498.410156 123.832031 498.011719 122.238281 497.53125 120.667969 C 497.054688 119.09375 496.503906 117.550781 495.875 116.03125 C 495.246094 114.515625 494.542969 113.03125 493.769531 111.582031 C 492.996094 110.132812 492.152344 108.726562 491.238281 107.359375 C 490.324219 105.996094 489.347656 104.675781 488.304688 103.40625 C 487.265625 102.136719 486.160156 100.921875 485 99.761719 C 483.839844 98.597656 482.621094 97.496094 481.351562 96.453125 C 480.082031 95.414062 478.765625 94.433594 477.398438 93.523438 C 476.03125 92.609375 474.625 91.765625 473.175781 90.992188 C 471.726562 90.21875 470.246094 89.515625 468.726562 88.886719 C 467.210938 88.257812 465.664062 87.707031 464.09375 87.230469 C 462.519531 86.753906 460.929688 86.355469 459.316406 86.035156 C 457.707031 85.714844 456.082031 85.472656 454.449219 85.3125 C 452.8125 85.152344 451.175781 85.070312 449.53125 85.070312 C 447.886719 85.070312 446.25 85.152344 444.613281 85.3125 C 442.980469 85.472656 441.355469 85.714844 439.746094 86.035156 C 438.132812 86.355469 436.542969 86.753906 434.972656 87.234375 C 433.398438 87.710938 431.855469 88.261719 430.335938 88.890625 C 428.820312 89.519531 427.335938 90.222656 425.886719 90.996094 C 424.4375 91.769531 423.03125 92.613281 421.664062 93.527344 C 420.300781 94.441406 418.980469 95.417969 417.710938 96.460938 C 416.441406 97.503906 415.226562 98.605469 414.066406 99.765625 C 412.902344 100.925781 411.800781 102.144531 410.757812 103.414062 C 409.71875 104.683594 408.738281 106 407.828125 107.367188 C 406.914062 108.734375 406.070312 110.140625 405.296875 111.589844 C 404.523438 113.039062 403.820312 114.523438 403.191406 116.039062 C 402.566406 117.558594 402.011719 119.101562 401.535156 120.675781 C 401.058594 122.246094 400.660156 123.839844 400.339844 125.449219 C 400.019531 127.0625 399.777344 128.683594 399.617188 130.320312 C 399.457031 131.953125 399.378906 133.59375 399.378906 135.234375 C 399.378906 136.878906 399.464844 138.515625 399.625 140.148438 C 399.789062 141.78125 400.03125 143.40625 400.355469 145.015625 C 400.675781 146.625 401.078125 148.214844 401.554688 149.785156 C 402.035156 151.355469 402.585938 152.902344 403.21875 154.417969 C 403.847656 155.933594 404.546875 157.414062 405.324219 158.863281 C 406.097656 160.308594 406.941406 161.714844 407.855469 163.082031 C 408.769531 164.445312 409.746094 165.761719 410.789062 167.03125 C 411.828125 168.300781 412.929688 169.515625 414.09375 170.675781 C 415.253906 171.839844 416.46875 172.941406 417.738281 173.980469 C 419.007812 175.023438 420.324219 176 421.6875 176.914062 C 423.054688 177.824219 424.460938 178.667969 425.90625 179.445312 C 427.355469 180.21875 428.835938 180.921875 430.355469 181.550781 C 431.871094 182.179688 433.414062 182.734375 434.984375 183.210938 C 436.554688 183.691406 438.144531 184.089844 439.757812 184.410156 C 441.367188 184.734375 442.988281 184.976562 444.621094 185.140625 C 446.253906 185.300781 447.894531 185.386719 449.535156 185.386719 Z M 449.535156 106.519531 C 450.476562 106.519531 451.414062 106.5625 452.351562 106.65625 C 453.285156 106.75 454.214844 106.886719 455.136719 107.070312 C 456.058594 107.253906 456.972656 107.480469 457.871094 107.753906 C 458.773438 108.027344 459.65625 108.34375 460.523438 108.703125 C 461.394531 109.0625 462.242188 109.464844 463.074219 109.910156 C 463.902344 110.351562 464.707031 110.835938 465.488281 111.359375 C 466.273438 111.878906 467.027344 112.441406 467.753906 113.035156 C 468.480469 113.632812 469.175781 114.265625 469.84375 114.929688 C 470.507812 115.59375 471.136719 116.289062 471.734375 117.015625 C 472.332031 117.746094 472.890625 118.5 473.414062 119.28125 C 473.9375 120.0625 474.417969 120.867188 474.863281 121.699219 C 475.304688 122.527344 475.707031 123.375 476.066406 124.246094 C 476.425781 125.113281 476.742188 126 477.015625 126.898438 C 477.289062 127.800781 477.519531 128.710938 477.703125 129.632812 C 477.886719 130.554688 478.023438 131.484375 478.113281 132.421875 C 478.207031 133.355469 478.253906 134.296875 478.253906 135.234375 C 478.253906 136.175781 478.207031 137.113281 478.113281 138.050781 C 478.023438 138.988281 477.886719 139.914062 477.703125 140.839844 C 477.519531 141.761719 477.289062 142.671875 477.015625 143.570312 C 476.742188 144.472656 476.425781 145.355469 476.066406 146.226562 C 475.707031 147.09375 475.304688 147.945312 474.863281 148.773438 C 474.417969 149.601562 473.9375 150.40625 473.414062 151.191406 C 472.890625 151.972656 472.332031 152.726562 471.734375 153.453125 C 471.136719 154.179688 470.507812 154.875 469.84375 155.542969 C 469.175781 156.207031 468.480469 156.839844 467.753906 157.433594 C 467.027344 158.03125 466.273438 158.589844 465.488281 159.113281 C 464.707031 159.636719 463.902344 160.117188 463.074219 160.5625 C 462.242188 161.003906 461.394531 161.40625 460.523438 161.765625 C 459.65625 162.128906 458.773438 162.445312 457.871094 162.714844 C 456.972656 162.988281 456.058594 163.21875 455.136719 163.402344 C 454.214844 163.585938 453.285156 163.722656 452.351562 163.816406 C 451.414062 163.90625 450.476562 163.953125 449.535156 163.953125 C 448.59375 163.953125 447.65625 163.90625 446.71875 163.816406 C 445.785156 163.722656 444.855469 163.585938 443.933594 163.402344 C 443.011719 163.21875 442.097656 162.988281 441.199219 162.714844 C 440.300781 162.445312 439.414062 162.128906 438.546875 161.765625 C 437.675781 161.40625 436.828125 161.003906 435.996094 160.5625 C 435.167969 160.117188 434.363281 159.636719 433.582031 159.113281 C 432.796875 158.589844 432.042969 158.03125 431.316406 157.433594 C 430.589844 156.839844 429.894531 156.207031 429.230469 155.542969 C 428.5625 154.875 427.933594 154.179688 427.335938 153.453125 C 426.738281 152.726562 426.179688 151.972656 425.65625 151.191406 C 425.136719 150.40625 424.652344 149.601562 424.207031 148.773438 C 423.765625 147.945312 423.363281 147.09375 423.003906 146.226562 C 422.644531 145.355469 422.328125 144.472656 422.054688 143.570312 C 421.78125 142.671875 421.554688 141.761719 421.371094 140.839844 C 421.1875 139.914062 421.046875 138.988281 420.957031 138.050781 C 420.863281 137.113281 420.816406 136.175781 420.816406 135.234375 C 420.820312 134.296875 420.867188 133.355469 420.957031 132.421875 C 421.050781 131.484375 421.191406 130.558594 421.375 129.636719 C 421.558594 128.714844 421.789062 127.800781 422.0625 126.902344 C 422.335938 126.003906 422.652344 125.117188 423.011719 124.25 C 423.371094 123.382812 423.773438 122.53125 424.21875 121.703125 C 424.660156 120.875 425.144531 120.070312 425.667969 119.289062 C 426.191406 118.507812 426.75 117.753906 427.34375 117.023438 C 427.941406 116.296875 428.574219 115.601562 429.238281 114.9375 C 429.902344 114.273438 430.597656 113.640625 431.324219 113.046875 C 432.050781 112.449219 432.804688 111.890625 433.589844 111.367188 C 434.371094 110.84375 435.175781 110.359375 436.003906 109.917969 C 436.832031 109.472656 437.683594 109.070312 438.550781 108.710938 C 439.417969 108.351562 440.304688 108.035156 441.203125 107.761719 C 442.101562 107.488281 443.011719 107.257812 443.933594 107.074219 C 444.855469 106.890625 445.785156 106.75 446.722656 106.660156 C 447.65625 106.566406 448.59375 106.519531 449.535156 106.519531 Z M 449.535156 106.519531 " fill-opacity="1" fill-rule="nonzero"/></svg>