<svg xmlns="http://www.w3.org/2000/svg" xmlns:xlink="http://www.w3.org/1999/xlink" width="1080" zoomAndPan="magnify" viewBox="0 0 810 817.92" height="1080" preserveAspectRatio="xMidYMid meet" version="1.0"><defs><clipPath id="563613f048"><path d="M 132.273438 153.027344 L 677 153.027344 L 677 656.980469 L 132.273438 656.980469 Z M 132.273438 153.027344 " clip-rule="nonzero"/></clipPath></defs><g clip-path="url(#563613f048)"><path fill="#05439a" d="M 626.570312 444.648438 L 626.570312 396.179688 C 626.570312 336.15625 601.960938 278.882812 558.683594 237.410156 C 563.515625 232.578125 566.65625 227.96875 566.265625 220.386719 C 565.960938 214.746094 563.265625 209.496094 558.878906 205.996094 C 516.046875 171.832031 461.386719 153.027344 404.945312 153.027344 C 387.335938 153.027344 369.78125 154.832031 352.78125 158.390625 C 339.726562 161.140625 343.921875 180.914062 356.917969 178.109375 C 372.585938 174.832031 388.75 173.167969 404.972656 173.167969 C 456.886719 173.167969 507.078125 190.414062 546.183594 221.46875 C 541.324219 226.300781 534.378906 233.414062 529.4375 237.605469 C 493.382812 208.496094 450.332031 193.109375 405 193.109375 C 359.613281 193.109375 316.53125 208.523438 280.285156 237.882812 L 263.621094 221.746094 C 275.0625 212.609375 287.5625 204.582031 300.785156 197.859375 C 312.644531 191.804688 303.535156 173.832031 291.644531 179.886719 C 277.230469 187.25 263.5625 196.027344 251.039062 205.996094 C 246.648438 209.496094 243.953125 214.746094 243.648438 220.386719 C 243.230469 227.941406 246.371094 232.578125 251.203125 237.410156 C 207.929688 278.882812 183.320312 336.128906 183.320312 396.179688 L 183.320312 444.675781 C 153.988281 457.953125 133.378906 485.589844 132.933594 517.367188 L 132.933594 577.167969 C 132.292969 621.804688 170.710938 656.71875 217.484375 656.71875 C 238.566406 656.71875 253.59375 641.386719 253.816406 625.5 L 253.816406 466.980469 C 254.039062 450.425781 240.425781 436.316406 221.179688 436.148438 C 215.09375 436.234375 209.179688 436.871094 203.429688 438.039062 L 203.429688 396.179688 C 203.429688 341.488281 225.929688 289.351562 265.453125 251.632812 C 269.871094 256.050781 274.703125 257.992188 280.117188 257.992188 C 284.644531 257.992188 289.230469 256.464844 293.007812 253.410156 C 325.476562 227.164062 364.167969 213.300781 404.917969 213.300781 C 445.609375 213.300781 484.273438 227.136719 516.714844 253.355469 C 524.242188 259.410156 535.296875 260.078125 544.269531 251.578125 C 583.847656 289.296875 606.402344 341.488281 606.402344 396.234375 L 606.402344 438.148438 C 600.652344 436.984375 594.710938 436.34375 588.65625 436.261719 C 568.90625 436.734375 555.796875 450.816406 556.046875 466.953125 L 556.046875 625.75 C 556.296875 642.386719 572.433594 656.609375 591.292969 656.828125 C 591.65625 656.828125 592.015625 656.828125 592.347656 656.828125 C 639.429688 656.828125 677.539062 621.609375 676.898438 577.417969 L 676.898438 517.3125 C 676.484375 485.535156 655.902344 457.953125 626.570312 444.648438 Z M 221.429688 456.34375 C 221.484375 456.34375 221.539062 456.34375 221.59375 456.34375 C 227.957031 456.34375 233.761719 460.566406 233.675781 466.871094 L 233.675781 625.386719 C 233.621094 630.027344 227.148438 636.582031 217.511719 636.582031 C 181.929688 636.554688 152.625 610.832031 153.097656 577.335938 L 153.097656 517.53125 C 153.542969 484.230469 184.234375 456.757812 221.429688 456.34375 Z M 656.789062 577.472656 C 657.261719 611.054688 627.542969 636.886719 591.542969 636.582031 C 584.042969 636.496094 576.292969 630.859375 576.210938 625.527344 L 576.210938 466.730469 C 576.128906 460.566406 581.988281 456.34375 588.292969 456.34375 C 588.347656 456.34375 588.40625 456.34375 588.460938 456.34375 C 625.679688 456.785156 656.34375 484.230469 656.816406 517.367188 Z M 656.789062 577.472656 " fill-opacity="1" fill-rule="nonzero"/></g><path fill="#05439a" d="M 420.972656 626.441406 L 404.972656 516.394531 L 388.804688 610.832031 C 386.613281 623.832031 366.945312 623.972656 364.335938 611.195312 L 349.363281 537.53125 L 338.894531 562.890625 C 336.726562 568.140625 331.28125 571.558594 325.03125 571.558594 L 279.398438 571.558594 C 266.09375 571.558594 266.0625 551.417969 279.398438 551.417969 L 321.8125 551.417969 L 340.253906 506.671875 C 344.726562 495.894531 361.695312 497.089844 364.03125 508.757812 L 375.835938 566.890625 L 393.277344 465.09375 C 395.5 452.121094 415.914062 451.871094 417.859375 465.371094 L 433.636719 573.75 L 447.359375 488.507812 C 449.386719 476.175781 467.746094 474.871094 471.550781 486.867188 L 491.996094 551.390625 L 530.464844 551.390625 C 543.769531 551.390625 543.796875 571.53125 530.464844 571.53125 L 488.410156 571.53125 C 481.746094 571.53125 476.023438 567.640625 474.191406 561.835938 L 462.105469 523.726562 L 445.582031 626.554688 C 443.414062 639.996094 422.914062 639.859375 420.972656 626.441406 Z M 420.972656 626.441406 " fill-opacity="1" fill-rule="nonzero"/><path fill="#05439a" d="M 334.421875 175.722656 C 334.421875 181.277344 329.921875 185.804688 324.339844 185.804688 C 318.78125 185.804688 314.253906 181.304688 314.253906 175.722656 C 314.253906 170.136719 318.753906 165.640625 324.339844 165.640625 C 329.921875 165.667969 334.421875 170.167969 334.421875 175.722656 Z M 334.421875 175.722656 " fill-opacity="1" fill-rule="nonzero"/></svg>