<svg xmlns="http://www.w3.org/2000/svg" xmlns:xlink="http://www.w3.org/1999/xlink" width="1080" zoomAndPan="magnify" viewBox="0 0 810 817.92" height="1080" preserveAspectRatio="xMidYMid meet" version="1.0"><defs><clipPath id="810952e06c"><path d="M 132 144.070312 L 677 144.070312 L 677 666 L 132 666 Z M 132 144.070312 " clip-rule="nonzero"/></clipPath></defs><g clip-path="url(#810952e06c)"><path fill="#05439a" d="M 653.113281 375.503906 C 640.199219 390.890625 625.691406 404.480469 609.996094 415.875 C 598.511719 424.210938 586.210938 429.433594 573.445312 431.394531 C 566.425781 432.472656 560.164062 436.371094 555.816406 442.375 C 551.003906 449.015625 549.039062 457.644531 550.429688 466.03125 C 556.480469 502.511719 568.441406 523.148438 582.296875 547.039062 C 585.886719 553.226562 589.558594 559.558594 593.367188 566.53125 C 584.273438 568.21875 575.277344 569.195312 566.519531 569.453125 C 562.082031 569.585938 558.550781 573.203125 558.519531 577.644531 L 558.167969 632.234375 C 558.121094 639.933594 552.980469 646.203125 546.710938 646.203125 C 544.078125 646.203125 541.484375 645.050781 539.402344 642.964844 C 536.742188 640.285156 535.226562 636.414062 535.25 632.335938 L 535.601562 574.203125 C 535.625 570.296875 532.90625 566.910156 529.085938 566.089844 C 517.984375 563.71875 506.878906 560.035156 496.085938 555.160156 C 493.785156 554.121094 491.140625 554.1875 488.902344 555.351562 C 486.660156 556.507812 485.078125 558.628906 484.601562 561.105469 L 469.882812 637.410156 C 468.789062 643.082031 466.101562 646.921875 462.109375 648.527344 C 458.25 650.085938 454.230469 649.195312 452.132812 647.714844 C 447.722656 644.597656 446.96875 634.832031 448.492188 627.222656 L 465.265625 543.609375 C 465.90625 540.429688 464.617188 537.171875 461.980469 535.289062 C 454.597656 530.007812 447.148438 524.011719 439.78125 517.441406 L 468.542969 416.769531 C 472.964844 401.292969 469.425781 384.921875 458.839844 371.835938 C 445.402344 355.21875 434.078125 336.480469 426.101562 317.652344 C 423.550781 311.625 421.023438 305.445312 418.570312 299.246094 C 421.769531 291.398438 424.328125 283.777344 426.015625 276.496094 C 442.222656 312.109375 461.417969 344.832031 496.855469 370.035156 C 547.113281 405.789062 601.195312 403.144531 645.246094 362.785156 C 646.320312 361.792969 647.539062 361.34375 648.773438 361.472656 C 650.113281 361.609375 651.386719 362.429688 652.359375 363.785156 L 653.425781 365.265625 C 655.566406 368.242188 655.429688 372.742188 653.113281 375.503906 Z M 362.347656 367.878906 C 388.222656 325.5625 420.425781 272.90625 409.835938 246.929688 C 408.910156 244.664062 408.226562 244.046875 405.257812 242.828125 C 402.773438 241.800781 400.132812 243.230469 398.839844 246.296875 C 378.964844 293.378906 360.191406 337.84375 314.925781 370.039062 C 262.101562 407.617188 199.679688 381.050781 158.871094 343.660156 C 157.75 342.636719 156.839844 342.339844 155.910156 342.339844 C 155.707031 342.339844 155.5 342.351562 155.289062 342.378906 C 153.828125 342.542969 153.222656 342.617188 150.683594 346.140625 C 148.542969 349.121094 148.679688 353.613281 150.996094 356.378906 C 175.191406 385.214844 198.085938 400.414062 227.074219 419.660156 L 228.492188 420.597656 C 240.089844 428.300781 245.90625 439.503906 244.457031 451.320312 L 238.117188 502.929688 C 237.726562 506.128906 237.355469 509.195312 237 512.183594 C 235.867188 521.707031 234.792969 530.703125 233.207031 540.832031 L 220.179688 623.796875 C 218.671875 633.421875 218.429688 640.632812 222.164062 644.585938 C 225.050781 647.636719 229.355469 649.21875 232.628906 648.429688 C 236.472656 647.503906 238.476562 643.203125 239.484375 639.765625 L 259.738281 570.5625 C 263.199219 558.734375 273.921875 550.6875 287.054688 550.050781 C 299.726562 549.441406 310.144531 558.367188 314.960938 573.945312 L 333.300781 633.261719 C 335.347656 639.878906 340.035156 647.203125 346.503906 646.0625 C 352.808594 644.960938 357.246094 637.605469 356.195312 630.003906 C 354.5625 618.21875 351.359375 600.808594 347.652344 580.648438 C 338.101562 528.6875 326.214844 464.023438 330.617188 438.300781 C 331.820312 431.292969 334.628906 414.878906 345.398438 396.128906 C 350.453125 387.324219 356.230469 377.878906 362.347656 367.878906 Z M 233.304688 322.089844 C 233.304688 298.203125 252.738281 278.765625 276.625 278.765625 C 300.511719 278.765625 319.945312 298.203125 319.945312 322.089844 C 319.945312 345.972656 300.511719 365.414062 276.625 365.414062 C 252.738281 365.410156 233.304688 345.972656 233.304688 322.089844 Z M 460.394531 219.433594 C 455.730469 207.34375 457.109375 192.988281 464.476562 176.589844 C 469.011719 186.902344 476.371094 193.5625 483.582031 200.085938 C 486.722656 202.929688 489.976562 205.871094 492.960938 209.121094 C 501.234375 218.136719 504.164062 228.417969 501.898438 240.445312 L 484.144531 247.539062 C 474.996094 240.578125 465.007812 231.371094 460.394531 219.433594 Z M 501.246094 272.863281 L 494.679688 261.082031 L 505.304688 256.832031 L 511.160156 267.324219 C 507.667969 268.863281 504.351562 270.714844 501.246094 272.863281 Z M 578.46875 322.089844 C 578.46875 298.203125 559.039062 278.765625 535.152344 278.765625 C 511.261719 278.765625 491.824219 298.203125 491.824219 322.089844 C 491.824219 345.972656 511.261719 365.414062 535.152344 365.414062 C 559.039062 365.410156 578.46875 345.972656 578.46875 322.089844 Z M 586.410156 271.789062 L 576.070312 278.539062 C 578.863281 281.15625 581.398438 284.042969 583.644531 287.15625 L 593.84375 280.496094 Z M 619.515625 235.292969 C 623.675781 233.804688 627.921875 232.707031 632.027344 231.648438 C 641.441406 229.230469 651.054688 226.757812 659.867188 219.726562 C 658.761719 237.679688 653.308594 251.03125 643.5625 259.5625 C 633.929688 267.992188 620.804688 271.496094 609.464844 273.40625 L 597.046875 258.871094 C 600.632812 247.167969 608.003906 239.421875 619.515625 235.292969 Z M 665.730469 354.15625 C 662.019531 349 656.453125 345.695312 650.453125 345.074219 C 644.496094 344.457031 638.6875 346.433594 634.105469 350.632812 C 610.351562 372.40625 583.910156 381.488281 556.773438 377.824219 C 579.089844 369.140625 594.953125 347.441406 594.953125 322.09375 C 594.953125 314.960938 593.695312 308.117188 591.394531 301.78125 L 609.226562 290.125 C 623.378906 287.984375 640.832031 283.847656 654.414062 271.964844 C 672.011719 256.5625 679.171875 231.089844 675.695312 196.261719 C 675.332031 192.640625 672.640625 189.683594 669.070312 188.988281 C 665.503906 188.296875 661.894531 190.023438 660.199219 193.238281 C 651.605469 209.59375 641.667969 212.148438 627.917969 215.6875 C 623.445312 216.84375 618.828125 218.035156 613.945312 219.785156 C 597.03125 225.851562 585.617188 238.265625 580.761719 255.796875 L 561.445312 268.394531 C 553.503906 264.488281 544.578125 262.285156 535.148438 262.285156 C 532.554688 262.285156 530.011719 262.464844 527.503906 262.789062 L 517.734375 245.292969 C 521.585938 227.519531 517.257812 211.226562 505.101562 197.980469 C 501.597656 194.164062 498.058594 190.960938 494.636719 187.867188 C 484.109375 178.339844 476.5 171.453125 476.492188 152.980469 C 476.488281 149.34375 474.101562 146.136719 470.617188 145.09375 C 467.132812 144.050781 463.375 145.410156 461.371094 148.445312 C 442.097656 177.667969 436.59375 203.550781 445.019531 225.363281 C 451.515625 242.203125 465.042969 253.976562 476.574219 262.457031 L 488.785156 284.363281 C 480.390625 294.660156 475.34375 307.792969 475.34375 322.089844 C 475.34375 324.039062 475.441406 325.96875 475.628906 327.875 C 454.464844 302.273438 441.550781 271.710938 428.121094 239.890625 C 424.1875 230.570312 415.167969 225.089844 405.832031 226.15625 C 396.683594 225.183594 387.621094 230.484375 383.648438 239.890625 C 370.21875 271.710938 357.300781 302.273438 336.140625 327.875 C 336.324219 325.96875 336.429688 324.039062 336.429688 322.089844 C 336.429688 289.113281 309.597656 262.285156 276.621094 262.285156 C 243.648438 262.285156 216.820312 289.113281 216.820312 322.089844 C 216.820312 341.5625 226.179688 358.886719 240.636719 369.8125 C 214.652344 364.734375 189.601562 349.460938 170 331.5 C 165.289062 327.183594 159.539062 325.289062 153.378906 326 C 144.8125 327 140.589844 331.945312 137.308594 336.503906 C 130.75 345.605469 131.195312 358.421875 138.367188 366.96875 C 164.089844 397.625 187.863281 413.402344 217.953125 433.382812 L 219.367188 434.324219 C 223.015625 436.75 229.003906 441.917969 228.09375 449.308594 L 221.75 500.917969 C 221.355469 504.136719 220.988281 507.222656 220.632812 510.230469 C 219.515625 519.597656 218.460938 528.449219 216.917969 538.269531 L 203.894531 621.242188 C 202.578125 629.636719 200.121094 645.261719 210.179688 655.90625 C 215.734375 661.78125 223.429688 665.105469 230.894531 665.105469 C 232.78125 665.105469 234.660156 664.886719 236.480469 664.453125 C 241.683594 663.195312 251.042969 658.925781 255.296875 644.390625 L 275.550781 575.1875 C 277.320312 569.144531 283.066406 566.738281 287.851562 566.507812 C 294.578125 566.183594 298.035156 575 299.210938 578.808594 L 317.550781 638.128906 C 322.847656 655.261719 335.328125 664.753906 349.339844 662.296875 C 364.394531 659.660156 374.785156 644.160156 372.515625 627.746094 C 370.832031 615.597656 367.601562 598.015625 363.859375 577.664062 C 355.03125 529.664062 342.945312 463.917969 346.859375 441.078125 C 348.597656 430.925781 351.484375 418.621094 359.6875 404.335938 C 364.628906 395.730469 370.347656 386.378906 376.402344 376.476562 C 387.695312 358.007812 399.570312 338.589844 409.105469 319.765625 C 409.707031 321.207031 410.3125 322.652344 410.917969 324.085938 C 419.484375 344.304688 431.625 364.40625 446.019531 382.199219 C 453.183594 391.058594 455.613281 402.003906 452.691406 412.242188 L 422.523438 517.839844 C 421.667969 520.828125 422.570312 524.046875 424.859375 526.15625 C 432.511719 533.222656 440.296875 539.726562 448.0625 545.535156 L 432.328125 623.988281 C 429.902344 636.070312 431.140625 653.0625 442.613281 661.171875 C 446.933594 664.226562 452.355469 665.808594 457.847656 665.808594 C 461.378906 665.808594 464.9375 665.152344 468.257812 663.824219 C 477.5625 660.078125 483.886719 651.808594 486.0625 640.53125 L 498.859375 574.1875 C 505.53125 576.765625 512.292969 578.933594 519.078125 580.671875 L 518.765625 632.234375 C 518.714844 640.671875 521.976562 648.8125 527.710938 654.582031 C 532.902344 659.804688 539.648438 662.6875 546.703125 662.6875 C 562.003906 662.6875 574.539062 649.070312 574.648438 632.339844 L 574.945312 585.523438 C 585.699219 584.730469 596.679688 582.988281 607.707031 580.308594 C 610.160156 579.707031 612.207031 578.015625 613.257812 575.722656 C 614.304688 573.414062 614.242188 570.765625 613.082031 568.515625 C 607.238281 557.203125 601.558594 547.410156 596.550781 538.773438 C 582.964844 515.347656 572.238281 496.847656 566.683594 463.335938 C 566.003906 459.265625 566.90625 455.152344 569.152344 452.046875 C 570.898438 449.640625 573.308594 448.09375 575.941406 447.691406 C 591.328125 445.324219 606.039062 439.109375 619.667969 429.210938 C 636.453125 417.027344 651.953125 402.519531 665.730469 386.101562 C 672.902344 377.554688 673.347656 364.742188 666.789062 355.636719 Z M 665.730469 354.15625 " fill-opacity="1" fill-rule="evenodd"/></g></svg>