<svg xmlns="http://www.w3.org/2000/svg" xmlns:xlink="http://www.w3.org/1999/xlink" width="1080" zoomAndPan="magnify" viewBox="0 0 810 817.92" height="1080" preserveAspectRatio="xMidYMid meet" version="1.0"><defs><clipPath id="5c7ffe532a"><path d="M 177 123.082031 L 633.386719 123.082031 L 633.386719 687 L 177 687 Z M 177 123.082031 " clip-rule="nonzero"/></clipPath></defs><g clip-path="url(#5c7ffe532a)"><path fill="#05439a" d="M 557.296875 497.660156 L 557.296875 191.921875 C 557.296875 179.546875 547.230469 169.488281 534.855469 169.488281 L 435.28125 169.488281 L 435.28125 165.304688 C 435.28125 155.679688 427.363281 147.835938 417.609375 147.835938 L 398.441406 147.835938 C 395.125 133.792969 382.476562 123.289062 367.425781 123.289062 C 352.378906 123.289062 339.726562 133.78125 336.410156 147.835938 L 317.253906 147.835938 C 307.511719 147.835938 299.582031 155.679688 299.582031 165.304688 L 299.582031 169.488281 L 199.902344 169.488281 C 187.632812 169.488281 177.664062 179.507812 177.664062 191.824219 L 177.664062 664.179688 C 177.664062 676.558594 187.683594 686.613281 200 686.613281 L 534.941406 686.613281 C 537.613281 686.613281 540.21875 685.949219 542.695312 685.015625 C 543.582031 685.171875 544.410156 685.316406 545.007812 685.386719 C 548.839844 686.214844 552.398438 686.613281 555.910156 686.613281 C 578.109375 686.613281 598.523438 675.554688 613.398438 655.460938 C 626.203125 638.082031 633.265625 615.582031 633.265625 592.113281 C 633.265625 563.476562 622.847656 536.703125 604.679688 518.671875 C 591.453125 505.433594 574.667969 498.042969 557.285156 497.671875 Z M 314.242188 176.804688 L 314.242188 165.304688 C 314.242188 163.746094 315.605469 162.46875 317.285156 162.46875 L 342.90625 162.46875 C 346.945312 162.46875 350.222656 159.191406 350.222656 155.152344 C 350.222656 145.652344 357.957031 137.917969 367.457031 137.917969 C 376.957031 137.917969 384.691406 145.652344 384.691406 155.152344 C 384.691406 159.191406 387.96875 162.46875 392.003906 162.46875 L 417.636719 162.46875 C 419.316406 162.46875 420.679688 163.746094 420.679688 165.304688 L 420.679688 176.757812 C 420.679688 176.757812 420.679688 176.785156 420.679688 176.804688 L 420.679688 199.335938 C 420.679688 199.882812 420.359375 200.292969 420.105469 200.730469 C 419.578125 201.636719 418.777344 202.359375 417.65625 202.359375 L 317.3125 202.359375 C 315.636719 202.359375 314.269531 200.992188 314.269531 199.316406 L 314.269531 176.804688 Z M 200.03125 671.984375 C 195.84375 671.984375 192.324219 668.414062 192.324219 664.179688 L 192.324219 191.824219 C 192.324219 187.574219 195.738281 184.121094 199.933594 184.121094 L 299.613281 184.121094 L 299.613281 199.335938 C 299.613281 209.070312 307.53125 217 317.273438 217 L 417.636719 217 C 424.269531 217 429.996094 213.273438 433.007812 207.851562 C 434.421875 205.3125 435.300781 202.425781 435.300781 199.324219 L 435.300781 184.128906 L 534.875 184.128906 C 539.105469 184.128906 542.6875 187.699219 542.6875 191.933594 L 542.6875 498.96875 C 542.492188 499.007812 542.316406 499.097656 542.121094 499.136719 C 540.070312 499.574219 538.109375 500.199219 536.152344 500.859375 C 535.867188 494.21875 534.882812 487.644531 533 481.238281 C 530.464844 472.566406 526.535156 464.402344 521.316406 456.960938 C 518.996094 453.664062 514.441406 452.855469 511.125 455.167969 C 507.816406 457.488281 507.015625 462.050781 509.328125 465.359375 C 513.628906 471.492188 516.867188 478.214844 518.957031 485.351562 C 520.4375 490.425781 521.246094 495.769531 521.511719 501.132812 C 514.808594 498.882812 507.933594 497.605469 501.019531 497.605469 C 494.300781 497.605469 487.726562 498.648438 481.414062 500.636719 C 462.503906 506.617188 446.050781 521.1875 435.40625 542.058594 C 435.40625 542.058594 435.40625 542.058594 435.40625 542.070312 C 434.929688 542.996094 434.597656 544.011719 434.148438 544.945312 C 429.183594 555.402344 425.8125 566.863281 424.4375 578.867188 C 423.9375 583.226562 423.683594 587.65625 423.683594 592.113281 C 423.683594 595.925781 423.929688 599.671875 424.289062 603.371094 C 424.398438 604.492188 424.5625 605.59375 424.707031 606.695312 C 425.039062 609.320312 425.460938 611.902344 425.96875 614.449219 C 426.199219 615.601562 426.425781 616.75 426.6875 617.882812 C 427.324219 620.621094 428.074219 623.304688 428.902344 625.9375 C 429.136719 626.679688 429.320312 627.441406 429.574219 628.171875 C 430.699219 631.488281 431.976562 634.695312 433.390625 637.816406 C 433.722656 638.550781 434.109375 639.242188 434.460938 639.964844 C 435.601562 642.335938 436.824219 644.644531 438.128906 646.871094 C 438.675781 647.804688 439.242188 648.710938 439.816406 649.621094 C 441.105469 651.660156 442.449219 653.609375 443.863281 655.511719 C 444.441406 656.28125 444.984375 657.070312 445.582031 657.824219 C 447.601562 660.359375 449.695312 662.796875 451.929688 665.050781 C 452.058594 665.175781 452.203125 665.285156 452.332031 665.410156 C 454.445312 667.507812 456.660156 669.449219 458.953125 671.273438 C 459.226562 671.488281 459.460938 671.761719 459.742188 671.964844 L 200.03125 671.964844 Z M 601.644531 646.761719 C 589.609375 663.03125 573.371094 671.984375 555.921875 671.984375 C 553.464844 671.984375 550.90625 671.691406 547.550781 670.980469 C 546.226562 670.792969 544.8125 670.519531 544.0625 670.402344 C 541.90625 669.800781 539.835938 669.105469 537.183594 668.035156 C 530.660156 665.964844 526.894531 665.769531 519.269531 668.25 C 513.347656 670.714844 507.210938 671.972656 501.019531 671.972656 C 466.441406 671.972656 438.304688 636.140625 438.304688 592.105469 C 438.304688 576.585938 441.796875 561.59375 448.429688 548.710938 C 463.273438 519.585938 491.265625 505.398438 518.605469 515.460938 C 520.554688 516.105469 522.710938 517.109375 524.828125 518.347656 C 527.324219 519.800781 530.6875 519.527344 532.875 517.949219 C 534.589844 517.042969 536.558594 516.085938 538.773438 515.335938 C 542.65625 513.8125 546.519531 512.917969 551.53125 512.4375 C 551.921875 512.359375 552.28125 512.3125 553.199219 512.28125 C 554.019531 512.222656 554.78125 512.214844 555.519531 512.214844 C 569.859375 511.773438 583.269531 517.910156 594.359375 529.019531 C 609.789062 544.339844 618.636719 567.339844 618.636719 592.105469 C 618.636719 612.46875 612.597656 631.886719 601.636719 646.761719 Z M 601.644531 646.761719 " fill-opacity="1" fill-rule="nonzero"/></g><path fill="#05439a" d="M 403.40625 538.03125 L 328.6875 538.03125 C 324.648438 538.03125 321.371094 541.308594 321.371094 545.347656 C 321.371094 549.382812 324.648438 552.660156 328.6875 552.660156 L 403.40625 552.660156 C 407.445312 552.660156 410.722656 549.382812 410.722656 545.347656 C 410.722656 541.308594 407.445312 538.03125 403.40625 538.03125 Z M 403.40625 538.03125 " fill-opacity="1" fill-rule="nonzero"/><path fill="#05439a" d="M 290.960938 477.09375 L 230.019531 477.09375 C 225.984375 477.09375 222.707031 480.371094 222.707031 484.40625 L 222.707031 545.347656 C 222.707031 549.382812 225.984375 552.660156 230.019531 552.660156 L 290.960938 552.660156 C 295 552.660156 298.277344 549.382812 298.277344 545.347656 L 298.277344 484.40625 C 298.277344 480.371094 295 477.09375 290.960938 477.09375 Z M 283.644531 538.03125 L 237.335938 538.03125 L 237.335938 491.722656 L 283.644531 491.722656 Z M 283.644531 538.03125 " fill-opacity="1" fill-rule="nonzero"/><path fill="#05439a" d="M 403.40625 477.09375 L 328.6875 477.09375 C 324.648438 477.09375 321.371094 480.371094 321.371094 484.40625 C 321.371094 488.445312 324.648438 491.722656 328.6875 491.722656 L 403.40625 491.722656 C 407.445312 491.722656 410.722656 488.445312 410.722656 484.40625 C 410.722656 480.371094 407.445312 477.09375 403.40625 477.09375 Z M 403.40625 477.09375 " fill-opacity="1" fill-rule="nonzero"/><path fill="#05439a" d="M 290.960938 361.25 L 230.019531 361.25 C 225.984375 361.25 222.707031 364.527344 222.707031 368.566406 L 222.707031 429.503906 C 222.707031 433.542969 225.984375 436.820312 230.019531 436.820312 L 290.960938 436.820312 C 295 436.820312 298.277344 433.542969 298.277344 429.503906 L 298.277344 368.566406 C 298.277344 364.527344 295 361.25 290.960938 361.25 Z M 283.644531 422.191406 L 237.335938 422.191406 L 237.335938 375.882812 L 283.644531 375.882812 Z M 283.644531 422.191406 " fill-opacity="1" fill-rule="nonzero"/><path fill="#05439a" d="M 290.960938 245.410156 L 230.019531 245.410156 C 225.984375 245.410156 222.707031 248.6875 222.707031 252.726562 L 222.707031 313.65625 C 222.707031 317.691406 225.984375 320.96875 230.019531 320.96875 L 290.960938 320.96875 C 295 320.96875 298.277344 317.691406 298.277344 313.65625 L 298.277344 252.726562 C 298.277344 248.6875 295 245.410156 290.960938 245.410156 Z M 283.644531 306.339844 L 237.335938 306.339844 L 237.335938 260.039062 L 283.644531 260.039062 Z M 283.644531 306.339844 " fill-opacity="1" fill-rule="nonzero"/><path fill="#05439a" d="M 328.6875 260.039062 L 403.40625 260.039062 C 407.445312 260.039062 410.722656 256.761719 410.722656 252.726562 C 410.722656 248.6875 407.445312 245.410156 403.40625 245.410156 L 328.6875 245.410156 C 324.648438 245.410156 321.371094 248.6875 321.371094 252.726562 C 321.371094 256.761719 324.648438 260.039062 328.6875 260.039062 Z M 328.6875 260.039062 " fill-opacity="1" fill-rule="nonzero"/><path fill="#05439a" d="M 328.6875 320.96875 L 504.96875 320.96875 C 509.007812 320.96875 512.285156 317.691406 512.285156 313.65625 C 512.285156 309.617188 509.007812 306.339844 504.96875 306.339844 L 328.6875 306.339844 C 324.648438 306.339844 321.371094 309.617188 321.371094 313.65625 C 321.371094 317.691406 324.648438 320.96875 328.6875 320.96875 Z M 328.6875 320.96875 " fill-opacity="1" fill-rule="nonzero"/><path fill="#05439a" d="M 328.6875 375.882812 L 403.40625 375.882812 C 407.445312 375.882812 410.722656 372.605469 410.722656 368.566406 C 410.722656 364.527344 407.445312 361.25 403.40625 361.25 L 328.6875 361.25 C 324.648438 361.25 321.371094 364.527344 321.371094 368.566406 C 321.371094 372.605469 324.648438 375.882812 328.6875 375.882812 Z M 328.6875 375.882812 " fill-opacity="1" fill-rule="nonzero"/><path fill="#05439a" d="M 328.6875 436.820312 L 504.96875 436.820312 C 509.007812 436.820312 512.285156 433.542969 512.285156 429.503906 C 512.285156 425.46875 509.007812 422.191406 504.96875 422.191406 L 328.6875 422.191406 C 324.648438 422.191406 321.371094 425.46875 321.371094 429.503906 C 321.371094 433.542969 324.648438 436.820312 328.6875 436.820312 Z M 328.6875 436.820312 " fill-opacity="1" fill-rule="nonzero"/></svg>