<svg xmlns="http://www.w3.org/2000/svg" xmlns:xlink="http://www.w3.org/1999/xlink" width="1080" zoomAndPan="magnify" viewBox="0 0 810 817.92" height="1080" preserveAspectRatio="xMidYMid meet" version="1.0"><defs><clipPath id="8546909d71"><path d="M 184 148.722656 L 231 148.722656 L 231 660.921875 L 184 660.921875 Z M 184 148.722656 " clip-rule="nonzero"/></clipPath><clipPath id="fe9c79e935"><path d="M 361 363 L 625.699219 363 L 625.699219 660.921875 L 361 660.921875 Z M 361 363 " clip-rule="nonzero"/></clipPath><clipPath id="b23d2a0503"><path d="M 249 148.722656 L 593 148.722656 L 593 384 L 249 384 Z M 249 148.722656 " clip-rule="nonzero"/></clipPath><clipPath id="6a1ec94fbc"><path d="M 442 148.722656 L 532 148.722656 L 532 251 L 442 251 Z M 442 148.722656 " clip-rule="nonzero"/></clipPath></defs><g clip-path="url(#8546909d71)"><path fill="#05439a" d="M 217.683594 661.195312 C 214.625 661.195312 211.753906 659.3125 210.636719 656.277344 C 169.8125 545.15625 185.074219 476.96875 199.835938 411.019531 C 214.746094 344.4375 230.15625 275.589844 189.023438 158.71875 C 187.644531 154.808594 189.699219 150.523438 193.609375 149.148438 C 197.523438 147.773438 201.804688 149.828125 203.179688 153.734375 C 245.746094 274.667969 229.851562 345.652344 214.484375 414.300781 C 199.539062 481.066406 185.421875 544.128906 224.726562 651.101562 C 226.15625 654.992188 224.160156 659.304688 220.269531 660.730469 C 219.417969 661.046875 218.542969 661.195312 217.683594 661.195312 Z M 217.683594 661.195312 " fill-opacity="1" fill-rule="nonzero"/></g><g clip-path="url(#fe9c79e935)"><path fill="#05439a" d="M 453.128906 661.191406 C 422.648438 661.191406 392.984375 653.253906 364.921875 637.585938 C 361.304688 635.5625 360.011719 630.992188 362.03125 627.371094 C 364.050781 623.753906 368.625 622.460938 372.242188 624.480469 C 398.511719 639.148438 426.296875 646.457031 454.679688 646.175781 C 480.957031 645.921875 507.039062 638.9375 530.097656 625.972656 C 578.363281 598.847656 608.414062 549.542969 610.488281 494.089844 C 612.015625 453.214844 595.164062 411.480469 563.035156 376.574219 C 560.230469 373.523438 560.425781 368.777344 563.476562 365.96875 C 566.527344 363.160156 571.273438 363.359375 574.078125 366.410156 C 608.910156 404.25 627.164062 449.792969 625.484375 494.652344 C 623.214844 555.367188 590.304688 609.351562 537.453125 639.058594 C 512.195312 653.253906 483.621094 660.90625 454.824219 661.183594 C 454.261719 661.1875 453.695312 661.191406 453.132812 661.191406 Z M 453.128906 661.191406 " fill-opacity="1" fill-rule="nonzero"/></g><path fill="#05439a" d="M 472.285156 591.792969 C 471.441406 591.792969 470.597656 591.648438 469.789062 591.363281 C 391.613281 563.773438 378.265625 516.855469 376.152344 497.964844 C 373.242188 471.925781 384.046875 447.8125 404.347656 435.03125 C 423.957031 422.683594 448.507812 423.355469 472.285156 436.722656 C 496.066406 423.355469 520.617188 422.683594 540.226562 435.03125 C 560.527344 447.8125 571.332031 471.929688 568.421875 497.964844 C 566.308594 516.855469 552.960938 563.773438 474.785156 591.363281 C 473.976562 591.648438 473.132812 591.792969 472.285156 591.792969 Z M 435.179688 441.28125 C 426.949219 441.28125 419.191406 443.421875 412.34375 447.734375 C 396.957031 457.421875 388.804688 476.03125 391.070312 496.300781 C 392.84375 512.183594 404.335938 551.488281 472.285156 576.3125 C 540.238281 551.488281 551.730469 512.183594 553.503906 496.300781 C 555.769531 476.03125 547.617188 457.421875 532.230469 447.734375 C 516.582031 437.882812 496.183594 439.367188 476.261719 451.8125 C 473.828125 453.332031 470.746094 453.332031 468.3125 451.8125 C 457.109375 444.8125 445.753906 441.28125 435.179688 441.28125 Z M 435.179688 441.28125 " fill-opacity="1" fill-rule="nonzero"/><g clip-path="url(#b23d2a0503)"><path fill="#05439a" d="M 375.539062 383.085938 C 356.96875 383.085938 338.785156 377.675781 322.964844 367.246094 C 301.960938 353.40625 287.441406 332.25 282.074219 307.675781 L 249.359375 157.828125 C 248.476562 153.777344 251.042969 149.78125 255.09375 148.894531 C 259.140625 148.011719 263.140625 150.578125 264.023438 154.628906 L 296.738281 304.472656 C 301.265625 325.199219 313.511719 343.042969 331.222656 354.714844 C 348.9375 366.386719 370.160156 370.605469 390.992188 366.59375 L 558.273438 334.355469 C 571.230469 331.855469 579.765625 319.277344 577.300781 306.3125 C 575.011719 294.28125 564.074219 285.917969 551.867188 286.878906 L 422.097656 296.992188 C 401.828125 298.566406 383.570312 284.742188 379.578125 264.832031 L 358.09375 157.703125 C 357.277344 153.636719 359.910156 149.683594 363.976562 148.867188 C 368.03125 148.054688 371.992188 150.6875 372.808594 154.75 L 394.292969 261.878906 C 396.796875 274.351562 408.234375 283.019531 420.933594 282.027344 L 550.699219 271.914062 C 570.546875 270.375 588.324219 283.949219 592.042969 303.503906 C 596.054688 324.582031 582.179688 345.03125 561.109375 349.089844 L 393.832031 381.328125 C 387.738281 382.503906 381.617188 383.082031 375.539062 383.082031 Z M 375.539062 383.085938 " fill-opacity="1" fill-rule="nonzero"/></g><g clip-path="url(#6a1ec94fbc)"><path fill="#05439a" d="M 524.128906 250.652344 C 520.210938 250.652344 516.910156 247.609375 516.648438 243.640625 C 515.597656 227.65625 508.921875 211.136719 497.851562 197.117188 C 485.410156 181.367188 468.1875 169.699219 448.046875 163.390625 C 444.09375 162.148438 441.890625 157.9375 443.132812 153.984375 C 444.371094 150.03125 448.582031 147.828125 452.539062 149.066406 C 503.980469 165.195312 529.328125 207.691406 531.625 242.65625 C 531.898438 246.792969 528.765625 250.367188 524.628906 250.636719 C 524.460938 250.648438 524.296875 250.65625 524.128906 250.65625 Z M 524.128906 250.652344 " fill-opacity="1" fill-rule="nonzero"/></g><path fill="#05439a" d="M 339.382812 502.808594 L 310.640625 502.808594 C 306.496094 502.808594 303.136719 499.449219 303.136719 495.304688 C 303.136719 491.160156 306.496094 487.796875 310.640625 487.796875 L 339.382812 487.796875 C 343.53125 487.796875 346.890625 491.160156 346.890625 495.304688 C 346.890625 499.449219 343.53125 502.808594 339.382812 502.808594 Z M 339.382812 502.808594 " fill-opacity="1" fill-rule="nonzero"/><path fill="#05439a" d="M 349.070312 476.652344 C 347.148438 476.652344 345.226562 475.921875 343.761719 474.457031 L 335.277344 465.972656 C 332.347656 463.042969 332.347656 458.289062 335.277344 455.359375 C 338.207031 452.429688 342.960938 452.429688 345.890625 455.359375 L 354.375 463.84375 C 357.304688 466.773438 357.304688 471.527344 354.375 474.457031 C 352.910156 475.921875 350.988281 476.652344 349.070312 476.652344 Z M 349.070312 476.652344 " fill-opacity="1" fill-rule="nonzero"/><path fill="#05439a" d="M 340.585938 537.449219 C 338.664062 537.449219 336.742188 536.714844 335.277344 535.25 C 332.347656 532.320312 332.347656 527.566406 335.277344 524.636719 L 343.761719 516.152344 C 346.691406 513.222656 351.445312 513.222656 354.375 516.152344 C 357.304688 519.082031 357.304688 523.835938 354.375 526.765625 L 345.890625 535.25 C 344.425781 536.714844 342.503906 537.449219 340.585938 537.449219 Z M 340.585938 537.449219 " fill-opacity="1" fill-rule="nonzero"/></svg>