<svg xmlns="http://www.w3.org/2000/svg" xmlns:xlink="http://www.w3.org/1999/xlink" width="1080" zoomAndPan="magnify" viewBox="0 0 810 817.92" height="1080" preserveAspectRatio="xMidYMid meet" version="1.0"><defs><clipPath id="ee9b3981c0"><path d="M 104.660156 194.347656 L 705.351562 194.347656 L 705.351562 615.804688 L 104.660156 615.804688 Z M 104.660156 194.347656 " clip-rule="nonzero"/></clipPath></defs><g clip-path="url(#ee9b3981c0)"><path fill="#05439a" d="M 457.152344 230.5625 L 147.53125 230.5625 C 143.40625 230.5625 140.050781 233.914062 140.050781 238.039062 L 140.050781 467.34375 C 140.050781 471.46875 143.40625 474.824219 147.53125 474.824219 L 457.152344 474.824219 C 461.277344 474.824219 464.632812 471.46875 464.632812 467.34375 L 464.632812 238.039062 C 464.632812 233.914062 461.277344 230.5625 457.152344 230.5625 Z M 449.675781 459.867188 L 155.007812 459.867188 L 155.007812 245.515625 L 449.675781 245.515625 Z M 183.246094 577 C 183.246094 572.875 186.597656 569.523438 190.722656 569.523438 L 203.859375 569.523438 C 207.984375 569.523438 211.335938 572.875 211.335938 577 C 211.335938 581.125 207.984375 584.476562 203.859375 584.476562 L 190.722656 584.476562 C 186.597656 584.476562 183.246094 581.125 183.246094 577 Z M 253.285156 577 C 253.285156 572.875 256.636719 569.523438 260.761719 569.523438 L 273.898438 569.523438 C 278.023438 569.523438 281.375 572.875 281.375 577 C 281.375 581.125 278.023438 584.476562 273.898438 584.476562 L 260.761719 584.476562 C 256.636719 584.476562 253.285156 581.125 253.285156 577 Z M 323.324219 577 C 323.324219 572.875 326.675781 569.523438 330.800781 569.523438 L 343.933594 569.523438 C 348.058594 569.523438 351.414062 572.875 351.414062 577 C 351.414062 581.125 348.058594 584.476562 343.933594 584.476562 L 330.800781 584.476562 C 326.675781 584.476562 323.324219 581.125 323.324219 577 Z M 393.359375 577 C 393.359375 572.875 396.710938 569.523438 400.835938 569.523438 L 413.972656 569.523438 C 418.097656 569.523438 421.449219 572.875 421.449219 577 C 421.449219 581.125 418.097656 584.476562 413.972656 584.476562 L 400.835938 584.476562 C 396.710938 584.476562 393.359375 581.125 393.359375 577 Z M 302.347656 420.625 C 348.394531 420.625 390.96875 395.625 413.449219 355.382812 C 415.082031 352.46875 414.570312 348.816406 412.203125 346.449219 L 352.707031 286.953125 C 350.578125 284.824219 347.386719 284.1875 344.609375 285.320312 C 331.1875 290.78125 316.964844 293.546875 302.335938 293.546875 C 287.707031 293.546875 273.484375 290.78125 260.0625 285.320312 C 257.273438 284.1875 254.082031 284.835938 251.964844 286.953125 L 192.46875 346.449219 C 190.101562 348.816406 189.601562 352.46875 191.222656 355.382812 C 213.703125 395.625 256.277344 420.625 302.324219 420.625 Z M 259.117188 300.960938 C 272.949219 305.972656 287.46875 308.5 302.347656 308.5 C 317.226562 308.5 331.746094 305.972656 345.578125 300.960938 L 397.535156 352.917969 C 377.070312 385.59375 341.105469 405.667969 302.347656 405.667969 C 263.589844 405.667969 227.613281 385.59375 207.160156 352.917969 Z M 642.207031 393.195312 L 642.207031 422.707031 C 642.207031 426.832031 638.851562 430.183594 634.726562 430.183594 C 630.601562 430.183594 627.25 426.832031 627.25 422.707031 L 627.25 393.195312 C 627.25 389.070312 630.601562 385.71875 634.726562 385.71875 C 638.851562 385.71875 642.207031 389.070312 642.207031 393.195312 Z M 692.203125 293.570312 C 676.738281 279.914062 656.324219 272.386719 634.726562 272.386719 C 613.132812 272.386719 592.71875 279.914062 577.253906 293.570312 C 575.644531 294.992188 574.722656 297.035156 574.722656 299.179688 L 574.722656 330.832031 C 574.722656 342.871094 578.996094 353.339844 587.421875 361.941406 L 597.003906 371.710938 C 599.746094 374.515625 601.03125 377.640625 601.03125 381.566406 L 601.03125 426.007812 C 601.03125 442.023438 612.257812 455.457031 627.25 458.859375 L 627.25 552 C 627.25 561.660156 619.386719 569.523438 609.730469 569.523438 C 600.070312 569.523438 592.207031 561.660156 592.207031 552 L 592.207031 502.539062 C 592.207031 484.628906 577.640625 470.0625 559.730469 470.0625 C 541.824219 470.0625 527.253906 484.628906 527.253906 502.539062 L 527.253906 552.011719 C 527.253906 561.671875 519.390625 569.535156 509.730469 569.535156 L 470.425781 569.535156 L 470.425781 553.347656 C 470.425781 545.183594 463.785156 538.542969 455.621094 538.542969 L 355.984375 538.542969 L 355.984375 510.824219 L 474.054688 510.824219 C 488.371094 510.824219 500.011719 499.1875 500.011719 484.867188 L 500.011719 220.53125 C 500.011719 206.210938 488.371094 194.570312 474.054688 194.570312 L 130.617188 194.570312 C 116.300781 194.570312 104.660156 206.210938 104.660156 220.53125 L 104.660156 484.84375 C 104.660156 499.160156 116.300781 510.800781 130.617188 510.800781 L 248.6875 510.800781 L 248.6875 538.515625 L 149.050781 538.515625 C 140.886719 538.515625 134.246094 545.160156 134.246094 553.320312 L 134.246094 600.664062 C 134.246094 608.828125 140.886719 615.472656 149.050781 615.472656 L 455.621094 615.472656 C 463.785156 615.472656 470.425781 608.828125 470.425781 600.664062 L 470.425781 584.476562 L 509.730469 584.476562 C 527.640625 584.476562 542.207031 569.910156 542.207031 552 L 542.207031 502.527344 C 542.207031 492.867188 550.074219 485.003906 559.730469 485.003906 C 569.390625 485.003906 577.253906 492.867188 577.253906 502.527344 L 577.253906 551.988281 C 577.253906 569.898438 591.820312 584.464844 609.730469 584.464844 C 627.636719 584.464844 642.207031 569.898438 642.207031 551.988281 L 642.207031 458.847656 C 657.199219 455.429688 668.425781 441.996094 668.425781 425.996094 L 668.425781 381.554688 C 668.425781 377.628906 669.710938 374.5 672.453125 371.699219 L 682.035156 361.925781 C 690.460938 353.328125 694.734375 342.859375 694.734375 330.820312 L 694.734375 299.167969 C 694.734375 297.023438 693.8125 294.980469 692.203125 293.558594 Z M 119.613281 484.84375 L 119.613281 220.53125 C 119.613281 214.460938 124.550781 209.527344 130.617188 209.527344 L 474.066406 209.527344 C 480.132812 209.527344 485.070312 214.460938 485.070312 220.53125 L 485.070312 484.84375 C 485.070312 490.910156 480.132812 495.847656 474.066406 495.847656 L 130.617188 495.847656 C 124.550781 495.847656 119.613281 490.910156 119.613281 484.84375 Z M 263.640625 510.8125 L 341.042969 510.8125 L 341.042969 538.53125 L 263.640625 538.53125 Z M 455.484375 600.515625 L 149.210938 600.515625 L 149.210938 553.484375 L 455.484375 553.484375 Z M 634.726562 287.339844 C 651.515625 287.339844 667.378906 292.761719 679.78125 302.65625 L 679.78125 311.042969 C 666.496094 303.144531 650.941406 298.90625 634.726562 298.90625 C 618.515625 298.90625 602.976562 303.144531 589.675781 311.042969 L 589.675781 302.65625 C 602.078125 292.761719 617.941406 287.339844 634.726562 287.339844 Z M 671.34375 351.457031 L 661.757812 361.230469 C 656.25 366.851562 653.460938 373.691406 653.460938 381.554688 L 653.460938 425.996094 C 653.460938 436.339844 645.046875 444.738281 634.714844 444.738281 C 624.386719 444.738281 615.972656 436.328125 615.972656 425.996094 L 615.972656 381.554688 C 615.972656 373.691406 613.179688 366.851562 607.671875 361.230469 L 598.089844 351.457031 C 592.417969 345.675781 589.664062 338.921875 589.664062 330.820312 L 589.664062 329.175781 C 602.066406 319.269531 617.929688 313.859375 634.714844 313.859375 C 651.503906 313.859375 667.367188 319.28125 679.765625 329.175781 L 679.765625 330.820312 C 679.765625 338.921875 677.011719 345.675781 671.34375 351.457031 Z M 703.144531 233.492188 C 701.6875 234.949219 699.769531 235.683594 697.863281 235.683594 C 695.957031 235.683594 694.035156 234.949219 692.578125 233.492188 C 677.125 218.039062 656.574219 209.527344 634.730469 209.527344 C 612.882812 209.527344 592.332031 218.039062 576.878906 233.492188 C 573.960938 236.40625 569.226562 236.40625 566.296875 233.492188 C 563.382812 230.574219 563.382812 225.839844 566.296875 222.910156 C 584.582031 204.628906 608.882812 194.570312 634.730469 194.570312 C 660.574219 194.570312 684.875 204.640625 703.160156 222.910156 C 706.074219 225.828125 706.074219 230.5625 703.160156 233.492188 Z M 588.40625 255.597656 C 585.492188 252.683594 585.492188 247.949219 588.40625 245.019531 C 600.78125 232.644531 617.230469 225.828125 634.730469 225.828125 C 652.226562 225.828125 668.675781 232.644531 681.050781 245.019531 C 683.964844 247.933594 683.964844 252.671875 681.050781 255.597656 C 679.59375 257.058594 677.671875 257.792969 675.765625 257.792969 C 673.859375 257.792969 671.941406 257.058594 670.484375 255.597656 C 660.9375 246.054688 648.238281 240.792969 634.742188 240.792969 C 621.246094 240.792969 608.546875 246.054688 599 255.597656 C 596.082031 258.515625 591.347656 258.515625 588.417969 255.597656 Z M 588.40625 255.597656 " fill-opacity="1" fill-rule="nonzero"/></g></svg>