<svg xmlns="http://www.w3.org/2000/svg" xmlns:xlink="http://www.w3.org/1999/xlink" width="1080" zoomAndPan="magnify" viewBox="0 0 810 817.92" height="1080" preserveAspectRatio="xMidYMid meet" version="1.0"><defs><clipPath id="8032de43d0"><path d="M 136.355469 149.410156 L 673.300781 149.410156 L 673.300781 660.859375 L 136.355469 660.859375 Z M 136.355469 149.410156 " clip-rule="nonzero"/></clipPath><clipPath id="ee09c42840"><path d="M 416 261 L 537.300781 261 L 537.300781 471 L 416 471 Z M 416 261 " clip-rule="nonzero"/></clipPath><clipPath id="87d265f33b"><path d="M 0.695312 0.503906 L 378 0.503906 L 378 456 L 0.695312 456 Z M 0.695312 0.503906 " clip-rule="nonzero"/></clipPath><clipPath id="10bded9d99"><path d="M 492 448 L 528 448 L 528 511.65625 L 492 511.65625 Z M 492 448 " clip-rule="nonzero"/></clipPath><clipPath id="7ab3c7a890"><rect x="0" width="538" y="0" height="512"/></clipPath></defs><g clip-path="url(#8032de43d0)"><g transform="matrix(1, 0, 0, 1, 136, 149)"><g clip-path="url(#7ab3c7a890)"><path fill="#05439a" d="M 337.714844 337.410156 L 424.773438 337.410156 C 429.410156 337.410156 433.167969 333.652344 433.167969 329.015625 L 433.167969 290.535156 C 433.167969 285.898438 429.410156 282.140625 424.773438 282.140625 L 342.648438 282.140625 C 338.011719 282.140625 334.253906 285.898438 334.253906 290.535156 C 334.253906 295.171875 338.011719 298.929688 342.648438 298.929688 L 416.378906 298.929688 L 416.378906 320.621094 L 337.714844 320.621094 C 333.078125 320.621094 329.320312 324.378906 329.320312 329.015625 C 329.320312 333.652344 333.078125 337.410156 337.714844 337.410156 Z M 337.714844 337.410156 " fill-opacity="1" fill-rule="nonzero"/><g clip-path="url(#ee09c42840)"><path fill="#05439a" d="M 475.992188 470.972656 C 477.597656 470.972656 479.222656 470.78125 480.839844 470.378906 L 522.160156 460.121094 C 527.519531 458.792969 532.011719 455.441406 534.8125 450.683594 C 537.613281 445.925781 538.363281 440.371094 536.929688 435.039062 L 510.152344 335.679688 C 510.070312 335.375 510.027344 335.058594 510.027344 334.742188 L 510.027344 282.207031 C 510.027344 270.96875 500.886719 261.824219 489.648438 261.824219 L 436.753906 261.824219 C 425.515625 261.824219 416.375 270.96875 416.375 282.207031 L 416.375 344.492188 C 416.375 345.234375 416.472656 345.976562 416.667969 346.695312 L 416.96875 347.796875 C 417.027344 348.023438 417.097656 348.242188 417.179688 348.460938 L 456.363281 456.296875 C 458.925781 465.109375 467.128906 470.976562 475.992188 470.976562 Z M 489.648438 278.613281 C 491.628906 278.613281 493.238281 280.222656 493.238281 282.203125 L 493.238281 334.742188 C 493.238281 336.53125 493.476562 338.316406 493.941406 340.046875 L 520.71875 439.40625 C 521.058594 440.675781 520.632812 441.675781 520.347656 442.164062 C 520.058594 442.648438 519.390625 443.511719 518.117188 443.824219 L 476.796875 454.085938 C 474.914062 454.550781 472.96875 453.410156 472.464844 451.535156 C 472.402344 451.304688 472.328125 451.078125 472.25 450.855469 L 433.164062 343.292969 L 433.164062 282.203125 C 433.164062 280.222656 434.777344 278.613281 436.753906 278.613281 Z M 424.769531 344.492188 L 424.757812 344.492188 Z M 424.769531 344.492188 " fill-opacity="1" fill-rule="nonzero"/></g><path fill="#05439a" d="M 386.605469 347.027344 C 391.242188 347.027344 395 343.269531 395 338.632812 L 395 280.914062 C 395 276.277344 391.242188 272.519531 386.605469 272.519531 C 381.96875 272.519531 378.210938 276.277344 378.210938 280.914062 L 378.210938 338.632812 C 378.210938 343.269531 381.96875 347.027344 386.605469 347.027344 Z M 386.605469 347.027344 " fill-opacity="1" fill-rule="nonzero"/><g clip-path="url(#87d265f33b)"><path fill="#05439a" d="M 246.109375 455.476562 C 246.917969 455.476562 247.742188 455.359375 248.554688 455.113281 C 252.992188 453.761719 255.492188 449.070312 254.144531 444.636719 C 245 414.59375 245.699219 394.871094 247.894531 383.621094 C 249.574219 375.015625 257.183594 368.773438 265.980469 368.773438 L 322.484375 368.773438 C 328.917969 368.773438 335.070312 366.03125 339.371094 361.242188 C 343.667969 356.457031 345.738281 350.042969 345.050781 343.648438 C 345.035156 343.519531 345.066406 343.386719 345.132812 343.277344 C 347.734375 339.066406 348.414062 333.933594 347.003906 329.191406 C 345.589844 324.449219 342.210938 320.523438 337.734375 318.417969 L 322.285156 311.167969 C 322.085938 311.074219 321.667969 310.878906 321.6875 310.199219 C 321.707031 309.519531 322.136719 309.347656 322.339844 309.265625 L 341.75 301.515625 C 350.460938 298.035156 354.867188 288.058594 351.570312 279.277344 L 348.648438 271.480469 L 365.210938 260.832031 C 371.609375 256.71875 375.949219 250.34375 377.425781 242.882812 C 378.90625 235.421875 377.332031 227.875 372.988281 221.628906 L 344.515625 180.703125 C 342.859375 178.320312 342.222656 175.464844 342.722656 172.660156 C 345.160156 159.023438 344.035156 134.042969 336.03125 108.972656 C 328.75 86.171875 312.894531 54.257812 278.699219 31.730469 C 237.070312 4.304688 187.75 -5.457031 139.820312 4.238281 C 93.199219 13.671875 52.585938 40.203125 25.464844 78.949219 C 1.683594 112.925781 -5.386719 156.148438 5.023438 203.945312 C 14.257812 246.355469 35.382812 283.042969 52.074219 303.234375 C 65.421875 319.378906 72.410156 339.460938 71.757812 359.789062 C 70.945312 384.945312 63.078125 413.082031 48.371094 443.417969 C 46.347656 447.589844 48.089844 452.613281 52.261719 454.632812 C 56.433594 456.660156 61.457031 454.917969 63.476562 450.742188 C 79.21875 418.277344 87.652344 387.855469 88.539062 360.328125 C 89.324219 335.910156 80.972656 311.835938 65.015625 292.535156 C 49.578125 273.863281 30.023438 239.84375 21.425781 200.375 C 14.882812 170.316406 12.65625 126.523438 39.214844 88.578125 C 63.855469 53.378906 100.769531 29.269531 143.148438 20.695312 C 186.703125 11.882812 231.558594 20.78125 269.457031 45.75 C 299.558594 65.582031 313.574219 93.855469 320.03125 114.082031 C 328.199219 139.648438 327.632812 161.644531 326.191406 169.707031 C 324.902344 176.921875 326.515625 184.230469 330.726562 190.289062 L 359.199219 231.21875 C 360.917969 233.6875 361.539062 236.667969 360.957031 239.617188 C 360.371094 242.566406 358.65625 245.082031 356.128906 246.707031 L 338.855469 257.8125 C 332.660156 261.792969 330.042969 269.6875 332.628906 276.585938 L 335.847656 285.175781 C 335.960938 285.46875 335.8125 285.804688 335.519531 285.921875 L 316.109375 293.675781 C 309.410156 296.351562 305.117188 302.492188 304.902344 309.707031 C 304.691406 316.917969 308.617188 323.300781 315.148438 326.367188 L 330.597656 333.617188 C 330.660156 333.648438 330.832031 333.730469 330.90625 333.980469 C 330.984375 334.234375 330.882812 334.394531 330.84375 334.457031 C 328.828125 337.722656 327.941406 341.625 328.351562 345.445312 C 328.597656 347.726562 327.53125 349.292969 326.875 350.023438 C 326.21875 350.753906 324.773438 351.984375 322.480469 351.984375 L 265.980469 351.984375 C 249.164062 351.984375 234.628906 363.933594 231.414062 380.402344 C 227.6875 399.492188 229.925781 422.75 238.078125 449.523438 C 239.179688 453.144531 242.507812 455.476562 246.105469 455.476562 Z M 246.109375 455.476562 " fill-opacity="1" fill-rule="nonzero"/></g><g clip-path="url(#10bded9d99)"><path fill="#05439a" d="M 519.046875 511.355469 C 520.511719 511.355469 521.992188 510.972656 523.339844 510.167969 C 527.320312 507.792969 528.625 502.640625 526.25 498.660156 C 515.609375 480.8125 509.535156 455.082031 509.476562 454.824219 C 509.417969 454.574219 509.347656 454.320312 509.269531 454.074219 C 507.824219 449.667969 503.078125 447.253906 498.667969 448.699219 C 494.421875 450.09375 492.03125 454.542969 493.164062 458.808594 C 493.839844 461.640625 500.257812 487.851562 511.828125 507.257812 C 513.398438 509.894531 516.1875 511.355469 519.046875 511.355469 Z M 519.046875 511.355469 " fill-opacity="1" fill-rule="nonzero"/></g></g></g></g></svg>