<svg xmlns="http://www.w3.org/2000/svg" xmlns:xlink="http://www.w3.org/1999/xlink" width="1080" zoomAndPan="magnify" viewBox="0 0 810 809.999993" height="1080" preserveAspectRatio="xMidYMid meet" version="1.0"><defs><clipPath id="738421c7bf"><path d="M 320 165.714844 L 670 165.714844 L 670 644.214844 L 320 644.214844 Z M 320 165.714844 " clip-rule="nonzero"/></clipPath></defs><g clip-path="url(#738421c7bf)"><path fill="#05439a" d="M 636.761719 189.53125 L 578.617188 189.53125 L 578.617188 187.242188 C 578.617188 175.355469 568.933594 165.683594 557.027344 165.683594 L 433.4375 165.683594 C 421.546875 165.683594 411.875 175.355469 411.875 187.242188 L 411.875 189.53125 L 353.730469 189.53125 C 335.4375 189.53125 320.554688 204.414062 320.554688 222.710938 L 320.554688 436.246094 C 320.554688 440.246094 323.796875 443.492188 327.796875 443.492188 C 331.800781 443.492188 335.042969 440.246094 335.042969 436.246094 L 335.042969 222.710938 C 335.042969 212.40625 343.425781 204.023438 353.730469 204.023438 L 411.875 204.023438 L 411.875 229.574219 L 367.839844 229.574219 C 363.839844 229.574219 360.597656 232.816406 360.597656 236.820312 L 360.597656 436.242188 C 360.597656 440.246094 363.839844 443.488281 367.839844 443.488281 C 371.84375 443.488281 375.085938 440.246094 375.085938 436.242188 L 375.085938 244.066406 L 411.871094 244.066406 L 411.871094 249.757812 C 411.871094 261.648438 421.546875 271.320312 433.433594 271.320312 L 557.023438 271.320312 C 568.929688 271.320312 578.613281 261.648438 578.613281 249.757812 L 578.613281 244.066406 L 615.402344 244.066406 L 615.402344 589.667969 L 375.089844 589.667969 L 375.089844 487.992188 C 375.089844 483.992188 371.84375 480.746094 367.84375 480.746094 C 363.839844 480.746094 360.597656 483.992188 360.597656 487.992188 L 360.597656 596.914062 C 360.597656 600.917969 363.839844 604.160156 367.84375 604.160156 L 622.652344 604.160156 C 626.652344 604.160156 629.898438 600.917969 629.898438 596.914062 L 629.898438 236.820312 C 629.898438 232.820312 626.652344 229.574219 622.652344 229.574219 L 578.621094 229.574219 L 578.621094 204.023438 L 636.761719 204.023438 C 647.066406 204.023438 655.449219 212.40625 655.449219 222.710938 L 655.449219 611.027344 C 655.449219 621.328125 647.066406 629.710938 636.761719 629.710938 L 353.730469 629.710938 C 343.425781 629.710938 335.042969 621.332031 335.042969 611.027344 L 335.042969 487.992188 C 335.042969 483.988281 331.800781 480.746094 327.796875 480.746094 C 323.796875 480.746094 320.554688 483.988281 320.554688 487.992188 L 320.554688 611.023438 C 320.554688 629.320312 335.4375 644.203125 353.730469 644.203125 L 636.761719 644.203125 C 655.054688 644.203125 669.941406 629.320312 669.941406 611.023438 L 669.941406 222.710938 C 669.941406 204.414062 655.054688 189.53125 636.761719 189.53125 Z M 564.125 249.757812 C 564.125 253.65625 560.941406 256.828125 557.027344 256.828125 L 433.4375 256.828125 C 429.539062 256.828125 426.367188 253.65625 426.367188 249.757812 L 426.367188 187.242188 C 426.367188 183.347656 429.539062 180.175781 433.4375 180.175781 L 557.027344 180.175781 C 560.941406 180.175781 564.125 183.347656 564.125 187.242188 Z M 564.125 249.757812 " fill-opacity="1" fill-rule="nonzero"/></g><path fill="#05439a" d="M 513.875 352.960938 L 595.074219 352.960938 C 599.078125 352.960938 602.320312 349.714844 602.320312 345.714844 C 602.320312 341.710938 599.078125 338.46875 595.074219 338.46875 L 513.875 338.46875 C 509.871094 338.46875 506.628906 341.710938 506.628906 345.714844 C 506.628906 349.714844 509.871094 352.960938 513.875 352.960938 Z M 513.875 352.960938 " fill-opacity="1" fill-rule="nonzero"/><path fill="#05439a" d="M 420.058594 576.496094 L 458.664062 576.496094 C 462.667969 576.496094 465.910156 573.253906 465.910156 569.25 L 465.910156 553.820312 L 481.339844 553.820312 C 485.34375 553.820312 488.585938 550.578125 488.585938 546.574219 L 488.585938 507.96875 C 488.585938 503.96875 485.339844 500.722656 481.339844 500.722656 L 465.910156 500.722656 L 465.910156 485.324219 C 465.910156 481.320312 462.667969 478.078125 458.664062 478.078125 L 420.058594 478.078125 C 416.058594 478.078125 412.8125 481.320312 412.8125 485.324219 L 412.8125 500.722656 L 397.414062 500.722656 C 393.410156 500.722656 390.167969 503.96875 390.167969 507.96875 L 390.167969 546.574219 C 390.167969 550.578125 393.410156 553.820312 397.414062 553.820312 L 412.8125 553.820312 L 412.8125 569.25 C 412.8125 573.253906 416.058594 576.496094 420.058594 576.496094 Z M 404.660156 539.328125 L 404.660156 515.214844 L 420.058594 515.214844 C 424.0625 515.214844 427.304688 511.972656 427.304688 507.96875 L 427.304688 492.570312 L 451.417969 492.570312 L 451.417969 507.96875 C 451.417969 511.972656 454.664062 515.214844 458.664062 515.214844 L 474.09375 515.214844 L 474.09375 539.328125 L 458.664062 539.328125 C 454.664062 539.328125 451.417969 542.574219 451.417969 546.574219 L 451.417969 562.003906 L 427.304688 562.003906 L 427.304688 546.574219 C 427.304688 542.574219 424.0625 539.328125 420.058594 539.328125 Z M 404.660156 539.328125 " fill-opacity="1" fill-rule="nonzero"/><path fill="#05439a" d="M 461.539062 418.847656 L 461.539062 366.242188 C 479.746094 362.832031 493.574219 346.828125 493.574219 327.644531 C 493.574219 305.984375 475.953125 288.363281 454.292969 288.363281 C 432.632812 288.363281 415.011719 305.984375 415.011719 327.644531 C 415.011719 346.824219 428.839844 362.832031 447.046875 366.242188 L 447.046875 418.847656 C 447.046875 438.710938 430.886719 454.871094 411.023438 454.871094 L 268.277344 454.871094 C 248.414062 454.871094 232.253906 438.710938 232.253906 418.847656 L 232.253906 360.246094 C 243.347656 357.085938 251.496094 346.867188 251.496094 334.769531 L 251.496094 320.582031 C 285.703125 310.605469 309.964844 278.78125 309.964844 242.773438 L 309.964844 210.625 C 309.964844 198.71875 300.277344 189.03125 288.371094 189.03125 L 284.707031 189.03125 C 272.800781 189.03125 263.113281 198.71875 263.113281 210.625 L 263.113281 242.773438 C 263.113281 261.621094 247.769531 276.953125 228.910156 276.953125 L 221.105469 276.953125 C 202.261719 276.953125 186.929688 261.621094 186.929688 242.773438 L 186.929688 210.625 C 186.929688 198.71875 177.230469 189.03125 165.3125 189.03125 L 161.644531 189.03125 C 149.738281 189.03125 140.050781 198.71875 140.050781 210.625 L 140.050781 242.773438 C 140.050781 278.78125 164.308594 310.605469 198.515625 320.582031 L 198.515625 334.769531 C 198.515625 346.867188 206.667969 357.085938 217.761719 360.246094 L 217.761719 418.847656 C 217.761719 446.703125 240.421875 469.363281 268.277344 469.363281 L 411.023438 469.363281 C 438.878906 469.363281 461.539062 446.703125 461.539062 418.847656 Z M 429.503906 327.644531 C 429.503906 313.976562 440.625 302.855469 454.292969 302.855469 C 467.960938 302.855469 479.082031 313.976562 479.082031 327.644531 C 479.082031 341.308594 467.960938 352.433594 454.292969 352.433594 C 440.625 352.433594 429.503906 341.3125 429.503906 327.644531 Z M 213.007812 334.769531 L 213.007812 314.941406 C 213.007812 311.519531 210.617188 308.566406 207.273438 307.855469 C 176.71875 301.339844 154.542969 273.96875 154.542969 242.773438 L 154.542969 210.625 C 154.542969 206.710938 157.726562 203.523438 161.644531 203.523438 L 165.3125 203.523438 C 169.242188 203.523438 172.4375 206.710938 172.4375 210.625 L 172.4375 242.773438 C 172.4375 269.609375 194.269531 291.441406 221.105469 291.441406 L 228.910156 291.441406 C 255.761719 291.441406 277.605469 269.609375 277.605469 242.773438 L 277.605469 210.625 C 277.605469 206.710938 280.792969 203.523438 284.707031 203.523438 L 288.371094 203.523438 C 292.285156 203.523438 295.472656 206.710938 295.472656 210.625 L 295.472656 242.773438 C 295.472656 273.96875 273.292969 301.339844 242.742188 307.855469 C 239.398438 308.566406 237.007812 311.519531 237.007812 314.941406 L 237.007812 334.769531 C 237.007812 341.386719 231.625 346.769531 225.007812 346.769531 C 218.390625 346.769531 213.007812 341.386719 213.007812 334.769531 Z M 213.007812 334.769531 " fill-opacity="1" fill-rule="nonzero"/><path fill="#05439a" d="M 513.875 321.71875 L 595.074219 321.71875 C 599.078125 321.71875 602.320312 318.472656 602.320312 314.472656 C 602.320312 310.46875 599.078125 307.226562 595.074219 307.226562 L 513.875 307.226562 C 509.871094 307.226562 506.628906 310.46875 506.628906 314.472656 C 506.628906 318.472656 509.871094 321.71875 513.875 321.71875 Z M 513.875 321.71875 " fill-opacity="1" fill-rule="nonzero"/><path fill="#05439a" d="M 513.875 540.296875 L 595.074219 540.296875 C 599.078125 540.296875 602.320312 537.054688 602.320312 533.050781 C 602.320312 529.050781 599.078125 525.804688 595.074219 525.804688 L 513.875 525.804688 C 509.871094 525.804688 506.628906 529.050781 506.628906 533.050781 C 506.628906 537.054688 509.871094 540.296875 513.875 540.296875 Z M 513.875 540.296875 " fill-opacity="1" fill-rule="nonzero"/><path fill="#05439a" d="M 513.875 509.082031 L 595.074219 509.082031 C 599.078125 509.082031 602.320312 505.839844 602.320312 501.835938 C 602.320312 497.835938 599.078125 494.589844 595.074219 494.589844 L 513.875 494.589844 C 509.871094 494.589844 506.628906 497.835938 506.628906 501.835938 C 506.628906 505.839844 509.871094 509.082031 513.875 509.082031 Z M 513.875 509.082031 " fill-opacity="1" fill-rule="nonzero"/><path fill="#05439a" d="M 513.875 571.539062 L 595.074219 571.539062 C 599.078125 571.539062 602.320312 568.296875 602.320312 564.292969 C 602.320312 560.292969 599.078125 557.046875 595.074219 557.046875 L 513.875 557.046875 C 509.871094 557.046875 506.628906 560.292969 506.628906 564.292969 C 506.628906 568.296875 509.871094 571.539062 513.875 571.539062 Z M 513.875 571.539062 " fill-opacity="1" fill-rule="nonzero"/><path fill="#05439a" d="M 513.875 477.839844 L 595.074219 477.839844 C 599.078125 477.839844 602.320312 474.597656 602.320312 470.59375 C 602.320312 466.59375 599.078125 463.347656 595.074219 463.347656 L 513.875 463.347656 C 509.871094 463.347656 506.628906 466.59375 506.628906 470.59375 C 506.628906 474.597656 509.871094 477.839844 513.875 477.839844 Z M 513.875 477.839844 " fill-opacity="1" fill-rule="nonzero"/><path fill="#05439a" d="M 513.875 384.171875 L 595.074219 384.171875 C 599.078125 384.171875 602.320312 380.929688 602.320312 376.925781 C 602.320312 372.925781 599.078125 369.679688 595.074219 369.679688 L 513.875 369.679688 C 509.871094 369.679688 506.628906 372.925781 506.628906 376.925781 C 506.628906 380.929688 509.871094 384.171875 513.875 384.171875 Z M 513.875 384.171875 " fill-opacity="1" fill-rule="nonzero"/><path fill="#05439a" d="M 513.875 415.386719 L 595.074219 415.386719 C 599.078125 415.386719 602.320312 412.140625 602.320312 408.140625 C 602.320312 404.136719 599.078125 400.894531 595.074219 400.894531 L 513.875 400.894531 C 509.871094 400.894531 506.628906 404.136719 506.628906 408.140625 C 506.628906 412.140625 509.871094 415.386719 513.875 415.386719 Z M 513.875 415.386719 " fill-opacity="1" fill-rule="nonzero"/><path fill="#05439a" d="M 513.875 446.628906 L 595.074219 446.628906 C 599.078125 446.628906 602.320312 443.386719 602.320312 439.382812 C 602.320312 435.378906 599.078125 432.136719 595.074219 432.136719 L 513.875 432.136719 C 509.871094 432.136719 506.628906 435.378906 506.628906 439.382812 C 506.628906 443.382812 509.871094 446.628906 513.875 446.628906 Z M 513.875 446.628906 " fill-opacity="1" fill-rule="nonzero"/></svg>