<svg xmlns="http://www.w3.org/2000/svg" xmlns:xlink="http://www.w3.org/1999/xlink" width="1080" zoomAndPan="magnify" viewBox="0 0 810 817.92" height="1080" preserveAspectRatio="xMidYMid meet" version="1.0"><defs><clipPath id="2b4b8d4eca"><path d="M 148.425781 148.941406 L 661.378906 148.941406 L 661.378906 661.011719 L 148.425781 661.011719 Z M 148.425781 148.941406 " clip-rule="nonzero"/></clipPath></defs><g clip-path="url(#2b4b8d4eca)"><path fill="#05439a" d="M 657.984375 362.015625 C 645.664062 288.113281 601.636719 223.460938 537.175781 184.617188 C 533.691406 182.507812 529.15625 183.636719 527.0625 187.121094 C 524.953125 190.605469 526.082031 195.144531 529.566406 197.238281 C 590.328125 233.855469 631.832031 294.796875 643.441406 364.433594 C 645.628906 377.578125 646.738281 391.050781 646.738281 404.484375 C 646.738281 461.761719 626.347656 517.308594 589.332031 560.902344 C 560.664062 594.65625 523.441406 619.878906 481.671875 633.84375 C 477.808594 635.132812 475.726562 639.308594 477.015625 643.175781 C 478.050781 646.257812 480.925781 648.207031 484.007812 648.207031 C 484.785156 648.207031 485.570312 648.085938 486.347656 647.828125 C 530.667969 633.007812 570.160156 606.253906 600.570312 570.449219 C 639.847656 524.191406 661.484375 465.253906 661.484375 404.484375 C 661.484375 390.246094 660.308594 375.953125 657.984375 362.015625 Z M 404.957031 646.265625 C 271.632812 646.265625 163.171875 537.804688 163.171875 404.484375 C 163.171875 383.628906 165.828125 362.921875 171.070312 342.941406 C 172.109375 339.003906 169.753906 334.972656 165.808594 333.933594 C 161.878906 332.910156 157.84375 335.257812 156.808594 339.199219 C 151.25 360.402344 148.425781 382.367188 148.425781 404.484375 C 148.425781 545.933594 263.503906 661.011719 404.957031 661.011719 C 409.027344 661.011719 412.332031 657.707031 412.332031 653.636719 C 412.332031 649.5625 409.027344 646.265625 404.957031 646.265625 Z M 178.429688 300.324219 C 179.488281 300.84375 180.605469 301.097656 181.707031 301.097656 C 184.417969 301.097656 187.027344 299.589844 188.316406 297 C 213.953125 245.425781 257.210938 204.589844 310.121094 182.003906 C 313.867188 180.40625 315.609375 176.078125 314.011719 172.332031 C 312.410156 168.582031 308.078125 166.839844 304.332031 168.445312 C 248.203125 192.398438 202.304688 235.726562 175.109375 290.441406 C 173.296875 294.082031 174.785156 298.511719 178.429688 300.324219 Z M 499.40625 217.953125 C 570.082031 253.8125 613.984375 325.289062 613.984375 404.484375 C 613.984375 426.351562 610.628906 447.894531 604 468.507812 C 602.753906 472.378906 604.886719 476.535156 608.765625 477.78125 C 609.515625 478.023438 610.277344 478.132812 611.027344 478.132812 C 614.136719 478.132812 617.03125 476.144531 618.039062 473.015625 C 625.136719 450.945312 628.730469 427.886719 628.730469 404.484375 C 628.730469 319.707031 581.730469 243.195312 506.074219 204.804688 C 502.445312 202.96875 498.003906 204.410156 496.160156 208.042969 C 494.324219 211.671875 495.769531 216.109375 499.40625 217.953125 Z M 283.914062 342.078125 C 283.914062 364.679688 302.296875 383.058594 324.894531 383.058594 C 347.496094 383.058594 365.878906 364.679688 365.878906 342.078125 C 365.878906 319.476562 347.496094 301.097656 324.894531 301.097656 C 302.296875 301.097656 283.914062 319.476562 283.914062 342.078125 Z M 324.894531 286.351562 C 355.625 286.351562 380.625 311.347656 380.625 342.078125 C 380.625 372.804688 355.625 397.804688 324.894531 397.804688 C 294.167969 397.804688 269.167969 372.804688 269.167969 342.078125 C 269.167969 311.347656 294.167969 286.351562 324.894531 286.351562 Z M 434.78125 458.195312 C 434.78125 450.9375 432.167969 444.28125 427.839844 439.101562 C 427.625 438.902344 427.445312 438.683594 427.257812 438.460938 C 421.792969 432.292969 413.828125 428.375 404.957031 428.375 C 396.082031 428.375 388.125 432.292969 382.652344 438.460938 C 382.472656 438.683594 382.285156 438.902344 382.070312 439.101562 C 377.742188 444.28125 375.128906 450.9375 375.128906 458.195312 C 375.128906 474.640625 388.515625 488.019531 404.957031 488.019531 C 421.402344 488.019531 434.78125 474.640625 434.78125 458.195312 Z M 361.550781 608.90625 C 375.707031 611.9375 390.25 613.511719 404.957031 613.511719 C 419.667969 613.511719 434.199219 611.964844 448.367188 608.96875 L 439.015625 529.578125 C 437.789062 522.304688 432.058594 520.109375 427.789062 519.496094 L 411.683594 555.554688 C 410.503906 558.21875 407.867188 559.921875 404.957031 559.921875 C 402.050781 559.921875 399.40625 558.21875 398.21875 555.554688 L 382.113281 519.496094 C 377.859375 520.109375 372.113281 522.304688 370.894531 529.578125 Z M 441.671875 432.976562 C 446.617188 440.148438 449.527344 448.84375 449.527344 458.195312 C 449.527344 482.769531 429.53125 502.765625 404.957031 502.765625 C 380.378906 502.765625 360.382812 482.769531 360.382812 458.195312 C 360.382812 448.84375 363.292969 440.148438 368.238281 432.976562 C 363.328125 426.25 354.515625 425.429688 350.558594 425.429688 L 350.5 425.429688 L 331.433594 461.941406 C 330.160156 464.375 327.640625 465.902344 324.894531 465.902344 C 322.152344 465.902344 319.632812 464.375 318.359375 461.941406 L 299.292969 425.429688 L 299.234375 425.429688 C 294.9375 425.429688 280.777344 426.539062 278.429688 440.730469 L 264.433594 559.152344 C 288.148438 580.628906 316.515625 596.398438 347.128906 605.261719 L 356.273438 527.683594 C 356.289062 527.589844 356.296875 527.488281 356.316406 527.394531 C 358.519531 513.5 369.867188 504.519531 385.21875 504.519531 L 424.695312 504.519531 C 440.042969 504.519531 451.390625 513.5 453.59375 527.394531 C 453.609375 527.488281 453.621094 527.589844 453.636719 527.683594 L 462.796875 605.375 C 483.070312 599.550781 502.421875 590.679688 520.242188 578.882812 C 523.632812 576.628906 528.214844 577.554688 530.460938 580.953125 C 532.707031 584.347656 531.777344 588.925781 528.386719 591.171875 C 491.753906 615.433594 449.074219 628.257812 404.957031 628.257812 C 333.890625 628.257812 266.363281 593.992188 224.3125 536.589844 C 196.089844 498.0625 181.179688 452.378906 181.179688 404.484375 C 181.179688 347.6875 202.484375 293.527344 241.175781 251.992188 C 243.949219 249.011719 248.613281 248.847656 251.59375 251.625 C 254.574219 254.398438 254.742188 259.0625 251.960938 262.042969 C 215.824219 300.84375 195.925781 351.429688 195.925781 404.484375 C 195.925781 449.226562 209.855469 491.890625 236.207031 527.878906 C 240.859375 534.226562 245.855469 540.261719 251.140625 545.984375 L 263.804688 438.835938 C 263.820312 438.742188 263.835938 438.640625 263.847656 438.546875 C 266.542969 421.621094 280.421875 410.683594 299.234375 410.683594 L 350.558594 410.683594 C 362.277344 410.683594 372.171875 414.902344 378.578125 422.304688 C 385.972656 416.855469 395.089844 413.628906 404.957031 413.628906 C 414.816406 413.628906 423.945312 416.855469 431.332031 422.304688 C 437.738281 414.902344 447.632812 410.683594 459.355469 410.683594 L 510.675781 410.683594 C 529.480469 410.683594 543.367188 421.621094 546.0625 438.546875 C 546.078125 438.640625 546.089844 438.742188 546.105469 438.835938 L 558.769531 545.992188 C 570.316406 533.457031 580.289062 519.613281 588.476562 504.644531 C 590.433594 501.070312 594.90625 499.761719 598.484375 501.714844 C 602.054688 503.664062 603.367188 508.140625 601.414062 511.714844 C 590.097656 532.414062 575.625 551.125 558.417969 567.355469 C 556.992188 568.691406 555.167969 569.363281 553.355469 569.363281 C 551.628906 569.363281 549.90625 568.714844 548.53125 567.503906 C 548.421875 567.417969 548.324219 567.332031 548.214844 567.238281 C 548.144531 567.167969 548.0625 567.117188 547.992188 567.042969 C 547.917969 566.972656 547.875 566.886719 547.8125 566.8125 C 546.796875 565.707031 546.082031 564.308594 545.894531 562.703125 L 531.476562 440.730469 C 529.136719 426.539062 514.972656 425.429688 510.675781 425.429688 L 510.617188 425.429688 L 491.550781 461.941406 C 490.277344 464.375 487.757812 465.902344 485.015625 465.902344 C 482.269531 465.902344 479.75 464.375 478.476562 461.941406 L 459.410156 425.429688 L 459.355469 425.429688 C 455.402344 425.429688 446.582031 426.25 441.671875 432.976562 Z M 444.03125 342.078125 C 444.03125 364.679688 462.421875 383.058594 485.015625 383.058594 C 507.605469 383.058594 525.996094 364.679688 525.996094 342.078125 C 525.996094 319.476562 507.605469 301.097656 485.015625 301.097656 C 462.421875 301.097656 444.03125 319.476562 444.03125 342.078125 Z M 485.015625 286.351562 C 515.742188 286.351562 540.742188 311.347656 540.742188 342.078125 C 540.742188 372.804688 515.742188 397.804688 485.015625 397.804688 C 454.285156 397.804688 429.289062 372.804688 429.289062 342.078125 C 429.289062 311.347656 454.285156 286.351562 485.015625 286.351562 Z M 341.296875 185.335938 C 341.296875 158.472656 358.441406 148.933594 373.128906 148.933594 C 388.753906 148.933594 398.925781 161.894531 404.957031 173.6875 C 410.984375 161.894531 421.164062 148.933594 436.78125 148.933594 C 456.71875 148.933594 468.613281 161.859375 468.613281 183.492188 C 468.613281 219.117188 415.011719 254.050781 408.898438 257.917969 C 407.695312 258.679688 406.328125 259.0625 404.957031 259.0625 C 403.640625 259.0625 402.332031 258.710938 401.164062 258.011719 C 395.039062 254.339844 341.296875 221.078125 341.296875 185.335938 " fill-opacity="1" fill-rule="nonzero"/></g></svg>