<svg xmlns="http://www.w3.org/2000/svg" xmlns:xlink="http://www.w3.org/1999/xlink" width="1080" zoomAndPan="magnify" viewBox="0 0 810 817.92" height="1080" preserveAspectRatio="xMidYMid meet" version="1.0"><path fill="#05439a" d="M 525.5 613.160156 L 501.789062 613.160156 C 498.21875 613.160156 495.292969 610.5625 495.292969 606.992188 L 493.019531 575.484375 C 484.898438 572.558594 477.429688 568.335938 470.933594 562.492188 L 442.347656 576.78125 C 439.425781 578.082031 435.527344 577.109375 433.902344 574.183594 L 422.210938 553.394531 C 420.261719 550.472656 421.234375 546.898438 424.160156 544.949219 L 450.46875 527.085938 C 449.496094 522.863281 449.171875 518.640625 449.171875 514.417969 C 449.171875 510.195312 449.496094 505.972656 450.46875 501.75 L 424.160156 483.886719 C 421.234375 481.9375 420.261719 478.363281 422.210938 475.441406 L 433.902344 454.652344 C 435.527344 451.730469 439.425781 450.753906 442.347656 452.054688 L 470.933594 466.347656 C 477.429688 460.5 484.898438 456.277344 493.019531 453.351562 L 495.292969 421.519531 C 495.292969 418.273438 498.21875 415.675781 501.789062 415.675781 L 525.5 415.675781 C 528.75 415.675781 531.671875 418.273438 531.996094 421.519531 L 533.945312 453.351562 C 542.066406 456.277344 549.539062 460.5 556.035156 466.347656 L 584.617188 452.054688 C 587.867188 450.753906 591.4375 451.730469 593.0625 454.652344 L 605.082031 475.441406 C 606.707031 478.363281 606.054688 481.9375 603.132812 483.886719 L 576.496094 501.75 C 577.472656 505.972656 577.796875 510.195312 577.796875 514.417969 C 577.796875 518.640625 577.472656 522.863281 576.496094 527.085938 L 603.132812 544.949219 C 606.054688 546.898438 606.707031 550.472656 605.082031 553.394531 L 593.0625 574.183594 C 591.4375 577.109375 587.867188 578.082031 584.617188 576.78125 L 556.035156 562.492188 C 549.539062 568.335938 542.066406 572.558594 533.945312 575.484375 L 531.996094 606.992188 C 531.671875 610.5625 528.75 613.160156 525.5 613.160156 Z M 507.636719 600.167969 L 519.332031 600.167969 L 521.277344 569.960938 C 521.605469 567.363281 523.554688 564.765625 526.152344 564.113281 C 535.246094 561.839844 543.691406 556.96875 550.1875 550.148438 C 552.136719 548.199219 555.382812 547.875 557.984375 548.847656 L 584.941406 562.167969 L 590.789062 552.421875 L 565.777344 535.53125 C 563.179688 533.90625 562.207031 530.984375 562.855469 528.386719 C 564.15625 523.839844 564.804688 519.289062 564.804688 514.417969 C 564.804688 509.546875 564.15625 505 562.855469 500.453125 C 562.207031 497.851562 563.179688 494.929688 565.777344 493.304688 L 590.789062 476.414062 L 584.941406 466.347656 L 557.660156 479.988281 C 555.382812 480.960938 552.136719 480.636719 550.1875 478.6875 C 543.691406 471.867188 535.246094 466.996094 526.152344 464.722656 C 523.554688 464.070312 521.605469 461.472656 521.277344 458.875 L 519.332031 428.667969 L 507.636719 428.667969 L 505.6875 458.875 C 505.6875 461.472656 503.738281 464.070312 500.816406 464.722656 C 491.722656 466.996094 483.601562 471.867188 476.78125 478.6875 C 474.832031 480.636719 471.90625 480.960938 469.308594 479.988281 L 442.023438 466.347656 L 436.503906 476.414062 L 461.511719 493.304688 C 463.785156 494.929688 464.761719 497.851562 464.113281 500.453125 C 462.8125 505 462.164062 509.546875 462.164062 514.417969 C 462.164062 519.289062 462.8125 523.839844 464.113281 528.386719 C 464.761719 530.984375 463.785156 533.90625 461.511719 535.53125 L 436.503906 552.421875 L 442.023438 562.167969 L 469.308594 548.847656 C 471.90625 547.875 474.832031 548.199219 476.78125 550.148438 C 483.601562 556.96875 491.722656 561.839844 500.816406 564.113281 C 503.738281 564.765625 505.6875 567.363281 505.6875 569.960938 Z M 507.636719 600.167969 " fill-opacity="1" fill-rule="evenodd"/><path fill="#05439a" d="M 513.484375 549.5 C 493.996094 549.5 478.402344 533.90625 478.402344 514.417969 C 478.402344 494.929688 493.996094 479.339844 513.484375 479.339844 C 532.972656 479.339844 548.886719 494.929688 548.886719 514.417969 C 548.886719 533.90625 532.972656 549.5 513.484375 549.5 Z M 513.484375 492.332031 C 501.464844 492.332031 491.394531 502.074219 491.394531 514.417969 C 491.394531 526.761719 501.464844 536.503906 513.484375 536.503906 C 525.828125 536.503906 535.894531 526.761719 535.894531 514.417969 C 535.894531 502.074219 525.828125 492.332031 513.484375 492.332031 Z M 513.484375 492.332031 " fill-opacity="1" fill-rule="evenodd"/><path fill="#05439a" d="M 572.273438 682.996094 C 568.703125 682.996094 565.777344 680.074219 565.777344 676.5 L 565.777344 649.867188 C 565.777344 645.644531 566.101562 640.445312 569.675781 637.199219 C 573.25 633.625 577.796875 633.949219 582.34375 633.949219 C 583.320312 633.949219 584.292969 633.949219 585.265625 633.949219 L 608.328125 633.949219 C 615.476562 633.949219 619.046875 631.027344 619.046875 614.460938 L 619.046875 569.3125 C 619.046875 565.738281 621.972656 562.816406 625.542969 562.816406 L 635.613281 562.816406 C 641.785156 562.816406 643.734375 561.191406 644.058594 560.867188 C 644.707031 559.566406 644.058594 555.34375 639.511719 549.171875 L 621.648438 524.164062 C 620.996094 522.863281 620.347656 521.5625 620.347656 520.265625 L 620.347656 473.492188 C 620.347656 446.207031 605.082031 422.820312 577.472656 407.554688 C 534.921875 384.492188 475.15625 386.765625 434.878906 413.078125 C 408.570312 429.964844 378.359375 464.398438 383.558594 531.957031 C 385.507812 556.644531 392.976562 590.75 417.339844 612.511719 C 418.636719 613.160156 419.9375 613.8125 421.234375 615.109375 C 424.808594 618.683594 429.355469 627.128906 425.785156 658.3125 C 425.132812 661.882812 421.886719 664.484375 418.3125 664.15625 C 414.738281 663.507812 412.140625 660.261719 412.792969 656.6875 C 415.390625 633.625 413.117188 626.480469 412.140625 624.855469 C 411.492188 624.53125 410.84375 624.207031 410.191406 623.554688 C 381.285156 598.546875 372.515625 560.542969 370.566406 532.933594 C 366.019531 475.441406 386.480469 428.667969 427.734375 402.03125 C 472.558594 373.125 536.546875 370.527344 583.644531 396.1875 C 615.800781 413.726562 633.339844 441.011719 633.339844 473.492188 L 633.339844 518.316406 L 650.230469 541.703125 C 659 554.046875 658.027344 562.167969 655.753906 566.714844 C 652.503906 572.558594 645.683594 575.808594 635.613281 575.808594 L 632.039062 575.808594 L 632.039062 614.460938 C 632.039062 623.230469 632.039062 646.941406 608.328125 646.941406 L 585.265625 646.941406 C 583.96875 646.941406 582.992188 646.941406 582.019531 646.941406 C 581.046875 646.941406 579.746094 646.941406 579.097656 646.941406 C 578.769531 647.59375 578.769531 648.566406 578.769531 649.867188 L 578.769531 676.5 C 578.769531 680.074219 575.847656 682.996094 572.273438 682.996094 Z M 572.273438 682.996094 " fill-opacity="1" fill-rule="evenodd"/><path fill="#05439a" d="M 324.441406 481.9375 C 248.433594 481.9375 186.394531 419.898438 186.394531 343.890625 C 186.394531 267.558594 248.433594 205.519531 324.441406 205.519531 C 400.773438 205.519531 462.488281 267.558594 462.488281 343.890625 C 462.488281 364.679688 457.941406 384.816406 449.171875 403.332031 C 447.546875 406.578125 443.648438 407.878906 440.398438 406.253906 C 437.152344 404.957031 435.851562 401.058594 437.476562 397.808594 C 445.597656 380.917969 449.496094 362.730469 449.496094 343.890625 C 449.496094 274.707031 393.628906 218.511719 324.441406 218.511719 C 255.582031 218.511719 199.386719 274.707031 199.386719 343.890625 C 199.386719 412.75 255.582031 468.945312 324.441406 468.945312 C 345.554688 468.945312 366.019531 463.421875 384.207031 453.679688 C 387.457031 452.054688 391.351562 453.027344 392.976562 456.277344 C 394.925781 459.523438 393.628906 463.421875 390.378906 465.046875 C 370.242188 476.089844 347.503906 481.9375 324.441406 481.9375 Z M 324.441406 481.9375 " fill-opacity="1" fill-rule="evenodd"/><path fill="#05439a" d="M 397.851562 327.648438 C 393.953125 327.648438 391.351562 324.726562 391.351562 321.152344 C 391.351562 313.359375 384.53125 306.535156 376.738281 306.535156 C 368.617188 306.535156 362.121094 313.359375 362.121094 321.152344 C 362.121094 324.726562 359.195312 327.648438 355.625 327.648438 C 352.050781 327.648438 349.128906 324.726562 349.128906 321.152344 C 349.128906 305.886719 361.46875 293.542969 376.738281 293.542969 C 391.679688 293.542969 404.347656 306.210938 404.347656 321.152344 C 404.347656 324.726562 401.421875 327.648438 397.851562 327.648438 Z M 397.851562 327.648438 " fill-opacity="1" fill-rule="evenodd"/><path fill="#05439a" d="M 293.585938 327.648438 C 290.011719 327.648438 287.085938 324.726562 287.085938 321.152344 C 287.085938 313.359375 280.589844 306.535156 272.472656 306.535156 C 264.351562 306.535156 257.855469 313.359375 257.855469 321.152344 C 257.855469 324.726562 254.929688 327.648438 251.359375 327.648438 C 247.785156 327.648438 244.863281 324.726562 244.863281 321.152344 C 244.863281 305.886719 257.203125 293.542969 272.472656 293.542969 C 287.738281 293.542969 300.082031 306.210938 300.082031 321.152344 C 300.082031 324.726562 297.15625 327.648438 293.585938 327.648438 Z M 293.585938 327.648438 " fill-opacity="1" fill-rule="evenodd"/><path fill="#05439a" d="M 324.441406 413.402344 C 309.5 413.402344 296.832031 401.058594 296.832031 385.792969 C 296.832031 382.21875 299.753906 379.296875 303.328125 379.296875 C 306.902344 379.296875 309.824219 382.21875 309.824219 385.792969 C 309.824219 393.914062 316.644531 400.410156 324.441406 400.410156 C 332.5625 400.410156 339.058594 393.914062 339.058594 385.792969 C 339.058594 382.21875 341.980469 379.296875 345.554688 379.296875 C 349.128906 379.296875 352.050781 382.21875 352.050781 385.792969 C 352.050781 401.058594 339.707031 413.402344 324.441406 413.402344 Z M 324.441406 413.402344 " fill-opacity="1" fill-rule="evenodd"/><path fill="#05439a" d="M 192.890625 374.421875 C 169.828125 374.421875 150.992188 355.585938 150.992188 332.523438 C 150.992188 309.460938 169.828125 290.621094 192.890625 290.621094 C 196.140625 290.621094 199.386719 290.945312 202.636719 291.59375 C 206.210938 292.570312 208.484375 295.816406 207.507812 299.390625 C 206.859375 302.964844 203.285156 304.914062 199.710938 304.261719 C 197.4375 303.613281 195.164062 303.613281 192.890625 303.613281 C 176.976562 303.613281 163.984375 316.605469 163.984375 332.523438 C 163.984375 348.4375 176.976562 361.429688 192.890625 361.429688 C 193.542969 361.429688 194.191406 361.429688 194.839844 361.429688 C 198.414062 361.105469 201.660156 364.027344 201.660156 367.601562 C 201.988281 371.175781 199.0625 374.097656 195.488281 374.421875 C 194.839844 374.421875 193.867188 374.421875 192.890625 374.421875 Z M 192.890625 374.421875 " fill-opacity="1" fill-rule="evenodd"/><path fill="#05439a" d="M 455.992188 374.421875 C 455.339844 374.421875 454.367188 374.421875 453.394531 374.421875 C 449.820312 374.097656 447.222656 371.175781 447.546875 367.601562 C 447.546875 364.027344 450.46875 361.105469 454.367188 361.429688 C 455.015625 361.429688 455.667969 361.429688 455.992188 361.429688 C 472.230469 361.429688 485.226562 348.4375 485.226562 332.523438 C 485.226562 316.605469 472.230469 303.613281 455.992188 303.613281 C 453.71875 303.613281 451.769531 303.613281 449.496094 304.261719 C 445.921875 304.914062 442.347656 302.964844 441.699219 299.390625 C 440.726562 295.816406 443 292.570312 446.570312 291.59375 C 449.496094 290.945312 452.742188 290.296875 455.992188 290.296875 C 479.378906 290.296875 498.21875 309.460938 498.21875 332.523438 C 498.21875 355.585938 479.378906 374.421875 455.992188 374.421875 Z M 455.992188 374.421875 " fill-opacity="1" fill-rule="evenodd"/><path fill="#05439a" d="M 324.441406 218.511719 C 321.195312 218.511719 318.269531 215.914062 317.945312 212.664062 C 317.945312 211.367188 315.347656 176.9375 318.269531 155.824219 C 319.894531 142.503906 327.039062 133.085938 337.757812 130.164062 C 349.777344 126.914062 364.070312 132.4375 373.488281 144.128906 C 380.960938 153.875 382.257812 165.242188 377.0625 175.636719 C 371.863281 185.054688 361.796875 191.554688 353.023438 190.902344 C 346.203125 190.578125 341.007812 186.355469 338.734375 179.859375 C 337.433594 176.613281 339.382812 172.714844 342.632812 171.414062 C 345.878906 170.113281 349.777344 172.0625 351.078125 175.3125 C 351.726562 177.910156 353.023438 177.910156 353.675781 177.910156 C 357.246094 178.234375 362.445312 174.988281 365.367188 169.789062 C 367.640625 165.566406 368.941406 159.394531 363.09375 152.25 C 357.246094 144.78125 348.152344 140.882812 341.332031 142.832031 C 334.1875 144.453125 331.914062 151.601562 331.261719 157.449219 C 328.664062 177.261719 330.9375 211.367188 330.9375 211.691406 C 331.261719 215.265625 328.664062 218.511719 325.089844 218.511719 C 324.765625 218.511719 324.765625 218.511719 324.441406 218.511719 Z M 324.441406 218.511719 " fill-opacity="1" fill-rule="evenodd"/></svg>