<svg xmlns="http://www.w3.org/2000/svg" xmlns:xlink="http://www.w3.org/1999/xlink" width="1080" zoomAndPan="magnify" viewBox="0 0 810 817.92" height="1080" preserveAspectRatio="xMidYMid meet" version="1.0"><defs><clipPath id="47d86795e6"><path d="M 139.160156 147.09375 L 670.859375 147.09375 L 670.859375 663 L 139.160156 663 Z M 139.160156 147.09375 " clip-rule="nonzero"/></clipPath></defs><g clip-path="url(#47d86795e6)"><path fill="#05439a" d="M 410.308594 282.019531 C 410.707031 282.375 411.132812 282.691406 411.589844 282.972656 C 412.042969 283.25 412.519531 283.484375 413.019531 283.671875 C 413.519531 283.863281 414.03125 284.007812 414.554688 284.105469 C 415.078125 284.203125 415.609375 284.25 416.140625 284.25 C 416.675781 284.25 417.203125 284.203125 417.730469 284.105469 C 418.253906 284.007812 418.765625 283.863281 419.265625 283.671875 C 419.761719 283.484375 420.238281 283.25 420.695312 282.972656 C 421.152344 282.691406 421.578125 282.375 421.976562 282.019531 L 480.773438 229.722656 C 481.925781 228.558594 483.023438 227.34375 484.058594 226.074219 C 485.09375 224.804688 486.066406 223.488281 486.972656 222.121094 C 487.882812 220.757812 488.71875 219.351562 489.488281 217.90625 C 490.257812 216.460938 490.957031 214.980469 491.582031 213.464844 C 492.207031 211.949219 492.753906 210.40625 493.230469 208.839844 C 493.703125 207.269531 494.097656 205.683594 494.417969 204.074219 C 494.738281 202.46875 494.976562 200.847656 495.136719 199.21875 C 495.296875 197.585938 495.375 195.953125 495.375 194.3125 C 495.375 192.675781 495.296875 191.039062 495.136719 189.410156 C 494.976562 187.777344 494.738281 186.160156 494.417969 184.550781 C 494.097656 182.945312 493.703125 181.355469 493.230469 179.789062 C 492.753906 178.21875 492.207031 176.675781 491.582031 175.160156 C 490.957031 173.648438 490.257812 172.167969 489.488281 170.71875 C 488.71875 169.273438 487.882812 167.867188 486.972656 166.503906 C 486.066406 165.136719 485.09375 163.820312 484.058594 162.550781 C 483.023438 161.28125 481.925781 160.066406 480.773438 158.902344 C 470.929688 149.132812 456.164062 145.113281 441.097656 147.980469 C 436.242188 148.941406 431.660156 150.632812 427.347656 153.054688 C 423.03125 155.472656 419.199219 158.503906 415.851562 162.144531 C 414.082031 160.257812 412.171875 158.527344 410.121094 156.949219 C 408.070312 155.375 405.910156 153.972656 403.632812 152.746094 C 401.355469 151.519531 398.996094 150.484375 396.550781 149.640625 C 394.105469 148.796875 391.609375 148.15625 389.0625 147.714844 C 375.128906 145.539062 361.019531 149.484375 351.617188 158.921875 C 350.449219 160.089844 349.34375 161.308594 348.292969 162.585938 C 347.246094 163.863281 346.261719 165.1875 345.347656 166.558594 C 344.429688 167.933594 343.582031 169.347656 342.804688 170.804688 C 342.027344 172.261719 341.324219 173.753906 340.695312 175.28125 C 340.066406 176.804688 339.511719 178.359375 339.035156 179.941406 C 338.558594 181.523438 338.164062 183.121094 337.84375 184.742188 C 337.527344 186.363281 337.289062 187.996094 337.132812 189.636719 C 336.976562 191.28125 336.902344 192.929688 336.90625 194.582031 C 336.914062 196.230469 337 197.878906 337.171875 199.519531 C 337.339844 201.164062 337.589844 202.792969 337.917969 204.410156 C 338.25 206.03125 338.65625 207.628906 339.144531 209.203125 C 339.632812 210.78125 340.199219 212.332031 340.839844 213.851562 C 341.480469 215.375 342.195312 216.859375 342.984375 218.3125 C 343.769531 219.761719 344.628906 221.171875 345.554688 222.539062 C 346.484375 223.90625 347.476562 225.222656 348.53125 226.488281 C 349.589844 227.757812 350.707031 228.972656 351.882812 230.128906 Z M 363.992188 171.402344 C 365.140625 170.304688 366.386719 169.324219 367.726562 168.46875 C 369.066406 167.613281 370.476562 166.898438 371.957031 166.320312 C 373.4375 165.738281 374.960938 165.3125 376.523438 165.03125 C 378.089844 164.753906 379.667969 164.628906 381.253906 164.65625 C 382.882812 164.675781 384.5 164.804688 386.105469 165.046875 C 388.480469 165.457031 390.773438 166.136719 392.984375 167.09375 C 395.195312 168.050781 397.261719 169.25 399.1875 170.699219 C 401.113281 172.148438 402.839844 173.804688 404.367188 175.664062 C 405.898438 177.523438 407.1875 179.539062 408.238281 181.707031 C 408.585938 182.488281 409.042969 183.199219 409.609375 183.839844 C 410.175781 184.480469 410.824219 185.023438 411.554688 185.464844 C 412.285156 185.910156 413.0625 186.234375 413.894531 186.441406 C 414.722656 186.652344 415.5625 186.730469 416.417969 186.683594 C 417.265625 186.652344 418.09375 186.5 418.898438 186.230469 C 419.707031 185.960938 420.457031 185.582031 421.152344 185.09375 C 421.851562 184.609375 422.464844 184.03125 422.996094 183.371094 C 423.527344 182.707031 423.953125 181.980469 424.277344 181.195312 C 425.171875 179.125 426.304688 177.199219 427.679688 175.417969 C 429.054688 173.632812 430.628906 172.042969 432.398438 170.652344 C 434.171875 169.261719 436.085938 168.109375 438.144531 167.195312 C 440.207031 166.285156 442.34375 165.636719 444.566406 165.261719 C 453.613281 163.488281 462.765625 165.773438 468.324219 171.386719 C 469.070312 172.128906 469.78125 172.90625 470.449219 173.71875 C 471.121094 174.53125 471.75 175.375 472.339844 176.25 C 472.929688 177.121094 473.472656 178.023438 473.972656 178.949219 C 474.472656 179.875 474.929688 180.824219 475.335938 181.796875 C 475.746094 182.765625 476.105469 183.753906 476.417969 184.761719 C 476.730469 185.765625 476.992188 186.785156 477.207031 187.816406 C 477.417969 188.847656 477.582031 189.890625 477.691406 190.9375 C 477.804688 191.984375 477.863281 193.035156 477.875 194.085938 C 477.882812 195.140625 477.839844 196.191406 477.75 197.242188 C 477.65625 198.289062 477.511719 199.332031 477.316406 200.367188 C 477.125 201.402344 476.878906 202.425781 476.585938 203.4375 C 476.289062 204.449219 475.949219 205.445312 475.558594 206.421875 C 475.167969 207.402344 474.730469 208.359375 474.246094 209.292969 C 473.761719 210.230469 473.230469 211.140625 472.660156 212.023438 C 472.085938 212.90625 471.472656 213.761719 470.816406 214.585938 C 470.160156 215.410156 469.464844 216.199219 468.734375 216.957031 L 416.152344 263.660156 L 363.992188 217.3125 C 363.242188 216.558594 362.53125 215.773438 361.855469 214.949219 C 361.179688 214.128906 360.546875 213.273438 359.957031 212.390625 C 359.367188 211.507812 358.820312 210.597656 358.320312 209.660156 C 357.820312 208.722656 357.367188 207.761719 356.960938 206.777344 C 356.554688 205.796875 356.195312 204.796875 355.886719 203.78125 C 355.578125 202.761719 355.320312 201.730469 355.113281 200.691406 C 354.90625 199.648438 354.75 198.597656 354.644531 197.539062 C 354.542969 196.480469 354.488281 195.421875 354.488281 194.355469 C 354.488281 193.292969 354.542969 192.234375 354.644531 191.175781 C 354.75 190.117188 354.90625 189.066406 355.113281 188.023438 C 355.320312 186.980469 355.578125 185.953125 355.886719 184.933594 C 356.195312 183.917969 356.554688 182.917969 356.960938 181.933594 C 357.367188 180.953125 357.820312 179.992188 358.320312 179.054688 C 358.820312 178.117188 359.367188 177.207031 359.957031 176.324219 C 360.546875 175.4375 361.179688 174.585938 361.855469 173.765625 C 362.53125 172.941406 363.242188 172.15625 363.992188 171.402344 Z M 445.433594 347.773438 C 445.433594 400.195312 485.019531 442.898438 533.671875 442.898438 C 582.324219 442.898438 621.910156 400.195312 621.910156 347.773438 C 621.910156 295.351562 582.324219 252.667969 533.671875 252.667969 C 485.019531 252.667969 445.433594 295.371094 445.433594 347.773438 Z M 533.671875 270.300781 C 572.621094 270.300781 604.292969 305.035156 604.292969 347.773438 C 604.292969 390.511719 572.640625 425.265625 533.671875 425.265625 C 494.703125 425.265625 462.996094 390.53125 462.996094 347.773438 C 462.996094 305.019531 494.703125 270.300781 533.671875 270.300781 Z M 591.351562 451.609375 C 590.269531 451.34375 589.175781 451.28125 588.066406 451.429688 C 586.960938 451.574219 585.921875 451.917969 584.945312 452.460938 C 551.75 470.890625 515.597656 470.890625 482.402344 452.460938 C 481.421875 451.925781 480.378906 451.582031 479.273438 451.4375 C 478.167969 451.289062 477.074219 451.347656 475.992188 451.609375 C 446.105469 459.097656 423.195312 479.546875 409.742188 505.378906 C 402.058594 466.429688 373.855469 434.066406 333.984375 423.9375 C 332.902344 423.675781 331.808594 423.617188 330.699219 423.761719 C 329.59375 423.910156 328.554688 424.25 327.574219 424.789062 C 294.203125 443.21875 258.316406 443.21875 224.890625 424.789062 C 223.914062 424.25 222.871094 423.910156 221.765625 423.761719 C 220.660156 423.617188 219.566406 423.675781 218.480469 423.9375 C 215.683594 424.636719 212.921875 425.449219 210.191406 426.378906 C 207.460938 427.308594 204.773438 428.347656 202.132812 429.496094 C 199.488281 430.648438 196.894531 431.90625 194.355469 433.273438 C 191.816406 434.636719 189.339844 436.105469 186.921875 437.675781 C 184.503906 439.25 182.15625 440.917969 179.875 442.683594 C 177.597656 444.449219 175.394531 446.304688 173.269531 448.253906 C 171.144531 450.203125 169.101562 452.234375 167.144531 454.351562 C 165.1875 456.46875 163.324219 458.664062 161.546875 460.9375 C 159.773438 463.210938 158.09375 465.550781 156.515625 467.960938 C 154.933594 470.375 153.453125 472.847656 152.078125 475.378906 C 150.703125 477.914062 149.433594 480.5 148.273438 483.140625 C 147.113281 485.777344 146.0625 488.460938 145.121094 491.1875 C 144.183594 493.914062 143.359375 496.675781 142.648438 499.46875 C 141.9375 502.261719 141.34375 505.082031 140.867188 507.925781 C 140.390625 510.769531 140.03125 513.628906 139.792969 516.5 C 139.554688 519.375 139.433594 522.253906 139.433594 525.136719 L 139.433594 653.953125 C 139.433594 654.535156 139.488281 655.109375 139.601562 655.679688 C 139.714844 656.25 139.882812 656.804688 140.105469 657.339844 C 140.328125 657.878906 140.601562 658.386719 140.925781 658.871094 C 141.246094 659.355469 141.613281 659.800781 142.023438 660.210938 C 142.4375 660.621094 142.882812 660.988281 143.367188 661.3125 C 143.851562 661.636719 144.359375 661.910156 144.898438 662.128906 C 145.433594 662.351562 145.988281 662.519531 146.558594 662.632812 C 147.128906 662.746094 147.703125 662.804688 148.285156 662.804688 L 404.308594 662.804688 C 404.570312 662.804688 404.714844 662.539062 404.960938 662.519531 C 405.210938 662.503906 405.367188 662.804688 405.632812 662.804688 L 661.710938 662.804688 C 662.292969 662.804688 662.867188 662.746094 663.4375 662.632812 C 664.007812 662.519531 664.558594 662.351562 665.097656 662.128906 C 665.632812 661.910156 666.144531 661.636719 666.628906 661.3125 C 667.109375 660.988281 667.558594 660.621094 667.96875 660.210938 C 668.378906 659.800781 668.746094 659.355469 669.070312 658.871094 C 669.394531 658.386719 669.664062 657.878906 669.886719 657.339844 C 670.109375 656.804688 670.277344 656.25 670.390625 655.679688 C 670.503906 655.109375 670.5625 654.535156 670.5625 653.953125 L 670.5625 552.648438 C 670.558594 549.765625 670.4375 546.886719 670.195312 544.011719 C 669.953125 541.140625 669.59375 538.28125 669.113281 535.4375 C 668.636719 532.59375 668.039062 529.777344 667.324219 526.980469 C 666.613281 524.1875 665.785156 521.429688 664.84375 518.703125 C 663.898438 515.980469 662.847656 513.296875 661.679688 510.660156 C 660.515625 508.023438 659.246094 505.4375 657.863281 502.90625 C 656.484375 500.375 655.003906 497.902344 653.417969 495.492188 C 651.832031 493.085938 650.152344 490.746094 648.371094 488.476562 C 646.59375 486.207031 644.722656 484.015625 642.761719 481.902344 C 640.800781 479.789062 638.757812 477.757812 636.628906 475.8125 C 634.496094 473.871094 632.292969 472.019531 630.007812 470.257812 C 627.722656 468.496094 625.371094 466.832031 622.949219 465.265625 C 620.53125 463.703125 618.046875 462.238281 615.503906 460.878906 C 612.960938 459.519531 610.367188 458.269531 607.71875 457.125 C 605.074219 455.980469 602.382812 454.949219 599.652344 454.027344 C 596.917969 453.105469 594.152344 452.300781 591.351562 451.609375 Z M 395.523438 645.136719 L 354.488281 645.136719 L 354.488281 522.550781 C 354.566406 521.925781 354.578125 521.304688 354.523438 520.675781 C 354.472656 520.050781 354.351562 519.4375 354.167969 518.835938 C 353.984375 518.234375 353.738281 517.660156 353.429688 517.113281 C 353.125 516.5625 352.761719 516.054688 352.347656 515.582031 C 351.933594 515.109375 351.472656 514.6875 350.96875 514.316406 C 350.460938 513.941406 349.921875 513.625 349.351562 513.367188 C 348.777344 513.109375 348.183594 512.914062 347.570312 512.78125 C 346.957031 512.648438 346.332031 512.582031 345.707031 512.582031 C 345.078125 512.582031 344.457031 512.648438 343.839844 512.78125 C 343.226562 512.914062 342.632812 513.109375 342.0625 513.367188 C 341.488281 513.625 340.949219 513.941406 340.445312 514.316406 C 339.9375 514.6875 339.476562 515.109375 339.0625 515.582031 C 338.648438 516.054688 338.285156 516.5625 337.980469 517.113281 C 337.671875 517.660156 337.425781 518.234375 337.242188 518.835938 C 337.058594 519.4375 336.9375 520.050781 336.886719 520.675781 C 336.832031 521.304688 336.84375 521.925781 336.925781 522.550781 L 336.925781 645.136719 L 215.5625 645.136719 L 215.5625 522.550781 C 215.640625 521.925781 215.652344 521.304688 215.597656 520.675781 C 215.546875 520.050781 215.425781 519.4375 215.242188 518.835938 C 215.058594 518.234375 214.8125 517.660156 214.503906 517.113281 C 214.199219 516.5625 213.835938 516.054688 213.421875 515.582031 C 213.007812 515.109375 212.546875 514.6875 212.042969 514.316406 C 211.535156 513.941406 210.996094 513.625 210.425781 513.367188 C 209.851562 513.109375 209.257812 512.914062 208.644531 512.78125 C 208.03125 512.648438 207.40625 512.582031 206.78125 512.582031 C 206.152344 512.582031 205.53125 512.648438 204.914062 512.78125 C 204.300781 512.914062 203.707031 513.109375 203.136719 513.367188 C 202.5625 513.625 202.023438 513.941406 201.519531 514.316406 C 201.011719 514.6875 200.550781 515.109375 200.136719 515.582031 C 199.722656 516.054688 199.359375 516.5625 199.054688 517.113281 C 198.746094 517.660156 198.5 518.234375 198.316406 518.835938 C 198.132812 519.4375 198.011719 520.050781 197.960938 520.675781 C 197.90625 521.304688 197.917969 521.925781 198 522.550781 L 198 645.136719 L 156.996094 645.136719 L 156.996094 525.136719 C 157 522.808594 157.09375 520.484375 157.285156 518.164062 C 157.476562 515.84375 157.757812 513.53125 158.136719 511.234375 C 158.511719 508.9375 158.980469 506.660156 159.539062 504.398438 C 160.097656 502.140625 160.75 499.90625 161.488281 497.695312 C 162.226562 495.488281 163.054688 493.316406 163.96875 491.175781 C 164.882812 489.03125 165.882812 486.933594 166.964844 484.871094 C 168.050781 482.8125 169.214844 480.796875 170.460938 478.828125 C 171.707031 476.863281 173.03125 474.949219 174.429688 473.089844 C 175.832031 471.230469 177.300781 469.425781 178.847656 467.6875 C 180.394531 465.945312 182.003906 464.265625 183.683594 462.65625 C 185.367188 461.042969 187.109375 459.5 188.910156 458.03125 C 190.714844 456.558594 192.578125 455.160156 194.492188 453.839844 C 196.410156 452.515625 198.375 451.273438 200.394531 450.109375 C 202.410156 448.949219 204.46875 447.867188 206.574219 446.871094 C 208.675781 445.871094 210.816406 444.960938 212.996094 444.136719 C 215.171875 443.308594 217.378906 442.574219 219.613281 441.925781 C 256.296875 461.152344 296.238281 461.152344 332.921875 441.925781 C 335.160156 442.574219 337.363281 443.308594 339.542969 444.136719 C 341.71875 444.960938 343.859375 445.875 345.960938 446.871094 C 348.066406 447.871094 350.125 448.949219 352.140625 450.113281 C 354.15625 451.277344 356.125 452.519531 358.039062 453.84375 C 359.957031 455.164062 361.816406 456.5625 363.621094 458.035156 C 365.421875 459.503906 367.164062 461.046875 368.84375 462.660156 C 370.523438 464.269531 372.136719 465.949219 373.679688 467.691406 C 375.226562 469.433594 376.699219 471.234375 378.097656 473.09375 C 379.496094 474.953125 380.820312 476.867188 382.066406 478.835938 C 383.308594 480.800781 384.476562 482.816406 385.558594 484.875 C 386.640625 486.9375 387.640625 489.035156 388.554688 491.175781 C 389.46875 493.316406 390.296875 495.492188 391.035156 497.699219 C 391.773438 499.90625 392.425781 502.140625 392.984375 504.402344 C 393.542969 506.660156 394.011719 508.941406 394.386719 511.238281 C 394.761719 513.535156 395.046875 515.84375 395.234375 518.164062 C 395.425781 520.484375 395.523438 522.808594 395.523438 525.136719 Z M 652.929688 645.136719 L 604.222656 645.136719 L 615.574219 617.09375 C 617.765625 611.746094 619.132812 606.199219 619.679688 600.449219 C 620.222656 594.699219 619.921875 588.992188 618.777344 583.328125 L 611.695312 548.417969 C 611.636719 547.800781 611.511719 547.199219 611.324219 546.609375 C 611.140625 546.019531 610.894531 545.457031 610.589844 544.917969 C 610.285156 544.378906 609.929688 543.878906 609.519531 543.417969 C 609.109375 542.953125 608.660156 542.535156 608.160156 542.167969 C 607.664062 541.800781 607.136719 541.488281 606.574219 541.230469 C 606.011719 540.972656 605.429688 540.773438 604.828125 540.640625 C 604.222656 540.503906 603.613281 540.433594 602.996094 540.425781 C 602.378906 540.417969 601.765625 540.472656 601.160156 540.59375 C 600.550781 540.714844 599.964844 540.894531 599.398438 541.140625 C 598.828125 541.382812 598.292969 541.683594 597.785156 542.039062 C 597.28125 542.394531 596.820312 542.800781 596.398438 543.253906 C 595.976562 543.703125 595.609375 544.195312 595.289062 544.726562 C 594.972656 545.257812 594.714844 545.816406 594.511719 546.398438 C 594.3125 546.984375 594.175781 547.582031 594.097656 548.195312 C 594.023438 548.808594 594.011719 549.425781 594.066406 550.039062 C 594.117188 550.65625 594.234375 551.261719 594.414062 551.851562 L 601.496094 586.765625 C 602.320312 590.730469 602.546875 594.734375 602.179688 598.769531 C 601.8125 602.804688 600.863281 606.699219 599.335938 610.453125 L 585.296875 645.136719 L 481.125 645.136719 L 467.085938 610.453125 C 465.570312 606.695312 464.628906 602.800781 464.261719 598.769531 C 463.894531 594.734375 464.113281 590.734375 464.925781 586.765625 L 472.007812 551.851562 C 472.199219 551.257812 472.328125 550.648438 472.394531 550.027344 C 472.457031 549.40625 472.457031 548.785156 472.386719 548.164062 C 472.320312 547.542969 472.1875 546.933594 471.992188 546.339844 C 471.796875 545.746094 471.542969 545.179688 471.226562 544.640625 C 470.910156 544.101562 470.539062 543.601562 470.117188 543.140625 C 469.695312 542.679688 469.230469 542.269531 468.722656 541.90625 C 468.210938 541.542969 467.671875 541.238281 467.097656 540.992188 C 466.523438 540.742188 465.929688 540.558594 465.316406 540.4375 C 464.703125 540.316406 464.085938 540.257812 463.460938 540.265625 C 462.835938 540.277344 462.21875 540.351562 461.609375 540.492188 C 461 540.628906 460.414062 540.832031 459.847656 541.097656 C 459.28125 541.359375 458.746094 541.679688 458.25 542.058594 C 457.75 542.433594 457.296875 542.859375 456.890625 543.332031 C 456.480469 543.804688 456.125 544.316406 455.824219 544.863281 C 455.523438 545.414062 455.285156 545.984375 455.105469 546.585938 C 454.925781 547.183594 454.8125 547.792969 454.765625 548.417969 L 447.683594 583.328125 C 446.539062 588.988281 446.234375 594.695312 446.769531 600.441406 C 447.308594 606.191406 448.660156 611.742188 450.832031 617.09375 L 462.199219 645.136719 L 414.398438 645.136719 L 414.398438 552.648438 C 414.398438 550.320312 414.492188 547.996094 414.679688 545.671875 C 414.867188 543.351562 415.148438 541.042969 415.523438 538.746094 C 415.894531 536.445312 416.363281 534.167969 416.921875 531.90625 C 417.476562 529.644531 418.125 527.410156 418.863281 525.203125 C 419.601562 522.992188 420.429688 520.816406 421.339844 518.675781 C 422.253906 516.535156 423.253906 514.433594 424.335938 512.371094 C 425.417969 510.308594 426.582031 508.292969 427.828125 506.328125 C 429.074219 504.359375 430.398438 502.445312 431.796875 500.585938 C 433.199219 498.722656 434.671875 496.921875 436.214844 495.179688 C 437.761719 493.4375 439.375 491.761719 441.054688 490.148438 C 442.734375 488.539062 444.476562 486.996094 446.28125 485.523438 C 448.085938 484.054688 449.949219 482.65625 451.867188 481.335938 C 453.785156 480.015625 455.75 478.773438 457.769531 477.609375 C 459.785156 476.445312 461.847656 475.367188 463.953125 474.371094 C 466.058594 473.375 468.199219 472.464844 470.378906 471.640625 C 472.554688 470.816406 474.761719 470.082031 477 469.4375 C 513.628906 488.542969 553.679688 488.542969 590.308594 469.4375 C 592.542969 470.085938 594.75 470.824219 596.925781 471.648438 C 599.105469 472.472656 601.242188 473.386719 603.347656 474.382812 C 605.449219 475.382812 607.511719 476.460938 609.527344 477.625 C 611.542969 478.789062 613.507812 480.035156 615.425781 481.355469 C 617.339844 482.675781 619.203125 484.074219 621.003906 485.546875 C 622.808594 487.019531 624.550781 488.558594 626.230469 490.171875 C 627.910156 491.785156 629.523438 493.460938 631.066406 495.203125 C 632.609375 496.945312 634.082031 498.746094 635.484375 500.605469 C 636.882812 502.464844 638.203125 504.378906 639.449219 506.347656 C 640.695312 508.3125 641.859375 510.328125 642.945312 512.386719 C 644.027344 514.449219 645.027344 516.550781 645.941406 518.691406 C 646.855469 520.832031 647.679688 523.003906 648.421875 525.210938 C 649.160156 527.421875 649.808594 529.652344 650.367188 531.914062 C 650.929688 534.171875 651.394531 536.453125 651.773438 538.75 C 652.148438 541.046875 652.429688 543.355469 652.621094 545.675781 C 652.8125 547.996094 652.90625 550.320312 652.910156 552.648438 Z M 276.269531 415.367188 C 324.9375 415.367188 364.507812 372.667969 364.507812 320.261719 C 364.507812 267.855469 324.9375 225.082031 276.269531 225.082031 C 227.601562 225.082031 188.011719 267.769531 188.011719 320.261719 C 188.011719 372.753906 227.601562 415.367188 276.269531 415.367188 Z M 276.269531 242.714844 C 315.21875 242.714844 346.945312 277.503906 346.945312 320.261719 C 346.945312 363.015625 315.234375 397.734375 276.269531 397.734375 C 237.300781 397.734375 205.59375 363.089844 205.59375 320.261719 C 205.59375 277.433594 237.285156 242.699219 276.269531 242.699219 Z M 276.269531 242.714844 " fill-opacity="1" fill-rule="nonzero"/></g></svg>