<svg xmlns="http://www.w3.org/2000/svg" xmlns:xlink="http://www.w3.org/1999/xlink" width="1080" zoomAndPan="magnify" viewBox="0 0 810 817.92" height="1080" preserveAspectRatio="xMidYMid meet" version="1.0"><defs><clipPath id="5f3288fcde"><path d="M 0.0390625 0 L 809.960938 0 L 809.960938 809.921875 L 0.0390625 809.921875 Z M 0.0390625 0 " clip-rule="nonzero"/></clipPath><clipPath id="b0a34cd770"><path d="M 183.972656 178.433594 L 615.929688 178.433594 L 615.929688 612.640625 L 183.972656 612.640625 Z M 183.972656 178.433594 " clip-rule="nonzero"/></clipPath></defs><g clip-path="url(#5f3288fcde)"><path fill="#ffffff" d="M 0.0390625 0 L 809.960938 0 L 809.960938 809.921875 L 0.0390625 809.921875 Z M 0.0390625 0 " fill-opacity="1" fill-rule="nonzero"/><path fill="#ffffff" d="M 0.0390625 0 L 809.960938 0 L 809.960938 809.921875 L 0.0390625 809.921875 Z M 0.0390625 0 " fill-opacity="1" fill-rule="nonzero"/></g><g clip-path="url(#b0a34cd770)"><path fill="#134295" d="M 552.96875 241.71875 C 512.367188 201.074219 458.375 178.652344 400.84375 178.652344 C 282.300781 178.652344 185.820312 275.113281 185.777344 393.695312 C 185.777344 431.59375 195.667969 468.613281 214.488281 501.210938 L 183.972656 612.648438 L 297.988281 582.734375 C 329.40625 599.878906 364.769531 608.894531 400.757812 608.914062 L 400.84375 608.914062 C 519.363281 608.914062 615.867188 512.433594 615.890625 393.867188 C 615.890625 336.398438 593.570312 282.386719 552.949219 241.71875 Z M 400.84375 572.605469 L 400.777344 572.605469 C 368.71875 572.605469 337.238281 563.980469 309.789062 547.691406 L 303.265625 543.808594 L 235.605469 561.554688 L 253.652344 495.585938 L 249.402344 488.828125 C 231.503906 460.371094 222.0625 427.472656 222.085938 393.695312 C 222.128906 295.15625 302.324219 214.960938 400.90625 214.960938 C 448.65625 214.960938 493.527344 233.585938 527.28125 267.386719 C 561.039062 301.164062 579.601562 346.078125 579.578125 393.847656 C 579.539062 492.410156 499.34375 572.605469 400.820312 572.605469 Z M 498.890625 438.742188 C 493.527344 436.058594 467.109375 423.054688 462.175781 421.273438 C 457.238281 419.46875 453.675781 418.589844 450.09375 423.957031 C 446.507812 429.339844 436.207031 441.445312 433.074219 445.027344 C 429.941406 448.613281 426.808594 449.0625 421.421875 446.359375 C 416.058594 443.675781 398.742188 437.988281 378.203125 419.683594 C 362.238281 405.433594 351.441406 387.839844 348.308594 382.453125 C 345.175781 377.066406 347.988281 374.167969 350.671875 371.488281 C 353.074219 369.082031 356.035156 365.199219 358.738281 362.066406 C 361.421875 358.933594 362.324219 356.679688 364.105469 353.09375 C 365.90625 349.511719 365.003906 346.378906 363.652344 343.675781 C 362.300781 340.992188 351.570312 314.53125 347.085938 303.78125 C 342.730469 293.308594 338.289062 294.726562 335.003906 294.554688 C 331.871094 294.402344 328.289062 294.359375 324.703125 294.359375 C 321.121094 294.359375 315.304688 295.691406 310.371094 301.078125 C 305.433594 306.464844 291.570312 319.46875 291.570312 345.90625 C 291.570312 372.34375 310.820312 397.902344 313.523438 401.507812 C 316.207031 405.09375 351.421875 459.363281 405.328125 482.648438 C 418.140625 488.183594 428.160156 491.488281 435.972656 493.976562 C 448.847656 498.078125 460.566406 497.496094 469.8125 496.101562 C 480.136719 494.558594 501.597656 483.097656 506.082031 470.542969 C 510.566406 457.988281 510.566406 447.238281 509.214844 444.984375 C 507.863281 442.730469 504.277344 441.402344 498.914062 438.699219 Z M 498.890625 438.742188 " fill-opacity="1" fill-rule="evenodd"/></g></svg>